%
M48
M72
T01C0.0236
T02C0.0276
T03C0.0320
T04C0.0354
T05C0.0394
T06C0.0400
T07C0.0440
T08C0.1180
T09C0.2756
%
T01
X18148Y26004
X18542Y28760
X22869Y25893
X24219Y24193
X24719Y26693
X33700Y28327
X33857Y27579
X36731Y30059
X34251Y31280
X35769Y33643
X21337Y37854
X20904Y36240
T02
X17695Y37671
X16695Y37671
X10909Y35426
X9909Y35426
X10397Y34081
X9397Y34081
X9316Y30453
X10316Y30453
X10205Y29191
X9205Y29191
X21505Y29471
X21505Y28471
X21500Y27385
X21500Y26385
X24729Y31085
X24729Y32085
X30379Y31662
X30379Y32662
T03
X29023Y33090
X29023Y34090
X29023Y35090
X29023Y36090
X29023Y37090
X29023Y38090
X26023Y38090
X26023Y37090
X26023Y36090
X26023Y35090
X26023Y34090
X26023Y33090
X26023Y32090
X26023Y31090
X26023Y30090
X26023Y29090
X26023Y28090
X26023Y27090
X26023Y26090
X26023Y25090
X23531Y27433
X23531Y29333
X19623Y31429
X19623Y32429
X12315Y30938
X12315Y30088
X12315Y29238
X8288Y27220
X8288Y26220
X12302Y34332
X12302Y35182
X12302Y36032
X20156Y22276
X21156Y22276
X23613Y20669
X24613Y20669
X21141Y19295
X20141Y19295
X17826Y20709
X16826Y20709
X29023Y25090
X29023Y26090
X29023Y27090
X29023Y28090
X29023Y29090
X29023Y30090
X29023Y31090
X29023Y32090
T04
X11745Y20436
X15277Y22314
X16209Y22804
X19654Y25941
X19741Y24682
X21530Y24672
X25062Y22794
X26001Y22344
X29533Y20467
X19654Y29941
X19597Y33850
X19597Y37850
X6885Y28766
X6885Y24766
T05
X10709Y37307
T06
X11592Y37777
X12475Y38246
X13358Y38716
X14241Y39185
X15124Y39655
X15952Y36771
X15952Y34991
X18512Y34991
X18512Y36771
X22224Y36850
X22324Y35850
X22224Y34850
X22324Y33850
X22224Y32850
X22324Y31850
X22224Y30850
X22324Y37850
X30682Y37833
X31518Y37275
X32448Y36894
X33284Y36336
X34214Y35955
X35050Y35397
X36117Y32576
X36117Y31576
X37117Y31576
X37117Y32576
X38117Y32576
X38117Y31576
X37831Y28713
X38831Y28713
X38831Y27713
X37831Y27713
X36831Y27713
X35831Y27713
X35831Y28713
X36831Y28713
X31704Y29290
X31604Y30290
X31704Y31290
X31604Y32290
X31704Y33290
X31604Y28290
X31704Y27290
X31604Y26290
X8191Y35985
X7355Y35427
X6425Y35046
X3091Y28551
X3191Y27551
X3091Y26551
X3191Y25551
X3091Y24551
T07
X7560Y32302
X11560Y32302
T08
X5894Y32257
X4713Y30406
X3531Y32257
T09
X20670Y40553
M30
