G75*
%MOIN*%
%OFA0B0*%
%FSLAX24Y24*%
%IPPOS*%
%LPD*%
%AMOC8*
5,1,8,0,0,1.08239X$1,22.5*
%
%ADD10C,0.0100*%
%ADD11C,0.0740*%
%ADD12C,0.0650*%
%ADD13C,0.0560*%
%ADD14OC8,0.0740*%
%ADD15R,0.0740X0.0740*%
%ADD16C,0.0560*%
%ADD17R,0.0634X0.0634*%
%ADD18C,0.0700*%
%ADD19C,0.3156*%
%ADD20OC8,0.0660*%
%ADD21C,0.1700*%
%ADD22C,0.0760*%
%ADD23C,0.0436*%
D10*
X001298Y014272D02*
X020688Y004370D01*
X040058Y014252D01*
X040078Y034055D01*
X020668Y043957D01*
X001298Y034075D01*
X001298Y014272D01*
X001518Y014406D02*
X001518Y033940D01*
X020668Y043710D01*
X039857Y033920D01*
X039851Y027352D01*
X038621Y026004D01*
X034684Y026004D01*
X033148Y024409D01*
X033148Y021772D01*
X030806Y018996D01*
X027500Y020680D01*
X027086Y020891D01*
X027620Y021425D01*
X027620Y024882D01*
X028294Y024209D01*
X031232Y024209D01*
X031361Y024338D01*
X032413Y025390D01*
X033200Y025390D01*
X033329Y025519D01*
X035295Y027485D01*
X035607Y027173D01*
X036055Y027173D01*
X036331Y027450D01*
X036607Y027173D01*
X037055Y027173D01*
X037331Y027450D01*
X037607Y027173D01*
X038055Y027173D01*
X038331Y027450D01*
X038607Y027173D01*
X039055Y027173D01*
X039371Y027490D01*
X039371Y027937D01*
X039081Y028227D01*
X039351Y028498D01*
X039351Y028663D01*
X038881Y028663D01*
X038881Y028763D01*
X039351Y028763D01*
X039351Y028929D01*
X039046Y029233D01*
X038881Y029233D01*
X038881Y028763D01*
X038781Y028763D01*
X038781Y029233D01*
X038616Y029233D01*
X038345Y028963D01*
X038055Y029253D01*
X037607Y029253D01*
X037331Y028977D01*
X037055Y029253D01*
X036607Y029253D01*
X036605Y029251D01*
X034639Y031217D01*
X034639Y031357D01*
X034580Y031499D01*
X034471Y031609D01*
X034328Y031668D01*
X034174Y031668D01*
X034057Y031619D01*
X035692Y033255D01*
X035847Y033255D01*
X035989Y033314D01*
X036098Y033423D01*
X036157Y033566D01*
X036157Y033720D01*
X036098Y033863D01*
X035989Y033972D01*
X035847Y034031D01*
X035692Y034031D01*
X035549Y033972D01*
X035440Y033863D01*
X035381Y033720D01*
X035381Y033566D01*
X032325Y030510D01*
X032097Y030510D01*
X032062Y030596D01*
X031910Y030748D01*
X031858Y030769D01*
X032010Y030832D01*
X032162Y030984D01*
X032244Y031183D01*
X032244Y031397D01*
X032208Y031483D01*
X034777Y034052D01*
X036168Y034052D01*
X036897Y033322D01*
X036897Y033116D01*
X036894Y033116D01*
X036617Y032840D01*
X036341Y033116D01*
X035894Y033116D01*
X035577Y032800D01*
X035577Y032352D01*
X035868Y032062D01*
X035597Y031792D01*
X035597Y031626D01*
X036067Y031626D01*
X036067Y031526D01*
X035597Y031526D01*
X035597Y031361D01*
X035902Y031056D01*
X036067Y031056D01*
X036067Y031526D01*
X036167Y031526D01*
X036167Y031056D01*
X036333Y031056D01*
X036603Y031327D01*
X036894Y031036D01*
X036897Y031036D01*
X036897Y030536D01*
X036808Y030447D01*
X036654Y030447D01*
X036511Y030388D01*
X036402Y030279D01*
X036343Y030136D01*
X036343Y029982D01*
X036402Y029839D01*
X036511Y029730D01*
X036654Y029671D01*
X036808Y029671D01*
X036951Y029730D01*
X037060Y029839D01*
X037119Y029982D01*
X037119Y030136D01*
X037337Y030354D01*
X037337Y031036D01*
X037341Y031036D01*
X037617Y031312D01*
X037894Y031036D01*
X038341Y031036D01*
X038657Y031352D01*
X038657Y031800D01*
X038381Y032076D01*
X038657Y032352D01*
X038657Y032800D01*
X038341Y033116D01*
X037894Y033116D01*
X037617Y032840D01*
X037341Y033116D01*
X037337Y033116D01*
X037337Y033504D01*
X036350Y034492D01*
X034594Y034492D01*
X031897Y031794D01*
X031831Y031822D01*
X031876Y031845D01*
X031943Y031893D01*
X032001Y031951D01*
X032049Y032017D01*
X032086Y032090D01*
X032111Y032168D01*
X032122Y032240D01*
X031654Y032240D01*
X031654Y032340D01*
X032122Y032340D01*
X032111Y032412D01*
X032086Y032490D01*
X032049Y032562D01*
X032001Y032629D01*
X031943Y032687D01*
X031876Y032735D01*
X031831Y032758D01*
X032010Y032832D01*
X032162Y032984D01*
X032244Y033183D01*
X032244Y033397D01*
X032162Y033596D01*
X032010Y033748D01*
X031811Y033830D01*
X031596Y033830D01*
X031398Y033748D01*
X031246Y033596D01*
X031164Y033397D01*
X031164Y033183D01*
X031221Y033045D01*
X030848Y032587D01*
X030854Y032624D01*
X030854Y032643D01*
X030398Y032643D01*
X030398Y032187D01*
X030417Y032187D01*
X030491Y032199D01*
X030547Y032217D01*
X030493Y032150D01*
X030478Y032157D01*
X030281Y032157D01*
X030099Y032081D01*
X029960Y031942D01*
X029884Y031760D01*
X029884Y031563D01*
X029960Y031381D01*
X030099Y031242D01*
X030281Y031167D01*
X030478Y031167D01*
X030660Y031242D01*
X030799Y031381D01*
X030874Y031563D01*
X030874Y031760D01*
X030830Y031867D01*
X031093Y032191D01*
X031097Y032168D01*
X031122Y032090D01*
X031159Y032017D01*
X031207Y031951D01*
X031265Y031893D01*
X031331Y031845D01*
X031404Y031808D01*
X031482Y031783D01*
X031482Y031783D01*
X031398Y031748D01*
X031246Y031596D01*
X031164Y031397D01*
X031164Y031183D01*
X031246Y030984D01*
X031398Y030832D01*
X031450Y030811D01*
X031298Y030748D01*
X031146Y030596D01*
X031064Y030397D01*
X031064Y030183D01*
X031146Y029984D01*
X031298Y029832D01*
X031450Y029769D01*
X031398Y029748D01*
X031246Y029596D01*
X031164Y029397D01*
X031164Y029183D01*
X031246Y028984D01*
X031398Y028832D01*
X031450Y028811D01*
X031298Y028748D01*
X031146Y028596D01*
X031064Y028397D01*
X031064Y028183D01*
X031146Y027984D01*
X031298Y027832D01*
X031450Y027769D01*
X031398Y027748D01*
X031246Y027596D01*
X031164Y027397D01*
X031164Y027183D01*
X031246Y026984D01*
X031398Y026832D01*
X031403Y026830D01*
X031163Y026830D01*
X031064Y026730D01*
X031064Y025850D01*
X031163Y025750D01*
X032044Y025750D01*
X032144Y025850D01*
X032144Y026730D01*
X032044Y026830D01*
X032004Y026830D01*
X032010Y026832D01*
X032162Y026984D01*
X032244Y027183D01*
X032244Y027397D01*
X032162Y027596D01*
X032010Y027748D01*
X031858Y027811D01*
X031910Y027832D01*
X032062Y027984D01*
X032097Y028070D01*
X033055Y028070D01*
X033469Y027656D01*
X033469Y027502D01*
X033528Y027359D01*
X033637Y027250D01*
X033780Y027191D01*
X033934Y027191D01*
X034077Y027250D01*
X034186Y027359D01*
X034245Y027502D01*
X034245Y027656D01*
X034186Y027799D01*
X034077Y027908D01*
X033934Y027967D01*
X033845Y027967D01*
X033920Y027998D01*
X034029Y028107D01*
X034088Y028250D01*
X034088Y028404D01*
X034051Y028493D01*
X035291Y028493D01*
X035291Y028490D01*
X035567Y028213D01*
X035291Y027937D01*
X035291Y027933D01*
X035121Y027933D01*
X034992Y027804D01*
X033018Y025830D01*
X032231Y025830D01*
X031049Y024649D01*
X029414Y024649D01*
X029558Y024709D01*
X029685Y024835D01*
X029753Y025001D01*
X029753Y025180D01*
X029685Y025345D01*
X029558Y025472D01*
X029393Y025540D01*
X028654Y025540D01*
X028488Y025472D01*
X028362Y025345D01*
X028293Y025180D01*
X028293Y025001D01*
X028362Y024835D01*
X028488Y024709D01*
X028632Y024649D01*
X028476Y024649D01*
X027935Y025190D01*
X027935Y029292D01*
X028341Y028886D01*
X028362Y028835D01*
X028488Y028709D01*
X028654Y028640D01*
X029393Y028640D01*
X029558Y028709D01*
X029685Y028835D01*
X029753Y029001D01*
X029753Y029180D01*
X029685Y029345D01*
X029558Y029472D01*
X029393Y029540D01*
X028654Y029540D01*
X028488Y029472D01*
X028433Y029416D01*
X028211Y029638D01*
X028211Y038693D01*
X027975Y038930D01*
X027846Y039059D01*
X021640Y039059D01*
X020813Y038232D01*
X020684Y038103D01*
X020684Y036569D01*
X020575Y036460D01*
X020516Y036317D01*
X020516Y036163D01*
X020575Y036020D01*
X020685Y035911D01*
X020827Y035852D01*
X020982Y035852D01*
X021124Y035911D01*
X021233Y036020D01*
X021292Y036163D01*
X021292Y036317D01*
X021233Y036460D01*
X021124Y036569D01*
X021124Y037523D01*
X021260Y037466D01*
X021415Y037466D01*
X021557Y037525D01*
X021666Y037634D01*
X021726Y037777D01*
X021726Y037931D01*
X021784Y037990D01*
X021784Y037410D01*
X021884Y037310D01*
X021924Y037310D01*
X021918Y037308D01*
X021767Y037156D01*
X021684Y036958D01*
X021684Y036743D01*
X021767Y036544D01*
X021918Y036392D01*
X022070Y036330D01*
X022018Y036308D01*
X021867Y036156D01*
X021784Y035958D01*
X021784Y035743D01*
X021867Y035544D01*
X022018Y035392D01*
X022070Y035371D01*
X021918Y035308D01*
X021767Y035156D01*
X021684Y034958D01*
X021684Y034743D01*
X021767Y034544D01*
X021918Y034392D01*
X022070Y034330D01*
X022018Y034308D01*
X021867Y034156D01*
X021784Y033958D01*
X021784Y033743D01*
X021867Y033544D01*
X022018Y033392D01*
X022070Y033371D01*
X021918Y033308D01*
X021767Y033156D01*
X021684Y032958D01*
X021684Y032743D01*
X021767Y032544D01*
X021918Y032392D01*
X022070Y032330D01*
X022018Y032308D01*
X021867Y032156D01*
X021784Y031958D01*
X021784Y031743D01*
X021867Y031544D01*
X022018Y031392D01*
X022070Y031371D01*
X021918Y031308D01*
X021767Y031156D01*
X021684Y030958D01*
X021684Y030743D01*
X021767Y030544D01*
X021675Y030544D01*
X021767Y030544D02*
X021918Y030392D01*
X022117Y030310D01*
X022332Y030310D01*
X022530Y030392D01*
X022682Y030544D01*
X023283Y030544D01*
X023381Y030642D02*
X022723Y030642D01*
X022682Y030544D02*
X022764Y030743D01*
X022764Y030958D01*
X022682Y031156D01*
X022530Y031308D01*
X022478Y031330D01*
X022630Y031392D01*
X022782Y031544D01*
X022864Y031743D01*
X022864Y031958D01*
X022782Y032156D01*
X022630Y032308D01*
X022508Y032359D01*
X024306Y032359D01*
X024234Y032184D01*
X024234Y031987D01*
X024263Y031917D01*
X023569Y031224D01*
X023440Y031095D01*
X023440Y030701D01*
X022900Y030161D01*
X022058Y030161D01*
X021479Y030741D01*
X021350Y030870D01*
X018207Y030870D01*
X018762Y031425D01*
X018762Y032518D01*
X019445Y033328D01*
X019490Y033310D01*
X019704Y033310D01*
X019903Y033392D01*
X020055Y033544D01*
X020137Y033742D01*
X020137Y033957D01*
X020055Y034156D01*
X019903Y034308D01*
X019704Y034390D01*
X019490Y034390D01*
X019291Y034308D01*
X019139Y034156D01*
X019057Y033957D01*
X019057Y033742D01*
X019110Y033614D01*
X018380Y032747D01*
X018322Y032689D01*
X018322Y032678D01*
X018315Y032670D01*
X018322Y032589D01*
X018322Y031607D01*
X017664Y030948D01*
X017585Y030870D01*
X012795Y030870D01*
X012795Y030908D01*
X012345Y030908D01*
X012345Y030968D01*
X012795Y030968D01*
X012795Y031137D01*
X012636Y031296D01*
X013121Y031296D01*
X013250Y031425D01*
X015219Y033393D01*
X015219Y035755D01*
X015739Y036275D01*
X015845Y036231D01*
X016060Y036231D01*
X016258Y036314D01*
X016410Y036466D01*
X016445Y036551D01*
X018019Y036551D01*
X018054Y036466D01*
X018206Y036314D01*
X018405Y036231D01*
X018620Y036231D01*
X018818Y036314D01*
X018970Y036466D01*
X019052Y036664D01*
X019052Y036879D01*
X019027Y036941D01*
X019413Y037342D01*
X019490Y037310D01*
X019704Y037310D01*
X019903Y037392D01*
X020055Y037544D01*
X020137Y037742D01*
X020137Y037957D01*
X020055Y038156D01*
X019903Y038308D01*
X019704Y038390D01*
X019490Y038390D01*
X019291Y038308D01*
X019139Y038156D01*
X019057Y037957D01*
X019057Y037742D01*
X019096Y037647D01*
X018729Y037266D01*
X018620Y037311D01*
X018405Y037311D01*
X018342Y037286D01*
X018156Y037490D01*
X018190Y037572D01*
X018190Y037769D01*
X018115Y037951D01*
X017975Y038090D01*
X017793Y038166D01*
X017596Y038166D01*
X017415Y038090D01*
X017275Y037951D01*
X017200Y037769D01*
X017200Y037572D01*
X017275Y037390D01*
X017415Y037251D01*
X017596Y037176D01*
X017793Y037176D01*
X017833Y037192D01*
X018015Y036991D01*
X016445Y036991D01*
X016410Y037077D01*
X016258Y037229D01*
X016060Y037311D01*
X015845Y037311D01*
X015646Y037229D01*
X015494Y037077D01*
X015412Y036879D01*
X015412Y036664D01*
X015439Y036598D01*
X014908Y036066D01*
X014908Y036066D01*
X014779Y035938D01*
X014779Y033575D01*
X012939Y031736D01*
X007821Y031736D01*
X007692Y031607D01*
X007692Y031607D01*
X005065Y028980D01*
X003426Y028980D01*
X003396Y029009D01*
X003198Y029091D01*
X002983Y029091D01*
X002785Y029009D01*
X002633Y028857D01*
X002551Y028659D01*
X002551Y028444D01*
X002633Y028245D01*
X002785Y028093D01*
X002964Y028019D01*
X002918Y027996D01*
X002852Y027948D01*
X002794Y027890D01*
X002746Y027824D01*
X002709Y027751D01*
X002683Y027673D01*
X002672Y027601D01*
X003141Y027601D01*
X003141Y027501D01*
X002672Y027501D01*
X002683Y027429D01*
X002709Y027352D01*
X002746Y027279D01*
X002794Y027212D01*
X002852Y027155D01*
X002918Y027106D01*
X002964Y027083D01*
X002785Y027009D01*
X002633Y026857D01*
X002551Y026659D01*
X002551Y026444D01*
X002633Y026245D01*
X002785Y026093D01*
X002937Y026030D01*
X002885Y026009D01*
X002733Y025857D01*
X002651Y025659D01*
X002651Y025444D01*
X002733Y025245D01*
X002885Y025093D01*
X002937Y025072D01*
X002785Y025009D01*
X002633Y024857D01*
X002551Y024659D01*
X002551Y024444D01*
X002633Y024245D01*
X002785Y024093D01*
X002983Y024011D01*
X003198Y024011D01*
X003396Y024093D01*
X003548Y024245D01*
X003631Y024444D01*
X003631Y024659D01*
X003548Y024857D01*
X003396Y025009D01*
X003345Y025030D01*
X003496Y025093D01*
X003648Y025245D01*
X003731Y025444D01*
X003731Y025659D01*
X003648Y025857D01*
X003496Y026009D01*
X003345Y026072D01*
X003396Y026093D01*
X003548Y026245D01*
X003631Y026444D01*
X003631Y026659D01*
X003595Y026744D01*
X004603Y027752D01*
X009077Y027752D01*
X009206Y027881D01*
X010046Y028721D01*
X010106Y028696D01*
X010303Y028696D01*
X010485Y028771D01*
X010625Y028911D01*
X010700Y029092D01*
X010700Y029289D01*
X010625Y029471D01*
X010611Y029485D01*
X011854Y029485D01*
X011815Y029445D01*
X011815Y029031D01*
X012108Y028738D01*
X012522Y028738D01*
X012815Y029031D01*
X012815Y029445D01*
X012597Y029663D01*
X012815Y029881D01*
X012815Y030277D01*
X012968Y030430D01*
X019421Y030430D01*
X019348Y030399D01*
X019196Y030247D01*
X019114Y030049D01*
X019114Y029834D01*
X019196Y029636D01*
X019348Y029484D01*
X019546Y029401D01*
X019761Y029401D01*
X019960Y029484D01*
X020111Y029636D01*
X020194Y029834D01*
X020194Y030049D01*
X020111Y030247D01*
X019960Y030399D01*
X019886Y030430D01*
X021168Y030430D01*
X021685Y029912D01*
X021616Y029935D01*
X021542Y029946D01*
X021524Y029946D01*
X021524Y029490D01*
X021980Y029490D01*
X021980Y029509D01*
X021968Y029582D01*
X021945Y029654D01*
X021911Y029720D01*
X021910Y029721D01*
X023082Y029721D01*
X023211Y029850D01*
X023880Y030519D01*
X023880Y030913D01*
X024579Y031612D01*
X024630Y031590D01*
X024827Y031590D01*
X025009Y031666D01*
X025148Y031805D01*
X025224Y031987D01*
X025224Y032184D01*
X025151Y032359D01*
X025375Y032359D01*
X025362Y032345D01*
X025293Y032180D01*
X025293Y032001D01*
X025362Y031835D01*
X025488Y031709D01*
X025654Y031640D01*
X026393Y031640D01*
X026558Y031709D01*
X026685Y031835D01*
X026753Y032001D01*
X026753Y032088D01*
X026905Y031936D01*
X026905Y028497D01*
X026718Y028310D01*
X026699Y028310D01*
X026685Y028345D01*
X026558Y028472D01*
X026393Y028540D01*
X025654Y028540D01*
X025488Y028472D01*
X025362Y028345D01*
X025293Y028180D01*
X025293Y028078D01*
X024499Y027284D01*
X024499Y027022D01*
X024390Y026913D01*
X024331Y026770D01*
X024331Y026616D01*
X024390Y026473D01*
X024499Y026364D01*
X024642Y026305D01*
X024797Y026305D01*
X024939Y026364D01*
X025048Y026473D01*
X025107Y026616D01*
X025107Y026770D01*
X025048Y026913D01*
X024939Y027022D01*
X024939Y027102D01*
X025529Y027692D01*
X025654Y027640D01*
X026393Y027640D01*
X026558Y027709D01*
X026685Y027835D01*
X026699Y027870D01*
X026901Y027870D01*
X027180Y028150D01*
X027180Y026811D01*
X027137Y026854D01*
X026712Y027279D01*
X026685Y027345D01*
X026558Y027472D01*
X026393Y027540D01*
X025654Y027540D01*
X025488Y027472D01*
X025362Y027345D01*
X025293Y027180D01*
X025293Y027001D01*
X025362Y026835D01*
X025488Y026709D01*
X025654Y026640D01*
X026393Y026640D01*
X026558Y026709D01*
X026609Y026760D01*
X026826Y026543D01*
X026826Y021961D01*
X026325Y021460D01*
X025969Y021460D01*
X023201Y022871D01*
X024137Y023807D01*
X024142Y023805D01*
X024297Y023805D01*
X024439Y023864D01*
X024548Y023973D01*
X024607Y024116D01*
X024607Y024270D01*
X024548Y024413D01*
X024439Y024522D01*
X024297Y024581D01*
X024142Y024581D01*
X023999Y024522D01*
X023890Y024413D01*
X023831Y024270D01*
X023831Y024124D01*
X022789Y023082D01*
X020680Y024157D01*
X020615Y024124D01*
X020602Y024137D01*
X020247Y024492D01*
X020281Y024574D01*
X020281Y024789D01*
X020199Y024988D01*
X020047Y025139D01*
X019848Y025222D01*
X019633Y025222D01*
X019435Y025139D01*
X019283Y024988D01*
X019201Y024789D01*
X019201Y024574D01*
X019283Y024376D01*
X019435Y024224D01*
X019633Y024142D01*
X019848Y024142D01*
X019938Y024179D01*
X020204Y023913D01*
X018870Y023231D01*
X018368Y023733D01*
X018368Y025675D01*
X018477Y025784D01*
X018537Y025927D01*
X018537Y026081D01*
X018477Y026224D01*
X018368Y026333D01*
X018226Y026392D01*
X018071Y026392D01*
X017929Y026333D01*
X017819Y026224D01*
X017760Y026081D01*
X017760Y025927D01*
X017819Y025784D01*
X017928Y025675D01*
X017928Y023551D01*
X018459Y023021D01*
X014054Y020768D01*
X001530Y014400D01*
X001518Y014406D01*
X001518Y014488D02*
X001704Y014488D01*
X001518Y014587D02*
X001898Y014587D01*
X002091Y014685D02*
X001518Y014685D01*
X001518Y014784D02*
X002285Y014784D01*
X002479Y014882D02*
X001518Y014882D01*
X001518Y014981D02*
X002673Y014981D01*
X002866Y015079D02*
X001518Y015079D01*
X001518Y015178D02*
X003060Y015178D01*
X003254Y015276D02*
X001518Y015276D01*
X001518Y015375D02*
X003447Y015375D01*
X003641Y015473D02*
X001518Y015473D01*
X001518Y015572D02*
X003835Y015572D01*
X004029Y015670D02*
X001518Y015670D01*
X001518Y015769D02*
X004222Y015769D01*
X004416Y015867D02*
X001518Y015867D01*
X001518Y015966D02*
X004610Y015966D01*
X004804Y016064D02*
X001518Y016064D01*
X001518Y016163D02*
X004997Y016163D01*
X005191Y016261D02*
X001518Y016261D01*
X001518Y016360D02*
X005385Y016360D01*
X005578Y016458D02*
X001518Y016458D01*
X001518Y016557D02*
X005772Y016557D01*
X005966Y016655D02*
X001518Y016655D01*
X001518Y016754D02*
X006160Y016754D01*
X006353Y016852D02*
X001518Y016852D01*
X001518Y016951D02*
X006547Y016951D01*
X006741Y017049D02*
X001518Y017049D01*
X001518Y017148D02*
X006935Y017148D01*
X007128Y017246D02*
X001518Y017246D01*
X001518Y017345D02*
X007322Y017345D01*
X007516Y017443D02*
X001518Y017443D01*
X001518Y017542D02*
X007709Y017542D01*
X007903Y017640D02*
X001518Y017640D01*
X001518Y017739D02*
X008097Y017739D01*
X008291Y017837D02*
X001518Y017837D01*
X001518Y017936D02*
X008484Y017936D01*
X008678Y018034D02*
X001518Y018034D01*
X001518Y018133D02*
X008872Y018133D01*
X009066Y018231D02*
X001518Y018231D01*
X001518Y018330D02*
X009259Y018330D01*
X009453Y018428D02*
X001518Y018428D01*
X001518Y018527D02*
X009647Y018527D01*
X009841Y018625D02*
X001518Y018625D01*
X001518Y018724D02*
X010034Y018724D01*
X010228Y018822D02*
X001518Y018822D01*
X001518Y018921D02*
X010422Y018921D01*
X010615Y019019D02*
X001518Y019019D01*
X001518Y019118D02*
X010809Y019118D01*
X011003Y019216D02*
X001518Y019216D01*
X001518Y019315D02*
X011197Y019315D01*
X011390Y019413D02*
X001518Y019413D01*
X001518Y019512D02*
X011584Y019512D01*
X011778Y019610D02*
X001518Y019610D01*
X001518Y019709D02*
X011972Y019709D01*
X012165Y019807D02*
X001518Y019807D01*
X001518Y019906D02*
X012359Y019906D01*
X012553Y020004D02*
X012035Y020004D01*
X012023Y019996D02*
X012084Y020040D01*
X012141Y020098D01*
X012190Y020164D01*
X012227Y020237D01*
X012252Y020315D01*
X012265Y020396D01*
X012265Y020477D01*
X012252Y020558D01*
X012227Y020636D01*
X012221Y020646D01*
X011797Y020421D01*
X011761Y020489D01*
X012186Y020715D01*
X012141Y020775D01*
X012084Y020833D01*
X012017Y020881D01*
X011944Y020918D01*
X011867Y020944D01*
X011786Y020956D01*
X011704Y020956D01*
X011623Y020944D01*
X011545Y020918D01*
X011535Y020913D01*
X011761Y020489D01*
X011693Y020452D01*
X011729Y020384D01*
X011797Y020421D01*
X012023Y019996D01*
X012018Y020004D02*
X011931Y020004D01*
X011955Y019960D02*
X011729Y020384D01*
X011304Y020158D01*
X011348Y020098D01*
X011406Y020040D01*
X011472Y019992D01*
X011545Y019955D01*
X011623Y019929D01*
X011704Y019916D01*
X011786Y019916D01*
X011867Y019929D01*
X011944Y019955D01*
X011955Y019960D01*
X011966Y020103D02*
X011878Y020103D01*
X011913Y020201D02*
X011826Y020201D01*
X011861Y020300D02*
X011774Y020300D01*
X011755Y020398D02*
X011809Y020398D01*
X011721Y020398D02*
X011591Y020398D01*
X011570Y020300D02*
X011406Y020300D01*
X011385Y020201D02*
X001518Y020201D01*
X001518Y020103D02*
X011344Y020103D01*
X011268Y020227D02*
X011693Y020452D01*
X011467Y020877D01*
X011406Y020833D01*
X011348Y020775D01*
X011300Y020709D01*
X011263Y020636D01*
X011238Y020558D01*
X011225Y020477D01*
X011225Y020396D01*
X011238Y020315D01*
X011263Y020237D01*
X011268Y020227D01*
X011242Y020300D02*
X001518Y020300D01*
X001518Y020398D02*
X011225Y020398D01*
X011228Y020497D02*
X001518Y020497D01*
X001518Y020595D02*
X011250Y020595D01*
X011292Y020694D02*
X001518Y020694D01*
X001518Y020792D02*
X011365Y020792D01*
X011512Y020792D02*
X011599Y020792D01*
X011564Y020694D02*
X011652Y020694D01*
X011617Y020595D02*
X011704Y020595D01*
X011669Y020497D02*
X011756Y020497D01*
X011776Y020497D02*
X011941Y020497D01*
X011962Y020595D02*
X012126Y020595D01*
X012147Y020694D02*
X013909Y020694D01*
X014102Y020792D02*
X012124Y020792D01*
X011998Y020891D02*
X014295Y020891D01*
X014487Y020989D02*
X001518Y020989D01*
X001518Y020891D02*
X011547Y020891D01*
X012240Y020595D02*
X013715Y020595D01*
X013521Y020497D02*
X012262Y020497D01*
X012265Y020398D02*
X013328Y020398D01*
X013134Y020300D02*
X012247Y020300D01*
X012209Y020201D02*
X012940Y020201D01*
X012746Y020103D02*
X012145Y020103D01*
X011455Y020004D02*
X001518Y020004D01*
X001518Y021088D02*
X014680Y021088D01*
X014873Y021186D02*
X001518Y021186D01*
X001518Y021285D02*
X015065Y021285D01*
X015258Y021383D02*
X001518Y021383D01*
X001518Y021482D02*
X015450Y021482D01*
X015643Y021580D02*
X001518Y021580D01*
X001518Y021679D02*
X015836Y021679D01*
X016028Y021777D02*
X015391Y021777D01*
X015384Y021774D02*
X015582Y021857D01*
X015734Y022008D01*
X015817Y022207D01*
X015817Y022422D01*
X015780Y022509D01*
X015812Y022465D01*
X015870Y022407D01*
X015936Y022359D01*
X016009Y022322D01*
X016087Y022297D01*
X016168Y022284D01*
X016250Y022284D01*
X016331Y022297D01*
X016409Y022322D01*
X016419Y022327D01*
X016193Y022752D01*
X016261Y022788D01*
X016225Y022856D01*
X016650Y023082D01*
X016606Y023142D01*
X016548Y023200D01*
X016482Y023248D01*
X016409Y023286D01*
X016331Y023311D01*
X016250Y023324D01*
X016168Y023324D01*
X016087Y023311D01*
X016009Y023286D01*
X015999Y023280D01*
X016225Y022856D01*
X016157Y022820D01*
X015931Y023244D01*
X015870Y023200D01*
X015812Y023142D01*
X015764Y023076D01*
X015727Y023003D01*
X015702Y022926D01*
X015689Y022845D01*
X015689Y022763D01*
X015702Y022682D01*
X015716Y022639D01*
X015582Y022772D01*
X015384Y022854D01*
X015169Y022854D01*
X014971Y022772D01*
X014819Y022620D01*
X014737Y022422D01*
X014737Y022207D01*
X014819Y022008D01*
X014971Y021857D01*
X015169Y021774D01*
X015384Y021774D01*
X015162Y021777D02*
X001518Y021777D01*
X001518Y021876D02*
X014951Y021876D01*
X014853Y021974D02*
X001518Y021974D01*
X001518Y022073D02*
X014792Y022073D01*
X014751Y022171D02*
X001518Y022171D01*
X001518Y022270D02*
X014737Y022270D01*
X014737Y022368D02*
X001518Y022368D01*
X001518Y022467D02*
X014755Y022467D01*
X014796Y022565D02*
X001518Y022565D01*
X001518Y022664D02*
X014862Y022664D01*
X014961Y022762D02*
X001518Y022762D01*
X001518Y022861D02*
X015692Y022861D01*
X015689Y022762D02*
X015592Y022762D01*
X015691Y022664D02*
X015708Y022664D01*
X015798Y022467D02*
X015811Y022467D01*
X015817Y022368D02*
X015923Y022368D01*
X015817Y022270D02*
X016991Y022270D01*
X016798Y022171D02*
X015802Y022171D01*
X015761Y022073D02*
X016606Y022073D01*
X016413Y021974D02*
X015700Y021974D01*
X015602Y021876D02*
X016221Y021876D01*
X016397Y022368D02*
X016484Y022368D01*
X016487Y022363D02*
X016548Y022407D01*
X016606Y022465D01*
X016654Y022531D01*
X016691Y022604D01*
X016716Y022682D01*
X016729Y022763D01*
X016729Y022845D01*
X016716Y022926D01*
X016691Y023003D01*
X016686Y023014D01*
X016261Y022788D01*
X016487Y022363D01*
X016495Y022368D02*
X017184Y022368D01*
X017376Y022467D02*
X016607Y022467D01*
X016671Y022565D02*
X017569Y022565D01*
X017761Y022664D02*
X016710Y022664D01*
X016729Y022762D02*
X017954Y022762D01*
X018147Y022861D02*
X016726Y022861D01*
X016705Y022959D02*
X018339Y022959D01*
X018421Y023058D02*
X016605Y023058D01*
X016592Y023156D02*
X018323Y023156D01*
X018224Y023255D02*
X016469Y023255D01*
X016420Y022959D02*
X016584Y022959D01*
X016399Y022861D02*
X016234Y022861D01*
X016222Y022861D02*
X016135Y022861D01*
X016170Y022959D02*
X016083Y022959D01*
X016118Y023058D02*
X016030Y023058D01*
X016065Y023156D02*
X015978Y023156D01*
X016013Y023255D02*
X001518Y023255D01*
X001518Y023353D02*
X018126Y023353D01*
X018027Y023452D02*
X001518Y023452D01*
X001518Y023550D02*
X017929Y023550D01*
X017928Y023649D02*
X001518Y023649D01*
X001518Y023747D02*
X017928Y023747D01*
X017928Y023846D02*
X001518Y023846D01*
X001518Y023944D02*
X017928Y023944D01*
X017928Y024043D02*
X003275Y024043D01*
X003445Y024141D02*
X017928Y024141D01*
X017928Y024240D02*
X007026Y024240D01*
X006992Y024226D02*
X007191Y024308D01*
X007342Y024460D01*
X007425Y024658D01*
X007425Y024873D01*
X007342Y025072D01*
X007191Y025224D01*
X006992Y025306D01*
X006777Y025306D01*
X006579Y025224D01*
X006427Y025072D01*
X006345Y024873D01*
X006345Y024658D01*
X006427Y024460D01*
X006579Y024308D01*
X006777Y024226D01*
X006992Y024226D01*
X006743Y024240D02*
X003543Y024240D01*
X003587Y024338D02*
X006548Y024338D01*
X006450Y024437D02*
X003628Y024437D01*
X003631Y024535D02*
X006396Y024535D01*
X006355Y024634D02*
X003631Y024634D01*
X003600Y024732D02*
X006345Y024732D01*
X006345Y024831D02*
X003559Y024831D01*
X003476Y024929D02*
X006368Y024929D01*
X006409Y025028D02*
X003351Y025028D01*
X003530Y025126D02*
X006482Y025126D01*
X006582Y025225D02*
X003628Y025225D01*
X003681Y025323D02*
X017928Y025323D01*
X017928Y025225D02*
X007187Y025225D01*
X007288Y025126D02*
X017928Y025126D01*
X017928Y025028D02*
X007361Y025028D01*
X007401Y024929D02*
X017928Y024929D01*
X017928Y024831D02*
X007425Y024831D01*
X007425Y024732D02*
X017928Y024732D01*
X017928Y024634D02*
X007414Y024634D01*
X007374Y024535D02*
X017928Y024535D01*
X017928Y024437D02*
X007319Y024437D01*
X007221Y024338D02*
X017928Y024338D01*
X018368Y024338D02*
X019320Y024338D01*
X019258Y024437D02*
X018368Y024437D01*
X018368Y024535D02*
X019217Y024535D01*
X019201Y024634D02*
X018368Y024634D01*
X018368Y024732D02*
X019201Y024732D01*
X019218Y024831D02*
X018368Y024831D01*
X018368Y024929D02*
X019259Y024929D01*
X019323Y025028D02*
X018368Y025028D01*
X018368Y025126D02*
X019422Y025126D01*
X019546Y025401D02*
X019761Y025401D01*
X019960Y025484D01*
X020111Y025636D01*
X020194Y025834D01*
X020194Y026049D01*
X020111Y026247D01*
X019960Y026399D01*
X019761Y026481D01*
X019546Y026481D01*
X019485Y026456D01*
X018762Y027256D01*
X018762Y028431D01*
X018871Y028540D01*
X018930Y028683D01*
X018930Y028837D01*
X018871Y028980D01*
X018762Y029089D01*
X018619Y029148D01*
X018465Y029148D01*
X018322Y029089D01*
X018213Y028980D01*
X018154Y028837D01*
X018154Y028683D01*
X018213Y028540D01*
X018322Y028431D01*
X018322Y027177D01*
X018318Y027091D01*
X018322Y027086D01*
X018322Y027080D01*
X018383Y027019D01*
X019160Y026160D01*
X019114Y026049D01*
X019114Y025834D01*
X019196Y025636D01*
X019348Y025484D01*
X019546Y025401D01*
X019497Y025422D02*
X018368Y025422D01*
X018368Y025520D02*
X019311Y025520D01*
X019212Y025619D02*
X018368Y025619D01*
X018411Y025717D02*
X019162Y025717D01*
X019121Y025816D02*
X018491Y025816D01*
X018531Y025914D02*
X019114Y025914D01*
X019114Y026013D02*
X018537Y026013D01*
X018524Y026111D02*
X019140Y026111D01*
X019114Y026210D02*
X018483Y026210D01*
X018393Y026308D02*
X019025Y026308D01*
X018936Y026407D02*
X008795Y026407D01*
X008828Y026327D02*
X008746Y026526D01*
X008594Y026678D01*
X008466Y026731D01*
X008488Y026738D01*
X008561Y026775D01*
X008627Y026823D01*
X008685Y026881D01*
X008733Y026948D01*
X008770Y027020D01*
X008795Y027098D01*
X008808Y027179D01*
X008808Y027190D01*
X008318Y027190D01*
X008318Y027250D01*
X008258Y027250D01*
X008258Y027190D01*
X007768Y027190D01*
X007768Y027179D01*
X007781Y027098D01*
X007806Y027020D01*
X007843Y026948D01*
X007892Y026881D01*
X007949Y026823D01*
X008016Y026775D01*
X008089Y026738D01*
X008111Y026731D01*
X007982Y026678D01*
X007830Y026526D01*
X007748Y026327D01*
X007748Y026113D01*
X007830Y025914D01*
X007982Y025762D01*
X008181Y025680D01*
X008396Y025680D01*
X008594Y025762D01*
X008746Y025914D01*
X008828Y026113D01*
X008828Y026327D01*
X008828Y026308D02*
X017904Y026308D01*
X017814Y026210D02*
X008828Y026210D01*
X008828Y026111D02*
X017773Y026111D01*
X017760Y026013D02*
X008787Y026013D01*
X008746Y025914D02*
X017765Y025914D01*
X017806Y025816D02*
X008648Y025816D01*
X008486Y025717D02*
X017886Y025717D01*
X017928Y025619D02*
X003731Y025619D01*
X003731Y025520D02*
X017928Y025520D01*
X017928Y025422D02*
X003722Y025422D01*
X003706Y025717D02*
X008091Y025717D01*
X007929Y025816D02*
X003665Y025816D01*
X003591Y025914D02*
X007830Y025914D01*
X007790Y026013D02*
X003487Y026013D01*
X003415Y026111D02*
X007749Y026111D01*
X007748Y026210D02*
X003513Y026210D01*
X003575Y026308D02*
X007748Y026308D01*
X007781Y026407D02*
X003615Y026407D01*
X003631Y026505D02*
X007822Y026505D01*
X007908Y026604D02*
X003631Y026604D01*
X003612Y026702D02*
X008042Y026702D01*
X007980Y026801D02*
X003651Y026801D01*
X003750Y026899D02*
X007878Y026899D01*
X007818Y026998D02*
X003848Y026998D01*
X003947Y027096D02*
X007782Y027096D01*
X007768Y027250D02*
X008258Y027250D01*
X008258Y027740D01*
X008247Y027740D01*
X008166Y027727D01*
X008089Y027702D01*
X008016Y027665D01*
X007949Y027617D01*
X007892Y027559D01*
X007843Y027493D01*
X007806Y027420D01*
X007781Y027342D01*
X007768Y027261D01*
X007768Y027250D01*
X007773Y027293D02*
X004144Y027293D01*
X004045Y027195D02*
X008258Y027195D01*
X008318Y027195D02*
X018322Y027195D01*
X018322Y027293D02*
X008803Y027293D01*
X008808Y027261D02*
X008795Y027342D01*
X008770Y027420D01*
X008733Y027493D01*
X008685Y027559D01*
X008627Y027617D01*
X008561Y027665D01*
X008488Y027702D01*
X008410Y027727D01*
X008329Y027740D01*
X008318Y027740D01*
X008318Y027250D01*
X008808Y027250D01*
X008808Y027261D01*
X008779Y027392D02*
X018322Y027392D01*
X018322Y027490D02*
X008734Y027490D01*
X008655Y027589D02*
X018322Y027589D01*
X018322Y027687D02*
X008516Y027687D01*
X008318Y027687D02*
X008258Y027687D01*
X008258Y027589D02*
X008318Y027589D01*
X008318Y027490D02*
X008258Y027490D01*
X008258Y027392D02*
X008318Y027392D01*
X008318Y027293D02*
X008258Y027293D01*
X008060Y027687D02*
X004538Y027687D01*
X004439Y027589D02*
X007922Y027589D01*
X007842Y027490D02*
X004341Y027490D01*
X004242Y027392D02*
X007797Y027392D01*
X008596Y026801D02*
X018580Y026801D01*
X018491Y026899D02*
X008698Y026899D01*
X008759Y026998D02*
X018402Y026998D01*
X018318Y027096D02*
X008795Y027096D01*
X008535Y026702D02*
X018669Y026702D01*
X018758Y026604D02*
X008668Y026604D01*
X008755Y026505D02*
X018847Y026505D01*
X019173Y026801D02*
X021216Y026801D01*
X021220Y026804D02*
X021080Y026665D01*
X021005Y026483D01*
X021005Y026286D01*
X021080Y026104D01*
X021220Y025965D01*
X021402Y025890D01*
X021598Y025890D01*
X021780Y025965D01*
X021920Y026104D01*
X021945Y026165D01*
X022574Y026165D01*
X023407Y026997D01*
X023442Y026983D01*
X023621Y026983D01*
X023786Y027051D01*
X023913Y027178D01*
X023981Y027343D01*
X023981Y027473D01*
X024310Y027473D01*
X024439Y027602D01*
X025529Y028692D01*
X025654Y028640D01*
X026393Y028640D01*
X026558Y028709D01*
X026685Y028835D01*
X026753Y029001D01*
X026753Y029180D01*
X026685Y029345D01*
X026558Y029472D01*
X026393Y029540D01*
X025784Y029540D01*
X025884Y029640D01*
X026393Y029640D01*
X026558Y029709D01*
X026685Y029835D01*
X026753Y030001D01*
X026753Y030180D01*
X026685Y030345D01*
X026558Y030472D01*
X026393Y030540D01*
X025654Y030540D01*
X025488Y030472D01*
X025362Y030345D01*
X025293Y030180D01*
X025293Y030001D01*
X025362Y029835D01*
X025410Y029788D01*
X025175Y029553D01*
X023927Y029553D01*
X023913Y029588D01*
X023786Y029714D01*
X023621Y029783D01*
X023442Y029783D01*
X023276Y029714D01*
X023150Y029588D01*
X023081Y029422D01*
X023081Y029243D01*
X023096Y029209D01*
X022578Y028691D01*
X021949Y028691D01*
X021924Y028752D01*
X021785Y028891D01*
X021603Y028966D01*
X021406Y028966D01*
X021224Y028891D01*
X021085Y028752D01*
X021010Y028570D01*
X021010Y028373D01*
X021085Y028191D01*
X021224Y028052D01*
X021406Y027976D01*
X021603Y027976D01*
X021785Y028052D01*
X021924Y028191D01*
X021949Y028251D01*
X022761Y028251D01*
X022889Y028380D01*
X023407Y028897D01*
X023442Y028883D01*
X023621Y028883D01*
X023786Y028951D01*
X023913Y029078D01*
X023927Y029113D01*
X025293Y029113D01*
X025293Y029078D01*
X024128Y027913D01*
X023700Y027913D01*
X023656Y027869D01*
X023621Y027883D01*
X023442Y027883D01*
X023276Y027814D01*
X023150Y027688D01*
X023081Y027522D01*
X023081Y027343D01*
X023096Y027309D01*
X022392Y026605D01*
X021945Y026605D01*
X021920Y026665D01*
X021780Y026804D01*
X021598Y026880D01*
X021402Y026880D01*
X021220Y026804D01*
X021118Y026702D02*
X019262Y026702D01*
X019351Y026604D02*
X021055Y026604D01*
X021014Y026505D02*
X019440Y026505D01*
X019941Y026407D02*
X021005Y026407D01*
X021005Y026308D02*
X020050Y026308D01*
X020127Y026210D02*
X021037Y026210D01*
X021077Y026111D02*
X020168Y026111D01*
X020194Y026013D02*
X021172Y026013D01*
X021342Y025914D02*
X020194Y025914D01*
X020186Y025816D02*
X022481Y025816D01*
X022540Y025673D01*
X022649Y025564D01*
X022792Y025505D01*
X022947Y025505D01*
X023089Y025564D01*
X023198Y025673D01*
X025575Y025673D01*
X025654Y025640D01*
X026393Y025640D01*
X026558Y025709D01*
X026685Y025835D01*
X026753Y026001D01*
X026753Y026180D01*
X026685Y026345D01*
X026558Y026472D01*
X026393Y026540D01*
X025654Y026540D01*
X025488Y026472D01*
X025362Y026345D01*
X025293Y026180D01*
X025293Y026113D01*
X023198Y026113D01*
X023089Y026222D01*
X022947Y026281D01*
X022792Y026281D01*
X022649Y026222D01*
X022540Y026113D01*
X022481Y025970D01*
X022481Y025816D01*
X022481Y025914D02*
X021658Y025914D01*
X021828Y026013D02*
X022499Y026013D01*
X022540Y026111D02*
X021923Y026111D01*
X021500Y026385D02*
X022483Y026385D01*
X023531Y027433D01*
X023791Y027693D01*
X024219Y027693D01*
X025617Y029090D01*
X026023Y029090D01*
X025576Y028672D02*
X025510Y028672D01*
X025412Y028574D02*
X026905Y028574D01*
X026905Y028672D02*
X026470Y028672D01*
X026620Y028771D02*
X026905Y028771D01*
X026905Y028869D02*
X026699Y028869D01*
X026740Y028968D02*
X026905Y028968D01*
X026905Y029066D02*
X026753Y029066D01*
X026753Y029165D02*
X026905Y029165D01*
X026905Y029263D02*
X026719Y029263D01*
X026668Y029362D02*
X026905Y029362D01*
X026905Y029460D02*
X026570Y029460D01*
X026434Y029657D02*
X026905Y029657D01*
X026905Y029559D02*
X025803Y029559D01*
X025378Y029756D02*
X023686Y029756D01*
X023843Y029657D02*
X025279Y029657D01*
X025181Y029559D02*
X023925Y029559D01*
X023531Y029333D02*
X022669Y028471D01*
X021505Y028471D01*
X021049Y028278D02*
X018762Y028278D01*
X018762Y028180D02*
X021096Y028180D01*
X021194Y028081D02*
X018762Y028081D01*
X018762Y027983D02*
X021390Y027983D01*
X021389Y027848D02*
X021318Y027825D01*
X021251Y027791D01*
X021191Y027747D01*
X021138Y027694D01*
X021094Y027634D01*
X021060Y027567D01*
X021037Y027496D01*
X021025Y027422D01*
X021025Y027404D01*
X021481Y027404D01*
X021481Y027860D01*
X021463Y027860D01*
X021389Y027848D01*
X021481Y027786D02*
X021519Y027786D01*
X021519Y027860D02*
X021519Y027404D01*
X021481Y027404D01*
X021481Y027366D01*
X021025Y027366D01*
X021025Y027347D01*
X021037Y027274D01*
X021060Y027202D01*
X021094Y027136D01*
X021138Y027075D01*
X021191Y027022D01*
X021251Y026979D01*
X021318Y026945D01*
X021389Y026921D01*
X021463Y026910D01*
X021481Y026910D01*
X021481Y027366D01*
X021519Y027366D01*
X021519Y027404D01*
X021975Y027404D01*
X021975Y027422D01*
X021963Y027496D01*
X021940Y027567D01*
X021906Y027634D01*
X021862Y027694D01*
X021809Y027747D01*
X021749Y027791D01*
X021682Y027825D01*
X021611Y027848D01*
X021537Y027860D01*
X021519Y027860D01*
X021619Y027983D02*
X024198Y027983D01*
X024297Y028081D02*
X021815Y028081D01*
X021914Y028180D02*
X024395Y028180D01*
X024494Y028278D02*
X022788Y028278D01*
X022886Y028377D02*
X024592Y028377D01*
X024691Y028475D02*
X022985Y028475D01*
X023083Y028574D02*
X024789Y028574D01*
X024888Y028672D02*
X023182Y028672D01*
X023280Y028771D02*
X024986Y028771D01*
X025085Y028869D02*
X023379Y028869D01*
X023803Y028968D02*
X025183Y028968D01*
X025282Y029066D02*
X023901Y029066D01*
X023531Y029333D02*
X025266Y029333D01*
X026023Y030090D01*
X025993Y030660D02*
X025709Y030660D01*
X025643Y030671D01*
X025578Y030692D01*
X025518Y030723D01*
X025463Y030762D01*
X025415Y030810D01*
X025376Y030865D01*
X025345Y030925D01*
X025324Y030990D01*
X025313Y031056D01*
X025313Y031060D01*
X025993Y031060D01*
X026053Y031060D01*
X026053Y030660D01*
X026337Y030660D01*
X026404Y030671D01*
X026468Y030692D01*
X026529Y030723D01*
X026583Y030762D01*
X026631Y030810D01*
X026671Y030865D01*
X026702Y030925D01*
X026723Y030990D01*
X026733Y031056D01*
X026733Y031060D01*
X026053Y031060D01*
X026053Y031120D01*
X025993Y031120D01*
X025993Y031060D01*
X025993Y030660D01*
X025993Y030741D02*
X026053Y030741D01*
X026053Y030839D02*
X025993Y030839D01*
X025993Y030938D02*
X026053Y030938D01*
X026053Y031036D02*
X025993Y031036D01*
X025993Y031120D02*
X025313Y031120D01*
X025313Y031124D01*
X025324Y031191D01*
X025345Y031255D01*
X025376Y031316D01*
X025415Y031370D01*
X025463Y031418D01*
X025518Y031458D01*
X025578Y031489D01*
X025643Y031510D01*
X025709Y031520D01*
X025993Y031520D01*
X025993Y031120D01*
X025993Y031135D02*
X026053Y031135D01*
X026053Y031120D02*
X026053Y031520D01*
X026337Y031520D01*
X026404Y031510D01*
X026468Y031489D01*
X026529Y031458D01*
X026583Y031418D01*
X026631Y031370D01*
X026671Y031316D01*
X026702Y031255D01*
X026723Y031191D01*
X026733Y031124D01*
X026733Y031120D01*
X026053Y031120D01*
X026053Y031233D02*
X025993Y031233D01*
X025993Y031332D02*
X026053Y031332D01*
X026053Y031430D02*
X025993Y031430D01*
X025480Y031430D02*
X025055Y031430D01*
X025038Y031448D02*
X024978Y031492D01*
X024911Y031526D01*
X024840Y031549D01*
X024766Y031560D01*
X024748Y031560D01*
X024748Y031104D01*
X025204Y031104D01*
X025204Y031123D01*
X025192Y031197D01*
X025169Y031268D01*
X025135Y031334D01*
X025091Y031395D01*
X025038Y031448D01*
X025136Y031332D02*
X025387Y031332D01*
X025338Y031233D02*
X025180Y031233D01*
X025202Y031135D02*
X025315Y031135D01*
X025316Y031036D02*
X025202Y031036D01*
X025204Y031048D02*
X025204Y031066D01*
X024748Y031066D01*
X024748Y031104D01*
X024710Y031104D01*
X024710Y031066D01*
X024748Y031066D01*
X024748Y030610D01*
X024766Y030610D01*
X024840Y030622D01*
X024911Y030645D01*
X024978Y030679D01*
X025038Y030723D01*
X025091Y030776D01*
X025135Y030836D01*
X025169Y030903D01*
X025192Y030974D01*
X025204Y031048D01*
X025180Y030938D02*
X025341Y030938D01*
X025394Y030839D02*
X025137Y030839D01*
X025056Y030741D02*
X025493Y030741D01*
X025462Y030445D02*
X023807Y030445D01*
X023880Y030544D02*
X026905Y030544D01*
X026905Y030642D02*
X024903Y030642D01*
X024748Y030642D02*
X024710Y030642D01*
X024710Y030610D02*
X024710Y031066D01*
X024254Y031066D01*
X024254Y031048D01*
X024265Y030974D01*
X024289Y030903D01*
X024323Y030836D01*
X024366Y030776D01*
X024419Y030723D01*
X024480Y030679D01*
X024546Y030645D01*
X024618Y030622D01*
X024691Y030610D01*
X024710Y030610D01*
X024710Y030741D02*
X024748Y030741D01*
X024748Y030839D02*
X024710Y030839D01*
X024710Y030938D02*
X024748Y030938D01*
X024748Y031036D02*
X024710Y031036D01*
X024710Y031104D02*
X024254Y031104D01*
X024254Y031123D01*
X024265Y031197D01*
X024289Y031268D01*
X024323Y031334D01*
X024366Y031395D01*
X024419Y031448D01*
X024480Y031492D01*
X024546Y031526D01*
X024618Y031549D01*
X024691Y031560D01*
X024710Y031560D01*
X024710Y031104D01*
X024710Y031135D02*
X024748Y031135D01*
X024748Y031233D02*
X024710Y031233D01*
X024710Y031332D02*
X024748Y031332D01*
X024748Y031430D02*
X024710Y031430D01*
X024710Y031529D02*
X024748Y031529D01*
X024900Y031529D02*
X026905Y031529D01*
X026905Y031627D02*
X024917Y031627D01*
X025069Y031726D02*
X025471Y031726D01*
X025373Y031824D02*
X025157Y031824D01*
X025197Y031923D02*
X025326Y031923D01*
X025293Y032021D02*
X025224Y032021D01*
X025224Y032120D02*
X025293Y032120D01*
X025309Y032218D02*
X025209Y032218D01*
X025169Y032317D02*
X025350Y032317D01*
X024729Y032085D02*
X024729Y032072D01*
X023660Y031004D01*
X023660Y030610D01*
X022991Y029941D01*
X021967Y029941D01*
X021259Y030650D01*
X017755Y030650D01*
X012876Y030650D01*
X012315Y030088D01*
X011932Y029705D01*
X007824Y029705D01*
X006885Y028766D01*
X007425Y028771D02*
X008983Y028771D01*
X008956Y028785D02*
X009023Y028751D01*
X009094Y028728D01*
X009167Y028716D01*
X009186Y028716D01*
X009186Y029172D01*
X009224Y029172D01*
X009224Y029210D01*
X009680Y029210D01*
X009680Y029228D01*
X009668Y029302D01*
X009645Y029373D01*
X009611Y029440D01*
X009579Y029485D01*
X009799Y029485D01*
X009785Y029471D01*
X009710Y029289D01*
X009710Y029092D01*
X009735Y029032D01*
X008895Y028192D01*
X004421Y028192D01*
X003705Y027477D01*
X003709Y027501D01*
X003241Y027501D01*
X003241Y027601D01*
X003709Y027601D01*
X003698Y027673D01*
X003673Y027751D01*
X003635Y027824D01*
X003587Y027890D01*
X003529Y027948D01*
X003463Y027996D01*
X003390Y028033D01*
X003312Y028058D01*
X003396Y028093D01*
X003548Y028245D01*
X003631Y028444D01*
X003631Y028540D01*
X005247Y028540D01*
X008003Y031296D01*
X011994Y031296D01*
X011835Y031137D01*
X011835Y030968D01*
X012285Y030968D01*
X012285Y030908D01*
X011835Y030908D01*
X011835Y030739D01*
X012047Y030527D01*
X011815Y030295D01*
X011815Y029925D01*
X007732Y029925D01*
X007604Y029796D01*
X007078Y029270D01*
X006992Y029306D01*
X006777Y029306D01*
X006579Y029224D01*
X006427Y029072D01*
X006345Y028873D01*
X006345Y028658D01*
X006427Y028460D01*
X006579Y028308D01*
X006777Y028226D01*
X006992Y028226D01*
X007191Y028308D01*
X007342Y028460D01*
X007425Y028658D01*
X007425Y028873D01*
X007389Y028959D01*
X007915Y029485D01*
X008831Y029485D01*
X008799Y029440D01*
X008765Y029373D01*
X008742Y029302D01*
X008730Y029228D01*
X008730Y029210D01*
X009186Y029210D01*
X009186Y029172D01*
X008730Y029172D01*
X008730Y029154D01*
X008742Y029080D01*
X008765Y029009D01*
X008799Y028942D01*
X008843Y028882D01*
X008895Y028829D01*
X008956Y028785D01*
X008855Y028869D02*
X007425Y028869D01*
X007398Y028968D02*
X008785Y028968D01*
X008746Y029066D02*
X007496Y029066D01*
X007595Y029165D02*
X008730Y029165D01*
X008735Y029263D02*
X007693Y029263D01*
X007792Y029362D02*
X008761Y029362D01*
X008814Y029460D02*
X007890Y029460D01*
X007564Y029756D02*
X006464Y029756D01*
X006562Y029854D02*
X007662Y029854D01*
X007465Y029657D02*
X006365Y029657D01*
X006267Y029559D02*
X007367Y029559D01*
X007268Y029460D02*
X006168Y029460D01*
X006070Y029362D02*
X007170Y029362D01*
X006675Y029263D02*
X005971Y029263D01*
X005873Y029165D02*
X006520Y029165D01*
X006425Y029066D02*
X005774Y029066D01*
X005676Y028968D02*
X006384Y028968D01*
X006345Y028869D02*
X005577Y028869D01*
X005479Y028771D02*
X006345Y028771D01*
X006345Y028672D02*
X005380Y028672D01*
X005282Y028574D02*
X006380Y028574D01*
X006420Y028475D02*
X003631Y028475D01*
X003603Y028377D02*
X006510Y028377D01*
X006650Y028278D02*
X003562Y028278D01*
X003483Y028180D02*
X004408Y028180D01*
X004310Y028081D02*
X003368Y028081D01*
X003312Y028058D02*
X003312Y028058D01*
X003481Y027983D02*
X004211Y027983D01*
X004113Y027884D02*
X003591Y027884D01*
X003655Y027786D02*
X004014Y027786D01*
X003916Y027687D02*
X003693Y027687D01*
X003817Y027589D02*
X003241Y027589D01*
X003141Y027589D02*
X001518Y027589D01*
X001518Y027687D02*
X002688Y027687D01*
X002727Y027786D02*
X001518Y027786D01*
X001518Y027884D02*
X002790Y027884D01*
X002900Y027983D02*
X001518Y027983D01*
X001518Y028081D02*
X002814Y028081D01*
X002698Y028180D02*
X001518Y028180D01*
X001518Y028278D02*
X002619Y028278D01*
X002578Y028377D02*
X001518Y028377D01*
X001518Y028475D02*
X002551Y028475D01*
X002551Y028574D02*
X001518Y028574D01*
X001518Y028672D02*
X002556Y028672D01*
X002597Y028771D02*
X001518Y028771D01*
X001518Y028869D02*
X002645Y028869D01*
X002744Y028968D02*
X001518Y028968D01*
X001518Y029066D02*
X002923Y029066D01*
X003258Y029066D02*
X005152Y029066D01*
X005250Y029165D02*
X001518Y029165D01*
X001518Y029263D02*
X005349Y029263D01*
X005447Y029362D02*
X001518Y029362D01*
X001518Y029460D02*
X004388Y029460D01*
X004435Y029444D02*
X004329Y029481D01*
X004228Y029530D01*
X004133Y029589D01*
X004045Y029659D01*
X003966Y029739D01*
X003896Y029827D01*
X003836Y029922D01*
X003787Y030023D01*
X003750Y030129D01*
X003725Y030239D01*
X003713Y030350D01*
X003713Y030356D01*
X004663Y030356D01*
X004763Y030356D01*
X004763Y030456D01*
X005713Y030456D01*
X005713Y030462D01*
X005700Y030574D01*
X005675Y030684D01*
X005638Y030790D01*
X005589Y030891D01*
X005529Y030986D01*
X005459Y031074D01*
X005380Y031153D01*
X005292Y031223D01*
X005197Y031283D01*
X005096Y031332D01*
X004990Y031369D01*
X004880Y031394D01*
X004769Y031406D01*
X004763Y031406D01*
X004763Y030456D01*
X004663Y030456D01*
X004663Y030356D01*
X004663Y029406D01*
X004656Y029406D01*
X004545Y029419D01*
X004435Y029444D01*
X004663Y029460D02*
X004763Y029460D01*
X004763Y029406D02*
X004769Y029406D01*
X004880Y029419D01*
X004990Y029444D01*
X005096Y029481D01*
X005197Y029530D01*
X005292Y029589D01*
X005380Y029659D01*
X005459Y029739D01*
X005529Y029827D01*
X005589Y029922D01*
X005638Y030023D01*
X005675Y030129D01*
X005700Y030239D01*
X005713Y030350D01*
X005713Y030356D01*
X004763Y030356D01*
X004763Y029406D01*
X004763Y029559D02*
X004663Y029559D01*
X004663Y029657D02*
X004763Y029657D01*
X004763Y029756D02*
X004663Y029756D01*
X004663Y029854D02*
X004763Y029854D01*
X004763Y029953D02*
X004663Y029953D01*
X004663Y030051D02*
X004763Y030051D01*
X004763Y030150D02*
X004663Y030150D01*
X004663Y030248D02*
X004763Y030248D01*
X004763Y030347D02*
X004663Y030347D01*
X004663Y030445D02*
X001518Y030445D01*
X001518Y030347D02*
X003713Y030347D01*
X003724Y030248D02*
X001518Y030248D01*
X001518Y030150D02*
X003745Y030150D01*
X003777Y030051D02*
X001518Y030051D01*
X001518Y029953D02*
X003821Y029953D01*
X003878Y029854D02*
X001518Y029854D01*
X001518Y029756D02*
X003952Y029756D01*
X004048Y029657D02*
X001518Y029657D01*
X001518Y029559D02*
X004182Y029559D01*
X005037Y029460D02*
X005546Y029460D01*
X005644Y029559D02*
X005244Y029559D01*
X005377Y029657D02*
X005743Y029657D01*
X005841Y029756D02*
X005473Y029756D01*
X005547Y029854D02*
X005940Y029854D01*
X006038Y029953D02*
X005604Y029953D01*
X005648Y030051D02*
X006137Y030051D01*
X006235Y030150D02*
X005680Y030150D01*
X005701Y030248D02*
X006334Y030248D01*
X006432Y030347D02*
X005712Y030347D01*
X005703Y030544D02*
X006629Y030544D01*
X006531Y030445D02*
X004763Y030445D01*
X004763Y030544D02*
X004663Y030544D01*
X004663Y030456D02*
X004663Y031406D01*
X004656Y031406D01*
X004545Y031394D01*
X004435Y031369D01*
X004329Y031332D01*
X004228Y031283D01*
X004133Y031223D01*
X004045Y031153D01*
X003966Y031074D01*
X003896Y030986D01*
X003836Y030891D01*
X003787Y030790D01*
X003750Y030684D01*
X003725Y030574D01*
X003713Y030462D01*
X003713Y030456D01*
X004663Y030456D01*
X004663Y030642D02*
X004763Y030642D01*
X004763Y030741D02*
X004663Y030741D01*
X004663Y030839D02*
X004763Y030839D01*
X004763Y030938D02*
X004663Y030938D01*
X004663Y031036D02*
X004763Y031036D01*
X004763Y031135D02*
X004663Y031135D01*
X004663Y031233D02*
X004763Y031233D01*
X004763Y031332D02*
X004663Y031332D01*
X004330Y031332D02*
X003916Y031332D01*
X003915Y031331D02*
X004016Y031380D01*
X004111Y031440D01*
X004199Y031510D01*
X004278Y031589D01*
X004348Y031677D01*
X004408Y031772D01*
X004457Y031873D01*
X004494Y031979D01*
X004519Y032089D01*
X004531Y032201D01*
X004531Y032207D01*
X003582Y032207D01*
X003582Y032307D01*
X004531Y032307D01*
X004531Y032313D01*
X004519Y032424D01*
X004494Y032534D01*
X004457Y032640D01*
X004408Y032741D01*
X004348Y032836D01*
X004278Y032924D01*
X004199Y033003D01*
X004111Y033074D01*
X004016Y033133D01*
X003915Y033182D01*
X003809Y033219D01*
X003699Y033244D01*
X003588Y033257D01*
X003581Y033257D01*
X003581Y032307D01*
X003481Y032307D01*
X003481Y032207D01*
X002531Y032207D01*
X002531Y032201D01*
X002544Y032089D01*
X002569Y031979D01*
X002606Y031873D01*
X002655Y031772D01*
X002715Y031677D01*
X002785Y031589D01*
X002864Y031510D01*
X002952Y031440D01*
X003047Y031380D01*
X003148Y031331D01*
X003254Y031294D01*
X003364Y031269D01*
X003475Y031257D01*
X003481Y031257D01*
X003481Y032207D01*
X003581Y032207D01*
X003581Y031257D01*
X003588Y031257D01*
X003699Y031269D01*
X003809Y031294D01*
X003915Y031331D01*
X004096Y031430D02*
X005285Y031430D01*
X005267Y031440D02*
X005500Y031306D01*
X005759Y031237D01*
X006028Y031237D01*
X006287Y031306D01*
X006520Y031440D01*
X006710Y031630D01*
X006844Y031863D01*
X006891Y032037D01*
X007075Y032037D01*
X007094Y031991D01*
X007248Y031836D01*
X007451Y031752D01*
X007669Y031752D01*
X007871Y031836D01*
X008026Y031991D01*
X008110Y032193D01*
X008110Y032412D01*
X008026Y032614D01*
X007871Y032769D01*
X007669Y032852D01*
X007451Y032852D01*
X007248Y032769D01*
X007094Y032614D01*
X007037Y032477D01*
X006891Y032477D01*
X006844Y032650D01*
X006710Y032883D01*
X006520Y033073D01*
X006287Y033207D01*
X006028Y033277D01*
X005759Y033277D01*
X005500Y033207D01*
X005267Y033073D01*
X005077Y032883D01*
X004943Y032650D01*
X004874Y032391D01*
X004874Y032122D01*
X004943Y031863D01*
X005077Y031630D01*
X005267Y031440D01*
X005179Y031529D02*
X004218Y031529D01*
X004309Y031627D02*
X005080Y031627D01*
X005022Y031726D02*
X004379Y031726D01*
X004433Y031824D02*
X004965Y031824D01*
X004927Y031923D02*
X004474Y031923D01*
X004504Y032021D02*
X004901Y032021D01*
X004874Y032120D02*
X004522Y032120D01*
X004531Y032317D02*
X004874Y032317D01*
X004874Y032218D02*
X003582Y032218D01*
X003581Y032120D02*
X003481Y032120D01*
X003481Y032218D02*
X001518Y032218D01*
X001518Y032120D02*
X002541Y032120D01*
X002559Y032021D02*
X001518Y032021D01*
X001518Y031923D02*
X002589Y031923D01*
X002630Y031824D02*
X001518Y031824D01*
X001518Y031726D02*
X002684Y031726D01*
X002754Y031627D02*
X001518Y031627D01*
X001518Y031529D02*
X002845Y031529D01*
X002967Y031430D02*
X001518Y031430D01*
X001518Y031332D02*
X003147Y031332D01*
X003481Y031332D02*
X003581Y031332D01*
X003581Y031430D02*
X003481Y031430D01*
X003481Y031529D02*
X003581Y031529D01*
X003581Y031627D02*
X003481Y031627D01*
X003481Y031726D02*
X003581Y031726D01*
X003581Y031824D02*
X003481Y031824D01*
X003481Y031923D02*
X003581Y031923D01*
X003581Y032021D02*
X003481Y032021D01*
X003481Y032307D02*
X002531Y032307D01*
X002531Y032313D01*
X002544Y032424D01*
X002569Y032534D01*
X002606Y032640D01*
X002655Y032741D01*
X002715Y032836D01*
X002785Y032924D01*
X002864Y033003D01*
X002952Y033074D01*
X003047Y033133D01*
X003148Y033182D01*
X003254Y033219D01*
X003364Y033244D01*
X003475Y033257D01*
X003481Y033257D01*
X003481Y032307D01*
X003481Y032317D02*
X003581Y032317D01*
X003581Y032415D02*
X003481Y032415D01*
X003481Y032514D02*
X003581Y032514D01*
X003581Y032612D02*
X003481Y032612D01*
X003481Y032711D02*
X003581Y032711D01*
X003581Y032809D02*
X003481Y032809D01*
X003481Y032908D02*
X003581Y032908D01*
X003581Y033006D02*
X003481Y033006D01*
X003481Y033105D02*
X003581Y033105D01*
X003581Y033203D02*
X003481Y033203D01*
X003209Y033203D02*
X001518Y033203D01*
X001518Y033105D02*
X003002Y033105D01*
X002868Y033006D02*
X001518Y033006D01*
X001518Y032908D02*
X002772Y032908D01*
X002698Y032809D02*
X001518Y032809D01*
X001518Y032711D02*
X002640Y032711D01*
X002597Y032612D02*
X001518Y032612D01*
X001518Y032514D02*
X002565Y032514D01*
X002543Y032415D02*
X001518Y032415D01*
X001518Y032317D02*
X002532Y032317D01*
X001518Y033302D02*
X007390Y033302D01*
X007427Y033264D02*
X011546Y033264D01*
X012113Y033832D01*
X012509Y033832D01*
X012771Y034094D01*
X012771Y033536D01*
X011938Y032703D01*
X011871Y032769D01*
X011669Y032852D01*
X011451Y032852D01*
X011248Y032769D01*
X011094Y032614D01*
X011010Y032412D01*
X011010Y032193D01*
X011094Y031991D01*
X011248Y031836D01*
X011451Y031752D01*
X011669Y031752D01*
X011871Y031836D01*
X012026Y031991D01*
X012110Y032193D01*
X012110Y032253D01*
X013082Y033225D01*
X013082Y033225D01*
X013211Y033354D01*
X013211Y034584D01*
X012802Y034993D01*
X012802Y035389D01*
X012570Y035621D01*
X012782Y035833D01*
X012782Y036002D01*
X012332Y036002D01*
X012332Y036062D01*
X012782Y036062D01*
X012782Y036231D01*
X012540Y036473D01*
X012810Y036473D01*
X012939Y036602D01*
X013578Y037240D01*
X013578Y038244D01*
X013652Y038275D01*
X013799Y038421D01*
X013878Y038612D01*
X013878Y038819D01*
X013862Y038856D01*
X013915Y038804D01*
X013979Y038757D01*
X014049Y038722D01*
X014124Y038697D01*
X014201Y038685D01*
X014280Y038685D01*
X014358Y038697D01*
X014431Y038721D01*
X014220Y039117D01*
X014308Y039164D01*
X014519Y038769D01*
X014567Y038804D01*
X014622Y038859D01*
X014668Y038923D01*
X014704Y038993D01*
X014728Y039068D01*
X014741Y039146D01*
X014741Y039224D01*
X014728Y039302D01*
X014705Y039375D01*
X014308Y039164D01*
X014261Y039253D01*
X014173Y039206D01*
X013963Y039601D01*
X013915Y039566D01*
X013859Y039511D01*
X013813Y039447D01*
X013777Y039377D01*
X013753Y039302D01*
X013741Y039224D01*
X013741Y039146D01*
X013753Y039068D01*
X013759Y039050D01*
X013652Y039156D01*
X013461Y039236D01*
X013254Y039236D01*
X013063Y039156D01*
X012917Y039010D01*
X012838Y038819D01*
X012838Y038619D01*
X012769Y038687D01*
X012578Y038766D01*
X012371Y038766D01*
X012180Y038687D01*
X012034Y038541D01*
X011955Y038350D01*
X011955Y038149D01*
X011887Y038218D01*
X011695Y038297D01*
X011489Y038297D01*
X011297Y038218D01*
X011151Y038071D01*
X011072Y037880D01*
X011072Y037673D01*
X011094Y037621D01*
X010957Y037878D01*
X010822Y037919D01*
X010139Y037555D01*
X010097Y037421D01*
X010367Y036913D01*
X008807Y036913D01*
X008384Y036490D01*
X008298Y036525D01*
X008083Y036525D01*
X007885Y036443D01*
X007733Y036291D01*
X007651Y036093D01*
X007651Y035889D01*
X007462Y035967D01*
X007247Y035967D01*
X007049Y035885D01*
X006897Y035733D01*
X006815Y035535D01*
X006815Y035420D01*
X006731Y035504D01*
X006532Y035586D01*
X006318Y035586D01*
X006119Y035504D01*
X005967Y035352D01*
X005885Y035154D01*
X005885Y034939D01*
X005967Y034740D01*
X006119Y034588D01*
X006205Y034553D01*
X006205Y034487D01*
X007299Y033393D01*
X007427Y033264D01*
X007291Y033400D02*
X001518Y033400D01*
X001518Y033499D02*
X007193Y033499D01*
X007094Y033597D02*
X001518Y033597D01*
X001518Y033696D02*
X006996Y033696D01*
X006897Y033794D02*
X001518Y033794D01*
X001518Y033893D02*
X006799Y033893D01*
X006700Y033991D02*
X001619Y033991D01*
X001812Y034090D02*
X006602Y034090D01*
X006503Y034188D02*
X002005Y034188D01*
X002198Y034287D02*
X006405Y034287D01*
X006306Y034385D02*
X002391Y034385D01*
X002584Y034484D02*
X006208Y034484D01*
X006134Y034582D02*
X002777Y034582D01*
X002970Y034681D02*
X006027Y034681D01*
X005951Y034779D02*
X003163Y034779D01*
X003357Y034878D02*
X005910Y034878D01*
X005885Y034976D02*
X003550Y034976D01*
X003743Y035075D02*
X005885Y035075D01*
X005893Y035173D02*
X003936Y035173D01*
X004129Y035272D02*
X005934Y035272D01*
X005985Y035370D02*
X004322Y035370D01*
X004515Y035469D02*
X006084Y035469D01*
X006272Y035567D02*
X004708Y035567D01*
X004901Y035666D02*
X006869Y035666D01*
X006828Y035567D02*
X006578Y035567D01*
X006766Y035469D02*
X006815Y035469D01*
X006928Y035764D02*
X005094Y035764D01*
X005287Y035863D02*
X007027Y035863D01*
X007233Y035961D02*
X005480Y035961D01*
X005673Y036060D02*
X007651Y036060D01*
X007651Y035961D02*
X007477Y035961D01*
X007678Y036158D02*
X005867Y036158D01*
X006060Y036257D02*
X007719Y036257D01*
X007797Y036355D02*
X006253Y036355D01*
X006446Y036454D02*
X007911Y036454D01*
X008447Y036552D02*
X006639Y036552D01*
X006832Y036651D02*
X008545Y036651D01*
X008644Y036749D02*
X007025Y036749D01*
X007218Y036848D02*
X008742Y036848D01*
X008899Y036693D02*
X008191Y035985D01*
X008684Y035764D02*
X009548Y035764D01*
X009489Y035706D02*
X009628Y035845D01*
X009810Y035921D01*
X010007Y035921D01*
X010189Y035845D01*
X010329Y035706D01*
X010404Y035524D01*
X010404Y035327D01*
X010329Y035145D01*
X010189Y035006D01*
X010007Y034931D01*
X009810Y034931D01*
X009628Y035006D01*
X009489Y035145D01*
X009414Y035327D01*
X009414Y035524D01*
X009489Y035706D01*
X009473Y035666D02*
X008635Y035666D01*
X008649Y035679D02*
X008731Y035878D01*
X008731Y036093D01*
X008695Y036178D01*
X008990Y036473D01*
X012064Y036473D01*
X011822Y036231D01*
X011822Y036062D01*
X012272Y036062D01*
X012272Y036002D01*
X011822Y036002D01*
X011822Y035833D01*
X012034Y035621D01*
X011802Y035389D01*
X011802Y034975D01*
X012020Y034757D01*
X011802Y034539D01*
X011802Y034143D01*
X011363Y033704D01*
X010731Y033704D01*
X010731Y033714D01*
X010817Y033800D01*
X010892Y033982D01*
X010892Y034179D01*
X010817Y034361D01*
X010678Y034500D01*
X010496Y034576D01*
X010299Y034576D01*
X010117Y034500D01*
X009978Y034361D01*
X009902Y034179D01*
X009902Y033982D01*
X009978Y033800D01*
X010074Y033704D01*
X009688Y033704D01*
X009707Y033718D01*
X009760Y033771D01*
X009804Y033832D01*
X009838Y033898D01*
X009861Y033969D01*
X009872Y034043D01*
X009872Y034062D01*
X009416Y034062D01*
X009416Y034099D01*
X009872Y034099D01*
X009872Y034118D01*
X009861Y034192D01*
X009838Y034263D01*
X009804Y034330D01*
X009760Y034390D01*
X009707Y034443D01*
X009646Y034487D01*
X009580Y034521D01*
X009509Y034544D01*
X009435Y034556D01*
X009416Y034556D01*
X009416Y034099D01*
X009378Y034099D01*
X009378Y034062D01*
X008922Y034062D01*
X008922Y034043D01*
X008934Y033969D01*
X008957Y033898D01*
X008991Y033832D01*
X009035Y033771D01*
X009088Y033718D01*
X009107Y033704D01*
X007610Y033704D01*
X006727Y034587D01*
X006731Y034588D01*
X006883Y034740D01*
X006965Y034939D01*
X006965Y035054D01*
X007049Y034970D01*
X007247Y034887D01*
X007462Y034887D01*
X007661Y034970D01*
X007813Y035122D01*
X007895Y035320D01*
X007895Y035523D01*
X008083Y035445D01*
X008298Y035445D01*
X008497Y035527D01*
X008649Y035679D01*
X008537Y035567D02*
X009432Y035567D01*
X009414Y035469D02*
X008356Y035469D01*
X008026Y035469D02*
X007895Y035469D01*
X007895Y035370D02*
X009414Y035370D01*
X009437Y035272D02*
X007875Y035272D01*
X007834Y035173D02*
X009478Y035173D01*
X009560Y035075D02*
X007766Y035075D01*
X007668Y034976D02*
X009700Y034976D01*
X010118Y034976D02*
X010754Y034976D01*
X010727Y034986D02*
X010798Y034962D01*
X010872Y034951D01*
X010890Y034951D01*
X010890Y035407D01*
X010434Y035407D01*
X010434Y035388D01*
X010446Y035315D01*
X010469Y035243D01*
X010503Y035177D01*
X010547Y035116D01*
X010599Y035063D01*
X010660Y035019D01*
X010727Y034986D01*
X010890Y034976D02*
X010928Y034976D01*
X010928Y034951D02*
X010946Y034951D01*
X011020Y034962D01*
X011091Y034986D01*
X011158Y035019D01*
X011218Y035063D01*
X011271Y035116D01*
X011315Y035177D01*
X011349Y035243D01*
X011372Y035315D01*
X011384Y035388D01*
X011384Y035407D01*
X010928Y035407D01*
X010928Y035445D01*
X010890Y035445D01*
X010890Y035901D01*
X010872Y035901D01*
X010798Y035889D01*
X010727Y035866D01*
X010660Y035832D01*
X010599Y035788D01*
X010547Y035735D01*
X010503Y035675D01*
X010469Y035608D01*
X010446Y035537D01*
X010434Y035463D01*
X010434Y035445D01*
X010890Y035445D01*
X010890Y035407D01*
X010928Y035407D01*
X010928Y034951D01*
X010928Y035075D02*
X010890Y035075D01*
X010890Y035173D02*
X010928Y035173D01*
X010928Y035272D02*
X010890Y035272D01*
X010890Y035370D02*
X010928Y035370D01*
X010928Y035445D02*
X011384Y035445D01*
X011384Y035463D01*
X011372Y035537D01*
X011349Y035608D01*
X011315Y035675D01*
X011271Y035735D01*
X011218Y035788D01*
X011158Y035832D01*
X011091Y035866D01*
X011020Y035889D01*
X010946Y035901D01*
X010928Y035901D01*
X010928Y035445D01*
X010928Y035469D02*
X010890Y035469D01*
X010890Y035567D02*
X010928Y035567D01*
X010928Y035666D02*
X010890Y035666D01*
X010890Y035764D02*
X010928Y035764D01*
X010928Y035863D02*
X010890Y035863D01*
X010721Y035863D02*
X010147Y035863D01*
X010270Y035764D02*
X010576Y035764D01*
X010498Y035666D02*
X010345Y035666D01*
X010386Y035567D02*
X010456Y035567D01*
X010435Y035469D02*
X010404Y035469D01*
X010404Y035370D02*
X010437Y035370D01*
X010459Y035272D02*
X010381Y035272D01*
X010340Y035173D02*
X010505Y035173D01*
X010588Y035075D02*
X010258Y035075D01*
X010101Y034484D02*
X009650Y034484D01*
X009763Y034385D02*
X010002Y034385D01*
X009947Y034287D02*
X009825Y034287D01*
X009861Y034188D02*
X009906Y034188D01*
X009902Y034090D02*
X009416Y034090D01*
X009378Y034090D02*
X007224Y034090D01*
X007125Y034188D02*
X008934Y034188D01*
X008934Y034192D02*
X008922Y034118D01*
X008922Y034099D01*
X009378Y034099D01*
X009378Y034556D01*
X009360Y034556D01*
X009286Y034544D01*
X009215Y034521D01*
X009148Y034487D01*
X009088Y034443D01*
X009035Y034390D01*
X008991Y034330D01*
X008957Y034263D01*
X008934Y034192D01*
X008969Y034287D02*
X007027Y034287D01*
X006928Y034385D02*
X009032Y034385D01*
X009144Y034484D02*
X006830Y034484D01*
X006731Y034582D02*
X011846Y034582D01*
X011802Y034484D02*
X010694Y034484D01*
X010792Y034385D02*
X011802Y034385D01*
X011802Y034287D02*
X010848Y034287D01*
X010888Y034188D02*
X011802Y034188D01*
X011749Y034090D02*
X010892Y034090D01*
X010892Y033991D02*
X011651Y033991D01*
X011552Y033893D02*
X010855Y033893D01*
X010811Y033794D02*
X011454Y033794D01*
X011454Y033484D02*
X012302Y034332D01*
X011944Y034681D02*
X006823Y034681D01*
X006899Y034779D02*
X011997Y034779D01*
X011899Y034878D02*
X006940Y034878D01*
X006965Y034976D02*
X007042Y034976D01*
X006425Y035046D02*
X006425Y034578D01*
X007519Y033484D01*
X010511Y033484D01*
X010511Y033967D01*
X010397Y034081D01*
X009939Y033893D02*
X009835Y033893D01*
X009864Y033991D02*
X009902Y033991D01*
X009983Y033794D02*
X009777Y033794D01*
X009416Y034188D02*
X009378Y034188D01*
X009378Y034287D02*
X009416Y034287D01*
X009416Y034385D02*
X009378Y034385D01*
X009378Y034484D02*
X009416Y034484D01*
X008931Y033991D02*
X007322Y033991D01*
X007421Y033893D02*
X008960Y033893D01*
X009018Y033794D02*
X007519Y033794D01*
X007347Y032809D02*
X006752Y032809D01*
X006809Y032711D02*
X007191Y032711D01*
X007093Y032612D02*
X006854Y032612D01*
X006881Y032514D02*
X007052Y032514D01*
X007081Y032021D02*
X006887Y032021D01*
X006860Y031923D02*
X007162Y031923D01*
X007277Y031824D02*
X006822Y031824D01*
X006765Y031726D02*
X007811Y031726D01*
X007843Y031824D02*
X011277Y031824D01*
X011162Y031923D02*
X007958Y031923D01*
X008039Y032021D02*
X011081Y032021D01*
X011040Y032120D02*
X008080Y032120D01*
X008110Y032218D02*
X011010Y032218D01*
X011010Y032317D02*
X008110Y032317D01*
X008108Y032415D02*
X011011Y032415D01*
X011052Y032514D02*
X008068Y032514D01*
X008027Y032612D02*
X011093Y032612D01*
X011191Y032711D02*
X007929Y032711D01*
X007773Y032809D02*
X011347Y032809D01*
X011773Y032809D02*
X012044Y032809D01*
X011946Y032711D02*
X011929Y032711D01*
X012143Y032908D02*
X006685Y032908D01*
X006586Y033006D02*
X012241Y033006D01*
X012340Y033105D02*
X006464Y033105D01*
X006294Y033203D02*
X012438Y033203D01*
X012537Y033302D02*
X011583Y033302D01*
X011682Y033400D02*
X012635Y033400D01*
X012734Y033499D02*
X011780Y033499D01*
X011879Y033597D02*
X012771Y033597D01*
X012771Y033696D02*
X011977Y033696D01*
X012076Y033794D02*
X012771Y033794D01*
X012771Y033893D02*
X012570Y033893D01*
X012669Y033991D02*
X012771Y033991D01*
X012767Y034090D02*
X012771Y034090D01*
X013211Y034090D02*
X014779Y034090D01*
X014779Y034188D02*
X013211Y034188D01*
X013211Y034287D02*
X014779Y034287D01*
X014779Y034385D02*
X013211Y034385D01*
X013211Y034484D02*
X014779Y034484D01*
X014779Y034582D02*
X013211Y034582D01*
X013114Y034681D02*
X014779Y034681D01*
X014779Y034779D02*
X013015Y034779D01*
X012917Y034878D02*
X014779Y034878D01*
X014779Y034976D02*
X012818Y034976D01*
X012802Y035075D02*
X014779Y035075D01*
X014779Y035173D02*
X012802Y035173D01*
X012802Y035272D02*
X014779Y035272D01*
X014779Y035370D02*
X012802Y035370D01*
X012722Y035469D02*
X014779Y035469D01*
X014779Y035567D02*
X012623Y035567D01*
X012615Y035666D02*
X014779Y035666D01*
X014779Y035764D02*
X012713Y035764D01*
X012782Y035863D02*
X014779Y035863D01*
X014803Y035961D02*
X012782Y035961D01*
X012782Y036158D02*
X015000Y036158D01*
X014901Y036060D02*
X012332Y036060D01*
X012272Y036060D02*
X008731Y036060D01*
X008731Y035961D02*
X011822Y035961D01*
X011822Y035863D02*
X011097Y035863D01*
X011242Y035764D02*
X011891Y035764D01*
X011989Y035666D02*
X011320Y035666D01*
X011362Y035567D02*
X011981Y035567D01*
X011882Y035469D02*
X011383Y035469D01*
X011381Y035370D02*
X011802Y035370D01*
X011802Y035272D02*
X011358Y035272D01*
X011313Y035173D02*
X011802Y035173D01*
X011802Y035075D02*
X011230Y035075D01*
X011063Y034976D02*
X011802Y034976D01*
X012302Y035182D02*
X012991Y034493D01*
X012991Y033445D01*
X011849Y032302D01*
X011560Y032302D01*
X011958Y031923D02*
X013126Y031923D01*
X013028Y031824D02*
X011843Y031824D01*
X012039Y032021D02*
X013225Y032021D01*
X013323Y032120D02*
X012080Y032120D01*
X012110Y032218D02*
X013422Y032218D01*
X013520Y032317D02*
X012174Y032317D01*
X012273Y032415D02*
X013619Y032415D01*
X013717Y032514D02*
X012371Y032514D01*
X012470Y032612D02*
X013816Y032612D01*
X013914Y032711D02*
X012568Y032711D01*
X012667Y032809D02*
X014013Y032809D01*
X014111Y032908D02*
X012765Y032908D01*
X012864Y033006D02*
X014210Y033006D01*
X014308Y033105D02*
X012962Y033105D01*
X013061Y033203D02*
X014407Y033203D01*
X014505Y033302D02*
X013159Y033302D01*
X013211Y033400D02*
X014604Y033400D01*
X014702Y033499D02*
X013211Y033499D01*
X013211Y033597D02*
X014779Y033597D01*
X014779Y033696D02*
X013211Y033696D01*
X013211Y033794D02*
X014779Y033794D01*
X014779Y033893D02*
X013211Y033893D01*
X013211Y033991D02*
X014779Y033991D01*
X015219Y033991D02*
X019071Y033991D01*
X019057Y033893D02*
X015219Y033893D01*
X015219Y033794D02*
X019057Y033794D01*
X019076Y033696D02*
X015219Y033696D01*
X015219Y033597D02*
X019097Y033597D01*
X019014Y033499D02*
X015219Y033499D01*
X015219Y033400D02*
X018931Y033400D01*
X018848Y033302D02*
X015128Y033302D01*
X015029Y033203D02*
X018765Y033203D01*
X018682Y033105D02*
X014931Y033105D01*
X014832Y033006D02*
X018599Y033006D01*
X018516Y032908D02*
X014734Y032908D01*
X014635Y032809D02*
X018433Y032809D01*
X018344Y032711D02*
X014537Y032711D01*
X014438Y032612D02*
X018320Y032612D01*
X018322Y032514D02*
X014340Y032514D01*
X014241Y032415D02*
X018322Y032415D01*
X018322Y032317D02*
X014143Y032317D01*
X014044Y032218D02*
X018322Y032218D01*
X018322Y032120D02*
X013946Y032120D01*
X013847Y032021D02*
X018322Y032021D01*
X018322Y031923D02*
X013749Y031923D01*
X013650Y031824D02*
X018322Y031824D01*
X018322Y031726D02*
X013552Y031726D01*
X013453Y031627D02*
X018322Y031627D01*
X018244Y031529D02*
X013355Y031529D01*
X013256Y031430D02*
X018146Y031430D01*
X018047Y031332D02*
X013158Y031332D01*
X013030Y031516D02*
X007912Y031516D01*
X005156Y028760D01*
X003299Y028760D01*
X003091Y028551D01*
X002674Y027490D02*
X001518Y027490D01*
X001518Y027392D02*
X002696Y027392D01*
X002738Y027293D02*
X001518Y027293D01*
X001518Y027195D02*
X002811Y027195D01*
X002938Y027096D02*
X001518Y027096D01*
X001518Y026998D02*
X002774Y026998D01*
X002675Y026899D02*
X001518Y026899D01*
X001518Y026801D02*
X002610Y026801D01*
X002569Y026702D02*
X001518Y026702D01*
X001518Y026604D02*
X002551Y026604D01*
X002551Y026505D02*
X001518Y026505D01*
X001518Y026407D02*
X002566Y026407D01*
X002607Y026308D02*
X001518Y026308D01*
X001518Y026210D02*
X002668Y026210D01*
X002767Y026111D02*
X001518Y026111D01*
X001518Y026013D02*
X002894Y026013D01*
X002790Y025914D02*
X001518Y025914D01*
X001518Y025816D02*
X002716Y025816D01*
X002675Y025717D02*
X001518Y025717D01*
X001518Y025619D02*
X002651Y025619D01*
X002651Y025520D02*
X001518Y025520D01*
X001518Y025422D02*
X002660Y025422D01*
X002700Y025323D02*
X001518Y025323D01*
X001518Y025225D02*
X002753Y025225D01*
X002852Y025126D02*
X001518Y025126D01*
X001518Y025028D02*
X002831Y025028D01*
X002705Y024929D02*
X001518Y024929D01*
X001518Y024831D02*
X002622Y024831D01*
X002581Y024732D02*
X001518Y024732D01*
X001518Y024634D02*
X002551Y024634D01*
X002551Y024535D02*
X001518Y024535D01*
X001518Y024437D02*
X002553Y024437D01*
X002594Y024338D02*
X001518Y024338D01*
X001518Y024240D02*
X002638Y024240D01*
X002737Y024141D02*
X001518Y024141D01*
X001518Y024043D02*
X002907Y024043D01*
X001518Y023156D02*
X015826Y023156D01*
X015755Y023058D02*
X001518Y023058D01*
X001518Y022959D02*
X015713Y022959D01*
X016214Y022762D02*
X016275Y022762D01*
X016240Y022664D02*
X016327Y022664D01*
X016292Y022565D02*
X016379Y022565D01*
X016344Y022467D02*
X016432Y022467D01*
X017826Y020709D02*
X020727Y020709D01*
X024211Y024193D01*
X024219Y024193D01*
X023860Y024338D02*
X021930Y024338D01*
X021926Y024333D02*
X021869Y024275D01*
X021802Y024227D01*
X021729Y024190D01*
X021652Y024165D01*
X021571Y024152D01*
X021489Y024152D01*
X021408Y024165D01*
X021330Y024190D01*
X021320Y024195D01*
X021546Y024620D01*
X021582Y024688D01*
X021514Y024724D01*
X021740Y025149D01*
X021729Y025154D01*
X021652Y025179D01*
X021571Y025192D01*
X021489Y025192D01*
X021408Y025179D01*
X021330Y025154D01*
X021257Y025117D01*
X021191Y025069D01*
X021133Y025011D01*
X021089Y024950D01*
X021514Y024724D01*
X021478Y024656D01*
X021546Y024620D01*
X021971Y024394D01*
X021926Y024333D01*
X021890Y024437D02*
X023914Y024437D01*
X024032Y024535D02*
X022032Y024535D01*
X022037Y024550D02*
X022050Y024631D01*
X022050Y024713D01*
X022037Y024794D01*
X022012Y024872D01*
X021975Y024944D01*
X021926Y025011D01*
X021869Y025069D01*
X021808Y025113D01*
X021582Y024688D01*
X022007Y024462D01*
X022012Y024472D01*
X022037Y024550D01*
X022050Y024634D02*
X026826Y024634D01*
X026826Y024732D02*
X026582Y024732D01*
X026558Y024709D02*
X026685Y024835D01*
X026753Y025001D01*
X026753Y025180D01*
X026685Y025345D01*
X026558Y025472D01*
X026393Y025540D01*
X025654Y025540D01*
X025488Y025472D01*
X025362Y025345D01*
X025293Y025180D01*
X025293Y025001D01*
X025362Y024835D01*
X025488Y024709D01*
X025654Y024640D01*
X026393Y024640D01*
X026558Y024709D01*
X026680Y024831D02*
X026826Y024831D01*
X026826Y024929D02*
X026724Y024929D01*
X026753Y025028D02*
X026826Y025028D01*
X026826Y025126D02*
X026753Y025126D01*
X026735Y025225D02*
X026826Y025225D01*
X026826Y025323D02*
X026694Y025323D01*
X026608Y025422D02*
X026826Y025422D01*
X026826Y025520D02*
X026441Y025520D01*
X026567Y025717D02*
X026826Y025717D01*
X026826Y025619D02*
X023144Y025619D01*
X022984Y025520D02*
X025606Y025520D01*
X025439Y025422D02*
X019811Y025422D01*
X019996Y025520D02*
X022754Y025520D01*
X022594Y025619D02*
X020095Y025619D01*
X020145Y025717D02*
X022522Y025717D01*
X022869Y025893D02*
X025826Y025893D01*
X026023Y026090D01*
X025570Y026505D02*
X025062Y026505D01*
X025103Y026604D02*
X026765Y026604D01*
X026826Y026505D02*
X026477Y026505D01*
X026623Y026407D02*
X026826Y026407D01*
X026826Y026308D02*
X026700Y026308D01*
X026741Y026210D02*
X026826Y026210D01*
X026826Y026111D02*
X026753Y026111D01*
X026753Y026013D02*
X026826Y026013D01*
X026826Y025914D02*
X026718Y025914D01*
X026665Y025816D02*
X026826Y025816D01*
X027046Y026634D02*
X027046Y021870D01*
X026416Y021240D01*
X024172Y021240D01*
X023613Y020681D01*
X023613Y020669D01*
X024381Y022270D02*
X024916Y022270D01*
X024954Y022254D02*
X024756Y022336D01*
X024604Y022488D01*
X024522Y022687D01*
X024522Y022901D01*
X024604Y023100D01*
X024756Y023252D01*
X024954Y023334D01*
X025169Y023334D01*
X025367Y023252D01*
X025519Y023100D01*
X025602Y022901D01*
X025602Y022687D01*
X025595Y022670D01*
X025604Y022683D01*
X025662Y022741D01*
X025728Y022789D01*
X025801Y022826D01*
X025879Y022852D01*
X025960Y022864D01*
X026042Y022864D01*
X026123Y022852D01*
X026201Y022826D01*
X026211Y022821D01*
X025985Y022397D01*
X026053Y022360D01*
X026478Y022135D01*
X026483Y022145D01*
X026508Y022223D01*
X026521Y022304D01*
X026521Y022385D01*
X026508Y022466D01*
X026483Y022544D01*
X026446Y022617D01*
X026398Y022683D01*
X026340Y022741D01*
X026279Y022785D01*
X026053Y022360D01*
X026017Y022292D01*
X025791Y021868D01*
X025801Y021863D01*
X025879Y021837D01*
X025960Y021824D01*
X026042Y021824D01*
X026123Y021837D01*
X026201Y021863D01*
X026273Y021900D01*
X026340Y021948D01*
X026398Y022006D01*
X026442Y022066D01*
X026017Y022292D01*
X025949Y022328D01*
X025723Y021904D01*
X025662Y021948D01*
X025604Y022006D01*
X025556Y022072D01*
X025519Y022145D01*
X025494Y022223D01*
X025481Y022304D01*
X025481Y022385D01*
X025493Y022462D01*
X025367Y022336D01*
X025169Y022254D01*
X024954Y022254D01*
X025207Y022270D02*
X025486Y022270D01*
X025481Y022368D02*
X025400Y022368D01*
X025510Y022171D02*
X024574Y022171D01*
X024767Y022073D02*
X025556Y022073D01*
X025636Y021974D02*
X024960Y021974D01*
X025154Y021876D02*
X025796Y021876D01*
X025760Y021974D02*
X025848Y021974D01*
X025813Y022073D02*
X025900Y022073D01*
X025865Y022171D02*
X025953Y022171D01*
X025918Y022270D02*
X026005Y022270D01*
X026059Y022270D02*
X026223Y022270D01*
X026244Y022171D02*
X026409Y022171D01*
X026491Y022171D02*
X026826Y022171D01*
X026826Y022073D02*
X026429Y022073D01*
X026366Y021974D02*
X026826Y021974D01*
X026741Y021876D02*
X026227Y021876D01*
X026445Y021580D02*
X025733Y021580D01*
X025540Y021679D02*
X026544Y021679D01*
X026642Y021777D02*
X025347Y021777D01*
X025927Y021482D02*
X026347Y021482D01*
X026516Y022270D02*
X026826Y022270D01*
X026826Y022368D02*
X026521Y022368D01*
X026508Y022467D02*
X026826Y022467D01*
X026826Y022565D02*
X026472Y022565D01*
X026412Y022664D02*
X026826Y022664D01*
X026826Y022762D02*
X026310Y022762D01*
X026267Y022762D02*
X026179Y022762D01*
X026215Y022664D02*
X026127Y022664D01*
X026162Y022565D02*
X026075Y022565D01*
X026110Y022467D02*
X026022Y022467D01*
X026038Y022368D02*
X026057Y022368D01*
X026064Y022861D02*
X026826Y022861D01*
X026826Y022959D02*
X025578Y022959D01*
X025602Y022861D02*
X025938Y022861D01*
X025692Y022762D02*
X025602Y022762D01*
X025537Y023058D02*
X026826Y023058D01*
X026826Y023156D02*
X025463Y023156D01*
X025360Y023255D02*
X026826Y023255D01*
X026826Y023353D02*
X023683Y023353D01*
X023585Y023255D02*
X024763Y023255D01*
X024660Y023156D02*
X023486Y023156D01*
X023388Y023058D02*
X024586Y023058D01*
X024546Y022959D02*
X023289Y022959D01*
X023222Y022861D02*
X024522Y022861D01*
X024522Y022762D02*
X023415Y022762D01*
X023608Y022664D02*
X024531Y022664D01*
X024572Y022565D02*
X023801Y022565D01*
X023994Y022467D02*
X024625Y022467D01*
X024724Y022368D02*
X024188Y022368D01*
X023782Y023452D02*
X026826Y023452D01*
X026826Y023550D02*
X023880Y023550D01*
X023979Y023649D02*
X026826Y023649D01*
X026826Y023747D02*
X024077Y023747D01*
X024396Y023846D02*
X026826Y023846D01*
X026826Y023944D02*
X024520Y023944D01*
X024577Y024043D02*
X026826Y024043D01*
X026826Y024141D02*
X024607Y024141D01*
X024607Y024240D02*
X026826Y024240D01*
X026826Y024338D02*
X024579Y024338D01*
X024524Y024437D02*
X026826Y024437D01*
X026826Y024535D02*
X024407Y024535D01*
X023831Y024240D02*
X021820Y024240D01*
X021869Y024535D02*
X021704Y024535D01*
X021683Y024634D02*
X021553Y024634D01*
X021519Y024634D02*
X021466Y024634D01*
X021478Y024656D02*
X021252Y024231D01*
X021191Y024275D01*
X021133Y024333D01*
X021085Y024399D01*
X021048Y024472D01*
X021023Y024550D01*
X021010Y024631D01*
X021010Y024713D01*
X021023Y024794D01*
X021048Y024872D01*
X021053Y024882D01*
X021478Y024656D01*
X021498Y024732D02*
X021334Y024732D01*
X021313Y024831D02*
X021149Y024831D01*
X021128Y024929D02*
X020223Y024929D01*
X020263Y024831D02*
X021035Y024831D01*
X021013Y024732D02*
X020281Y024732D01*
X020281Y024634D02*
X021010Y024634D01*
X021027Y024535D02*
X020265Y024535D01*
X020302Y024437D02*
X021066Y024437D01*
X021129Y024338D02*
X020401Y024338D01*
X020499Y024240D02*
X021240Y024240D01*
X021256Y024240D02*
X021344Y024240D01*
X021309Y024338D02*
X021396Y024338D01*
X021361Y024437D02*
X021449Y024437D01*
X021414Y024535D02*
X021501Y024535D01*
X021518Y024732D02*
X021606Y024732D01*
X021571Y024831D02*
X021658Y024831D01*
X021623Y024929D02*
X021710Y024929D01*
X021675Y025028D02*
X021763Y025028D01*
X021728Y025126D02*
X025293Y025126D01*
X025293Y025028D02*
X021909Y025028D01*
X021982Y024929D02*
X025323Y024929D01*
X025366Y024831D02*
X022025Y024831D01*
X022047Y024732D02*
X025465Y024732D01*
X025312Y025225D02*
X018368Y025225D01*
X018368Y025323D02*
X025353Y025323D01*
X025306Y026210D02*
X023101Y026210D01*
X022816Y026407D02*
X024456Y026407D01*
X024377Y026505D02*
X022915Y026505D01*
X023013Y026604D02*
X024336Y026604D01*
X024331Y026702D02*
X023112Y026702D01*
X023210Y026801D02*
X024344Y026801D01*
X024385Y026899D02*
X023309Y026899D01*
X023657Y026998D02*
X024476Y026998D01*
X024499Y027096D02*
X023831Y027096D01*
X023920Y027195D02*
X024499Y027195D01*
X024509Y027293D02*
X023960Y027293D01*
X023981Y027392D02*
X024607Y027392D01*
X024706Y027490D02*
X024328Y027490D01*
X024426Y027589D02*
X024804Y027589D01*
X024903Y027687D02*
X024525Y027687D01*
X024623Y027786D02*
X025001Y027786D01*
X025100Y027884D02*
X024722Y027884D01*
X024820Y027983D02*
X025198Y027983D01*
X025293Y028081D02*
X024919Y028081D01*
X025018Y028180D02*
X025293Y028180D01*
X025334Y028278D02*
X025116Y028278D01*
X025215Y028377D02*
X025394Y028377D01*
X025313Y028475D02*
X025497Y028475D01*
X025617Y028090D02*
X026023Y028090D01*
X026810Y028090D01*
X027125Y028406D01*
X027125Y032028D01*
X026574Y032579D01*
X022496Y032579D01*
X022224Y032850D01*
X021738Y032612D02*
X020110Y032612D01*
X020105Y032629D02*
X020068Y032702D01*
X020020Y032768D01*
X019962Y032826D01*
X019896Y032874D01*
X019823Y032911D01*
X019745Y032937D01*
X019664Y032949D01*
X019653Y032949D01*
X019653Y032459D01*
X020143Y032459D01*
X020143Y032470D01*
X020130Y032551D01*
X020105Y032629D01*
X020061Y032711D02*
X021698Y032711D01*
X021684Y032809D02*
X019978Y032809D01*
X019829Y032908D02*
X021684Y032908D01*
X021705Y033006D02*
X019174Y033006D01*
X019091Y032908D02*
X019417Y032908D01*
X019424Y032911D02*
X019351Y032874D01*
X019284Y032826D01*
X019227Y032768D01*
X019178Y032702D01*
X019141Y032629D01*
X019116Y032551D01*
X019103Y032470D01*
X019103Y032459D01*
X019593Y032459D01*
X019593Y032399D01*
X019103Y032399D01*
X019103Y032388D01*
X019116Y032308D01*
X019141Y032230D01*
X019178Y032157D01*
X019227Y032091D01*
X019284Y032033D01*
X019351Y031985D01*
X019424Y031947D01*
X019446Y031940D01*
X019317Y031887D01*
X019165Y031735D01*
X019083Y031537D01*
X019083Y031322D01*
X019165Y031123D01*
X019317Y030972D01*
X019516Y030889D01*
X019731Y030889D01*
X019929Y030972D01*
X020081Y031123D01*
X020163Y031322D01*
X020163Y031537D01*
X020081Y031735D01*
X019929Y031887D01*
X019801Y031940D01*
X019823Y031947D01*
X019896Y031985D01*
X019962Y032033D01*
X020020Y032091D01*
X020068Y032157D01*
X020105Y032230D01*
X020130Y032308D01*
X020143Y032388D01*
X020143Y032399D01*
X019653Y032399D01*
X019653Y032459D01*
X019593Y032459D01*
X019593Y032949D01*
X019582Y032949D01*
X019501Y032937D01*
X019424Y032911D01*
X019593Y032908D02*
X019653Y032908D01*
X019653Y032809D02*
X019593Y032809D01*
X019593Y032711D02*
X019653Y032711D01*
X019653Y032612D02*
X019593Y032612D01*
X019593Y032514D02*
X019653Y032514D01*
X019653Y032415D02*
X021895Y032415D01*
X021797Y032514D02*
X020136Y032514D01*
X020132Y032317D02*
X022040Y032317D01*
X021929Y032218D02*
X020099Y032218D01*
X020041Y032120D02*
X021852Y032120D01*
X021811Y032021D02*
X019947Y032021D01*
X019843Y031923D02*
X021784Y031923D01*
X021784Y031824D02*
X019992Y031824D01*
X020085Y031726D02*
X021791Y031726D01*
X021832Y031627D02*
X020126Y031627D01*
X020163Y031529D02*
X021882Y031529D01*
X021980Y031430D02*
X020163Y031430D01*
X020163Y031332D02*
X021976Y031332D01*
X021844Y031233D02*
X020127Y031233D01*
X020086Y031135D02*
X021758Y031135D01*
X021717Y031036D02*
X019994Y031036D01*
X019848Y030938D02*
X021684Y030938D01*
X021684Y030839D02*
X021380Y030839D01*
X021478Y030741D02*
X021685Y030741D01*
X021726Y030642D02*
X021577Y030642D01*
X021774Y030445D02*
X021865Y030445D01*
X021872Y030347D02*
X022028Y030347D01*
X021971Y030248D02*
X022987Y030248D01*
X023086Y030347D02*
X022420Y030347D01*
X022583Y030445D02*
X023184Y030445D01*
X023440Y030741D02*
X022764Y030741D01*
X022764Y030839D02*
X023440Y030839D01*
X023440Y030938D02*
X022764Y030938D01*
X022732Y031036D02*
X023440Y031036D01*
X023480Y031135D02*
X022691Y031135D01*
X022605Y031233D02*
X023579Y031233D01*
X023677Y031332D02*
X022484Y031332D01*
X022668Y031430D02*
X023776Y031430D01*
X023874Y031529D02*
X022767Y031529D01*
X022817Y031627D02*
X023973Y031627D01*
X024071Y031726D02*
X022857Y031726D01*
X022864Y031824D02*
X024170Y031824D01*
X024260Y031923D02*
X022864Y031923D01*
X022838Y032021D02*
X024234Y032021D01*
X024234Y032120D02*
X022797Y032120D01*
X022720Y032218D02*
X024248Y032218D01*
X024289Y032317D02*
X022609Y032317D01*
X021745Y033105D02*
X019257Y033105D01*
X019340Y033203D02*
X021814Y033203D01*
X021912Y033302D02*
X019423Y033302D01*
X019911Y033400D02*
X022010Y033400D01*
X021912Y033499D02*
X020010Y033499D01*
X020077Y033597D02*
X021845Y033597D01*
X021804Y033696D02*
X020118Y033696D01*
X020137Y033794D02*
X021784Y033794D01*
X021784Y033893D02*
X020137Y033893D01*
X020123Y033991D02*
X021798Y033991D01*
X021839Y034090D02*
X020082Y034090D01*
X020022Y034188D02*
X021899Y034188D01*
X021997Y034287D02*
X019924Y034287D01*
X019715Y034385D02*
X021935Y034385D01*
X021827Y034484D02*
X018632Y034484D01*
X018634Y034484D02*
X018712Y034510D01*
X018785Y034547D01*
X018851Y034595D01*
X018909Y034653D01*
X018957Y034719D01*
X018994Y034792D01*
X019019Y034870D01*
X019031Y034941D01*
X018562Y034941D01*
X018562Y034473D01*
X018634Y034484D01*
X018562Y034484D02*
X018462Y034484D01*
X018462Y034473D02*
X018462Y034941D01*
X018562Y034941D01*
X018562Y035041D01*
X019031Y035041D01*
X019019Y035113D01*
X018994Y035191D01*
X018957Y035264D01*
X018909Y035330D01*
X018851Y035388D01*
X018785Y035436D01*
X018712Y035473D01*
X018634Y035499D01*
X018562Y035510D01*
X018562Y035041D01*
X018462Y035041D01*
X018462Y034941D01*
X017994Y034941D01*
X018005Y034870D01*
X018030Y034792D01*
X018067Y034719D01*
X018115Y034653D01*
X018173Y034595D01*
X018240Y034547D01*
X018313Y034510D01*
X018390Y034484D01*
X018462Y034473D01*
X018392Y034484D02*
X016072Y034484D01*
X016074Y034484D02*
X016152Y034510D01*
X016225Y034547D01*
X016291Y034595D01*
X016349Y034653D01*
X016397Y034719D01*
X016434Y034792D01*
X016459Y034870D01*
X016471Y034941D01*
X016002Y034941D01*
X016002Y034473D01*
X016074Y034484D01*
X016002Y034484D02*
X015902Y034484D01*
X015902Y034473D02*
X015902Y034941D01*
X016002Y034941D01*
X016002Y035041D01*
X016471Y035041D01*
X016459Y035113D01*
X016434Y035191D01*
X016397Y035264D01*
X016349Y035330D01*
X016291Y035388D01*
X016225Y035436D01*
X016152Y035473D01*
X016074Y035499D01*
X016002Y035510D01*
X016002Y035041D01*
X015902Y035041D01*
X015902Y034941D01*
X015434Y034941D01*
X015445Y034870D01*
X015470Y034792D01*
X015507Y034719D01*
X015555Y034653D01*
X015613Y034595D01*
X015680Y034547D01*
X015753Y034510D01*
X015830Y034484D01*
X015902Y034473D01*
X015832Y034484D02*
X015219Y034484D01*
X015219Y034582D02*
X015630Y034582D01*
X015535Y034681D02*
X015219Y034681D01*
X015219Y034779D02*
X015477Y034779D01*
X015444Y034878D02*
X015219Y034878D01*
X015219Y034976D02*
X015902Y034976D01*
X015902Y035041D02*
X015434Y035041D01*
X015445Y035113D01*
X015470Y035191D01*
X015507Y035264D01*
X015555Y035330D01*
X015613Y035388D01*
X015680Y035436D01*
X015753Y035473D01*
X015830Y035499D01*
X015902Y035510D01*
X015902Y035041D01*
X015902Y035075D02*
X016002Y035075D01*
X016002Y035173D02*
X015902Y035173D01*
X015902Y035272D02*
X016002Y035272D01*
X016002Y035370D02*
X015902Y035370D01*
X015902Y035469D02*
X016002Y035469D01*
X016160Y035469D02*
X018304Y035469D01*
X018313Y035473D02*
X018240Y035436D01*
X018173Y035388D01*
X018115Y035330D01*
X018067Y035264D01*
X018030Y035191D01*
X018005Y035113D01*
X017994Y035041D01*
X018462Y035041D01*
X018462Y035510D01*
X018390Y035499D01*
X018313Y035473D01*
X018462Y035469D02*
X018562Y035469D01*
X018562Y035370D02*
X018462Y035370D01*
X018462Y035272D02*
X018562Y035272D01*
X018562Y035173D02*
X018462Y035173D01*
X018462Y035075D02*
X018562Y035075D01*
X018562Y034976D02*
X021692Y034976D01*
X021684Y034878D02*
X019021Y034878D01*
X018988Y034779D02*
X021684Y034779D01*
X021710Y034681D02*
X018929Y034681D01*
X018834Y034582D02*
X021751Y034582D01*
X021733Y035075D02*
X019025Y035075D01*
X019000Y035173D02*
X021784Y035173D01*
X021882Y035272D02*
X018951Y035272D01*
X018869Y035370D02*
X022069Y035370D01*
X021942Y035469D02*
X018720Y035469D01*
X018462Y034976D02*
X016002Y034976D01*
X016002Y034878D02*
X015902Y034878D01*
X015902Y034779D02*
X016002Y034779D01*
X016002Y034681D02*
X015902Y034681D01*
X015902Y034582D02*
X016002Y034582D01*
X016274Y034582D02*
X018190Y034582D01*
X018095Y034681D02*
X016369Y034681D01*
X016428Y034779D02*
X018037Y034779D01*
X018004Y034878D02*
X016461Y034878D01*
X016465Y035075D02*
X017999Y035075D01*
X018024Y035173D02*
X016440Y035173D01*
X016391Y035272D02*
X018073Y035272D01*
X018156Y035370D02*
X016309Y035370D01*
X015744Y035469D02*
X015219Y035469D01*
X015219Y035567D02*
X021857Y035567D01*
X021816Y035666D02*
X015219Y035666D01*
X015228Y035764D02*
X021784Y035764D01*
X021784Y035863D02*
X021008Y035863D01*
X021175Y035961D02*
X021786Y035961D01*
X021827Y036060D02*
X021250Y036060D01*
X021291Y036158D02*
X021869Y036158D01*
X021967Y036257D02*
X021292Y036257D01*
X021277Y036355D02*
X022008Y036355D01*
X021857Y036454D02*
X021236Y036454D01*
X021141Y036552D02*
X021763Y036552D01*
X021722Y036651D02*
X021124Y036651D01*
X021124Y036749D02*
X021684Y036749D01*
X021684Y036848D02*
X021124Y036848D01*
X021124Y036946D02*
X021684Y036946D01*
X021720Y037045D02*
X021124Y037045D01*
X021124Y037143D02*
X021761Y037143D01*
X021852Y037242D02*
X021124Y037242D01*
X021124Y037340D02*
X021854Y037340D01*
X021784Y037439D02*
X021124Y037439D01*
X020684Y037439D02*
X019950Y037439D01*
X020048Y037537D02*
X020684Y037537D01*
X020684Y037636D02*
X020093Y037636D01*
X020134Y037734D02*
X020684Y037734D01*
X020684Y037833D02*
X020137Y037833D01*
X020137Y037931D02*
X020684Y037931D01*
X020684Y038030D02*
X020107Y038030D01*
X020066Y038128D02*
X020710Y038128D01*
X020808Y038227D02*
X019984Y038227D01*
X019860Y038325D02*
X020907Y038325D01*
X021005Y038424D02*
X013800Y038424D01*
X013841Y038522D02*
X021104Y038522D01*
X021202Y038621D02*
X013878Y038621D01*
X013878Y038719D02*
X014056Y038719D01*
X013901Y038818D02*
X013878Y038818D01*
X013746Y039113D02*
X013695Y039113D01*
X013741Y039212D02*
X013518Y039212D01*
X013756Y039310D02*
X012045Y039310D01*
X011852Y039212D02*
X013197Y039212D01*
X013020Y039113D02*
X011659Y039113D01*
X011466Y039015D02*
X012922Y039015D01*
X012878Y038916D02*
X011273Y038916D01*
X011080Y038818D02*
X012838Y038818D01*
X012838Y038719D02*
X012691Y038719D01*
X012835Y038621D02*
X012838Y038621D01*
X012259Y038719D02*
X010886Y038719D01*
X010693Y038621D02*
X012114Y038621D01*
X012027Y038522D02*
X010500Y038522D01*
X010307Y038424D02*
X011986Y038424D01*
X011955Y038325D02*
X010114Y038325D01*
X009921Y038227D02*
X011320Y038227D01*
X011208Y038128D02*
X009728Y038128D01*
X009535Y038030D02*
X011134Y038030D01*
X011093Y037931D02*
X009342Y037931D01*
X009149Y037833D02*
X010661Y037833D01*
X010476Y037734D02*
X008956Y037734D01*
X008763Y037636D02*
X010290Y037636D01*
X010133Y037537D02*
X008570Y037537D01*
X008376Y037439D02*
X010103Y037439D01*
X010140Y037340D02*
X008183Y037340D01*
X007990Y037242D02*
X010192Y037242D01*
X010245Y037143D02*
X007797Y037143D01*
X007604Y037045D02*
X010297Y037045D01*
X010349Y036946D02*
X007411Y036946D01*
X008704Y036158D02*
X011822Y036158D01*
X011848Y036257D02*
X008774Y036257D01*
X008872Y036355D02*
X011947Y036355D01*
X012045Y036454D02*
X008971Y036454D01*
X008899Y036693D02*
X012719Y036693D01*
X013358Y037331D01*
X013358Y038716D01*
X013703Y038325D02*
X019334Y038325D01*
X019211Y038227D02*
X013578Y038227D01*
X013578Y038128D02*
X016507Y038128D01*
X016596Y038166D02*
X016415Y038090D01*
X016275Y037951D01*
X016200Y037769D01*
X016200Y037572D01*
X016275Y037390D01*
X016415Y037251D01*
X016596Y037176D01*
X016793Y037176D01*
X016975Y037251D01*
X017115Y037390D01*
X017190Y037572D01*
X017190Y037769D01*
X017115Y037951D01*
X016975Y038090D01*
X016793Y038166D01*
X016596Y038166D01*
X016354Y038030D02*
X013578Y038030D01*
X013578Y037931D02*
X016267Y037931D01*
X016226Y037833D02*
X013578Y037833D01*
X013578Y037734D02*
X016200Y037734D01*
X016200Y037636D02*
X013578Y037636D01*
X013578Y037537D02*
X016214Y037537D01*
X016255Y037439D02*
X013578Y037439D01*
X013578Y037340D02*
X016325Y037340D01*
X016227Y037242D02*
X016436Y037242D01*
X016344Y037143D02*
X017877Y037143D01*
X017966Y037045D02*
X016423Y037045D01*
X015952Y036771D02*
X015924Y036771D01*
X014999Y035846D01*
X014999Y033484D01*
X013030Y031516D01*
X012698Y031233D02*
X017949Y031233D01*
X017850Y031135D02*
X012795Y031135D01*
X012795Y031036D02*
X017752Y031036D01*
X017653Y030938D02*
X012345Y030938D01*
X012285Y030938D02*
X009439Y030938D01*
X009415Y030948D02*
X009218Y030948D01*
X009036Y030873D01*
X008897Y030733D01*
X008821Y030551D01*
X008821Y030355D01*
X008897Y030173D01*
X009036Y030033D01*
X009218Y029958D01*
X009415Y029958D01*
X009597Y030033D01*
X009736Y030173D01*
X009811Y030355D01*
X009811Y030551D01*
X009736Y030733D01*
X009597Y030873D01*
X009415Y030948D01*
X009194Y030938D02*
X007646Y030938D01*
X007744Y031036D02*
X011835Y031036D01*
X011835Y031135D02*
X007843Y031135D01*
X007941Y031233D02*
X011931Y031233D01*
X011835Y030839D02*
X010593Y030839D01*
X010565Y030859D02*
X010499Y030893D01*
X010428Y030916D01*
X010354Y030928D01*
X010335Y030928D01*
X010335Y030472D01*
X010297Y030472D01*
X010297Y030434D01*
X009841Y030434D01*
X009841Y030416D01*
X009853Y030342D01*
X009876Y030271D01*
X009910Y030204D01*
X009954Y030144D01*
X010007Y030091D01*
X010067Y030047D01*
X010134Y030013D01*
X010205Y029990D01*
X010279Y029978D01*
X010297Y029978D01*
X010297Y030434D01*
X010335Y030434D01*
X010335Y029978D01*
X010354Y029978D01*
X010428Y029990D01*
X010499Y030013D01*
X010565Y030047D01*
X010626Y030091D01*
X010679Y030144D01*
X010723Y030204D01*
X010757Y030271D01*
X010780Y030342D01*
X010791Y030416D01*
X010791Y030434D01*
X010335Y030434D01*
X010335Y030472D01*
X010791Y030472D01*
X010791Y030490D01*
X010780Y030564D01*
X010757Y030635D01*
X010723Y030702D01*
X010679Y030762D01*
X010626Y030815D01*
X010565Y030859D01*
X010694Y030741D02*
X011835Y030741D01*
X011931Y030642D02*
X010753Y030642D01*
X010783Y030544D02*
X012030Y030544D01*
X011965Y030445D02*
X010335Y030445D01*
X010297Y030445D02*
X009811Y030445D01*
X009841Y030472D02*
X010297Y030472D01*
X010297Y030928D01*
X010279Y030928D01*
X010205Y030916D01*
X010134Y030893D01*
X010067Y030859D01*
X010007Y030815D01*
X009954Y030762D01*
X009910Y030702D01*
X009876Y030635D01*
X009853Y030564D01*
X009841Y030490D01*
X009841Y030472D01*
X009850Y030544D02*
X009811Y030544D01*
X009774Y030642D02*
X009880Y030642D01*
X009938Y030741D02*
X009728Y030741D01*
X009630Y030839D02*
X010040Y030839D01*
X010297Y030839D02*
X010335Y030839D01*
X010335Y030741D02*
X010297Y030741D01*
X010297Y030642D02*
X010335Y030642D01*
X010335Y030544D02*
X010297Y030544D01*
X010297Y030347D02*
X010335Y030347D01*
X010335Y030248D02*
X010297Y030248D01*
X010297Y030150D02*
X010335Y030150D01*
X010335Y030051D02*
X010297Y030051D01*
X010061Y030051D02*
X009615Y030051D01*
X009713Y030150D02*
X009949Y030150D01*
X009887Y030248D02*
X009767Y030248D01*
X009808Y030347D02*
X009852Y030347D01*
X010572Y030051D02*
X011815Y030051D01*
X011815Y029953D02*
X006661Y029953D01*
X006759Y030051D02*
X009018Y030051D01*
X008919Y030150D02*
X006858Y030150D01*
X006956Y030248D02*
X008865Y030248D01*
X008824Y030347D02*
X007055Y030347D01*
X007153Y030445D02*
X008821Y030445D01*
X008821Y030544D02*
X007252Y030544D01*
X007350Y030642D02*
X008859Y030642D01*
X008904Y030741D02*
X007449Y030741D01*
X007547Y030839D02*
X009003Y030839D01*
X009596Y029460D02*
X009781Y029460D01*
X009740Y029362D02*
X009649Y029362D01*
X009674Y029263D02*
X009710Y029263D01*
X009680Y029172D02*
X009224Y029172D01*
X009224Y028716D01*
X009242Y028716D01*
X009316Y028728D01*
X009387Y028751D01*
X009454Y028785D01*
X009514Y028829D01*
X009567Y028882D01*
X009611Y028942D01*
X009645Y029009D01*
X009668Y029080D01*
X009680Y029154D01*
X009680Y029172D01*
X009680Y029165D02*
X009710Y029165D01*
X009721Y029066D02*
X009664Y029066D01*
X009671Y028968D02*
X009624Y028968D01*
X009572Y028869D02*
X009555Y028869D01*
X009474Y028771D02*
X009427Y028771D01*
X009375Y028672D02*
X007425Y028672D01*
X007390Y028574D02*
X009277Y028574D01*
X009178Y028475D02*
X007349Y028475D01*
X007259Y028377D02*
X009080Y028377D01*
X008981Y028278D02*
X007119Y028278D01*
X008986Y027972D02*
X004512Y027972D01*
X003091Y026551D01*
X003707Y027490D02*
X003719Y027490D01*
X003722Y030544D02*
X001518Y030544D01*
X001518Y030642D02*
X003741Y030642D01*
X003770Y030741D02*
X001518Y030741D01*
X001518Y030839D02*
X003811Y030839D01*
X003866Y030938D02*
X001518Y030938D01*
X001518Y031036D02*
X003936Y031036D01*
X004027Y031135D02*
X001518Y031135D01*
X001518Y031233D02*
X004149Y031233D01*
X005095Y031332D02*
X005455Y031332D01*
X005276Y031233D02*
X007319Y031233D01*
X007220Y031135D02*
X005398Y031135D01*
X005489Y031036D02*
X007122Y031036D01*
X007023Y030938D02*
X005560Y030938D01*
X005614Y030839D02*
X006925Y030839D01*
X006826Y030741D02*
X005655Y030741D01*
X005684Y030642D02*
X006728Y030642D01*
X006332Y031332D02*
X007417Y031332D01*
X007516Y031430D02*
X006503Y031430D01*
X006608Y031529D02*
X007614Y031529D01*
X007713Y031627D02*
X006707Y031627D01*
X007514Y032257D02*
X005894Y032257D01*
X004907Y032514D02*
X004498Y032514D01*
X004520Y032415D02*
X004880Y032415D01*
X004933Y032612D02*
X004466Y032612D01*
X004423Y032711D02*
X004978Y032711D01*
X005035Y032809D02*
X004365Y032809D01*
X004291Y032908D02*
X005102Y032908D01*
X005201Y033006D02*
X004195Y033006D01*
X004061Y033105D02*
X005323Y033105D01*
X005494Y033203D02*
X003853Y033203D01*
X007514Y032257D02*
X007560Y032302D01*
X009186Y029165D02*
X009224Y029165D01*
X009224Y029066D02*
X009186Y029066D01*
X009186Y028968D02*
X009224Y028968D01*
X009224Y028869D02*
X009186Y028869D01*
X009186Y028771D02*
X009224Y028771D01*
X009603Y028278D02*
X018322Y028278D01*
X018322Y028180D02*
X009505Y028180D01*
X009406Y028081D02*
X018322Y028081D01*
X018322Y027983D02*
X009308Y027983D01*
X009209Y027884D02*
X018322Y027884D01*
X018322Y027786D02*
X009111Y027786D01*
X008986Y027972D02*
X010205Y029191D01*
X010670Y029362D02*
X011815Y029362D01*
X011815Y029263D02*
X010700Y029263D01*
X010700Y029165D02*
X011815Y029165D01*
X011815Y029066D02*
X010689Y029066D01*
X010648Y028968D02*
X011878Y028968D01*
X011976Y028869D02*
X010583Y028869D01*
X010484Y028771D02*
X012075Y028771D01*
X012555Y028771D02*
X018154Y028771D01*
X018158Y028672D02*
X009997Y028672D01*
X009899Y028574D02*
X018199Y028574D01*
X018278Y028475D02*
X009800Y028475D01*
X009702Y028377D02*
X018322Y028377D01*
X018762Y028377D02*
X021010Y028377D01*
X021010Y028475D02*
X018807Y028475D01*
X018885Y028574D02*
X021012Y028574D01*
X021052Y028672D02*
X018926Y028672D01*
X018930Y028771D02*
X021104Y028771D01*
X021203Y028869D02*
X018917Y028869D01*
X018876Y028968D02*
X022855Y028968D01*
X022954Y029066D02*
X021756Y029066D01*
X021754Y029065D02*
X021814Y029109D01*
X021867Y029162D01*
X021911Y029222D01*
X021945Y029289D01*
X021968Y029360D01*
X021980Y029434D01*
X021980Y029452D01*
X021524Y029452D01*
X021524Y029490D01*
X021486Y029490D01*
X021486Y029946D01*
X021467Y029946D01*
X021394Y029935D01*
X021322Y029911D01*
X021256Y029877D01*
X021195Y029834D01*
X021142Y029781D01*
X021098Y029720D01*
X021065Y029654D01*
X021041Y029582D01*
X021030Y029509D01*
X021030Y029490D01*
X021486Y029490D01*
X021486Y029452D01*
X021524Y029452D01*
X021524Y028996D01*
X021542Y028996D01*
X021616Y029008D01*
X021687Y029031D01*
X021754Y029065D01*
X021869Y029165D02*
X023052Y029165D01*
X023081Y029263D02*
X021932Y029263D01*
X021968Y029362D02*
X023081Y029362D01*
X023097Y029460D02*
X021524Y029460D01*
X021486Y029460D02*
X019904Y029460D01*
X020035Y029559D02*
X021038Y029559D01*
X021067Y029657D02*
X020121Y029657D01*
X020161Y029756D02*
X021124Y029756D01*
X021224Y029854D02*
X020194Y029854D01*
X020194Y029953D02*
X021644Y029953D01*
X021546Y030051D02*
X020193Y030051D01*
X020152Y030150D02*
X021447Y030150D01*
X021349Y030248D02*
X020110Y030248D01*
X020012Y030347D02*
X021250Y030347D01*
X021486Y029854D02*
X021524Y029854D01*
X021524Y029756D02*
X021486Y029756D01*
X021486Y029657D02*
X021524Y029657D01*
X021524Y029559D02*
X021486Y029559D01*
X021486Y029452D02*
X021030Y029452D01*
X021030Y029434D01*
X021041Y029360D01*
X021065Y029289D01*
X021098Y029222D01*
X021142Y029162D01*
X021195Y029109D01*
X021256Y029065D01*
X021322Y029031D01*
X021394Y029008D01*
X021467Y028996D01*
X021486Y028996D01*
X021486Y029452D01*
X021486Y029362D02*
X021524Y029362D01*
X021524Y029263D02*
X021486Y029263D01*
X021486Y029165D02*
X021524Y029165D01*
X021524Y029066D02*
X021486Y029066D01*
X021254Y029066D02*
X018784Y029066D01*
X018542Y028760D02*
X018542Y027171D01*
X019654Y025941D01*
X020060Y025126D02*
X021276Y025126D01*
X021150Y025028D02*
X020158Y025028D01*
X019746Y024682D02*
X020511Y023917D01*
X020511Y022921D01*
X021156Y022276D01*
X020156Y022276D02*
X019515Y022276D01*
X018148Y023642D01*
X018148Y026004D01*
X019084Y026899D02*
X022687Y026899D01*
X022785Y026998D02*
X021776Y026998D01*
X021749Y026979D02*
X021809Y027022D01*
X021862Y027075D01*
X021906Y027136D01*
X021940Y027202D01*
X021963Y027274D01*
X021975Y027347D01*
X021975Y027366D01*
X021519Y027366D01*
X021519Y026910D01*
X021537Y026910D01*
X021611Y026921D01*
X021682Y026945D01*
X021749Y026979D01*
X021878Y027096D02*
X022884Y027096D01*
X022982Y027195D02*
X021936Y027195D01*
X021966Y027293D02*
X023081Y027293D01*
X023081Y027392D02*
X021519Y027392D01*
X021481Y027392D02*
X018762Y027392D01*
X018762Y027490D02*
X021036Y027490D01*
X021071Y027589D02*
X018762Y027589D01*
X018762Y027687D02*
X021133Y027687D01*
X021244Y027786D02*
X018762Y027786D01*
X018762Y027884D02*
X023672Y027884D01*
X023248Y027786D02*
X021756Y027786D01*
X021867Y027687D02*
X023150Y027687D01*
X023109Y027589D02*
X021929Y027589D01*
X021964Y027490D02*
X023081Y027490D01*
X022588Y026801D02*
X021784Y026801D01*
X021882Y026702D02*
X022490Y026702D01*
X022718Y026308D02*
X024633Y026308D01*
X024805Y026308D02*
X025347Y026308D01*
X025424Y026407D02*
X024982Y026407D01*
X025107Y026702D02*
X025504Y026702D01*
X025396Y026801D02*
X025095Y026801D01*
X025054Y026899D02*
X025335Y026899D01*
X025294Y026998D02*
X024963Y026998D01*
X024939Y027096D02*
X025293Y027096D01*
X025300Y027195D02*
X025032Y027195D01*
X025131Y027293D02*
X025340Y027293D01*
X025409Y027392D02*
X025229Y027392D01*
X025328Y027490D02*
X025533Y027490D01*
X025426Y027589D02*
X027180Y027589D01*
X027180Y027687D02*
X026507Y027687D01*
X026635Y027786D02*
X027180Y027786D01*
X027180Y027884D02*
X026915Y027884D01*
X027013Y027983D02*
X027180Y027983D01*
X027180Y028081D02*
X027112Y028081D01*
X026785Y028377D02*
X026653Y028377D01*
X026549Y028475D02*
X026884Y028475D01*
X027180Y027490D02*
X026513Y027490D01*
X026638Y027392D02*
X027180Y027392D01*
X027180Y027293D02*
X026706Y027293D01*
X026796Y027195D02*
X027180Y027195D01*
X027180Y027096D02*
X026895Y027096D01*
X026993Y026998D02*
X027180Y026998D01*
X027180Y026899D02*
X027092Y026899D01*
X027046Y026634D02*
X026613Y027067D01*
X026047Y027067D01*
X026023Y027090D01*
X026543Y026702D02*
X026666Y026702D01*
X027935Y026702D02*
X028504Y026702D01*
X028488Y026709D02*
X028654Y026640D01*
X029393Y026640D01*
X029558Y026709D01*
X029685Y026835D01*
X029753Y027001D01*
X029753Y027180D01*
X029685Y027345D01*
X029558Y027472D01*
X029393Y027540D01*
X028654Y027540D01*
X028488Y027472D01*
X028362Y027345D01*
X028293Y027180D01*
X028293Y027001D01*
X028362Y026835D01*
X028488Y026709D01*
X028396Y026801D02*
X027935Y026801D01*
X027935Y026899D02*
X028335Y026899D01*
X028294Y026998D02*
X027935Y026998D01*
X027935Y027096D02*
X028293Y027096D01*
X028300Y027195D02*
X027935Y027195D01*
X027935Y027293D02*
X028340Y027293D01*
X028409Y027392D02*
X027935Y027392D01*
X027935Y027490D02*
X028533Y027490D01*
X028654Y027640D02*
X028488Y027709D01*
X028362Y027835D01*
X028293Y028001D01*
X028293Y028180D01*
X028362Y028345D01*
X028488Y028472D01*
X028654Y028540D01*
X029393Y028540D01*
X029558Y028472D01*
X029685Y028345D01*
X029753Y028180D01*
X031065Y028180D01*
X031064Y028278D02*
X029712Y028278D01*
X029753Y028180D02*
X029753Y028001D01*
X029685Y027835D01*
X029558Y027709D01*
X029393Y027640D01*
X028654Y027640D01*
X028540Y027687D02*
X027935Y027687D01*
X027935Y027589D02*
X031243Y027589D01*
X031202Y027490D02*
X029513Y027490D01*
X029638Y027392D02*
X031164Y027392D01*
X031164Y027293D02*
X029706Y027293D01*
X029747Y027195D02*
X031164Y027195D01*
X031200Y027096D02*
X029753Y027096D01*
X029752Y026998D02*
X031240Y026998D01*
X031331Y026899D02*
X029711Y026899D01*
X029650Y026801D02*
X031134Y026801D01*
X031064Y026702D02*
X029543Y026702D01*
X029477Y026505D02*
X031064Y026505D01*
X031064Y026407D02*
X029623Y026407D01*
X029685Y026345D02*
X029558Y026472D01*
X029393Y026540D01*
X028654Y026540D01*
X028488Y026472D01*
X028362Y026345D01*
X028293Y026180D01*
X028293Y026001D01*
X028362Y025835D01*
X028488Y025709D01*
X028654Y025640D01*
X029393Y025640D01*
X029558Y025709D01*
X029685Y025835D01*
X029753Y026001D01*
X029753Y026180D01*
X029685Y026345D01*
X029700Y026308D02*
X031064Y026308D01*
X031064Y026210D02*
X029741Y026210D01*
X029753Y026111D02*
X031064Y026111D01*
X031064Y026013D02*
X029753Y026013D01*
X029718Y025914D02*
X031064Y025914D01*
X031098Y025816D02*
X029665Y025816D01*
X029567Y025717D02*
X032118Y025717D01*
X032110Y025816D02*
X032216Y025816D01*
X032144Y025914D02*
X033102Y025914D01*
X033201Y026013D02*
X032144Y026013D01*
X032144Y026111D02*
X033299Y026111D01*
X033398Y026210D02*
X032144Y026210D01*
X032144Y026308D02*
X033496Y026308D01*
X033595Y026407D02*
X032144Y026407D01*
X032144Y026505D02*
X033693Y026505D01*
X033792Y026604D02*
X032144Y026604D01*
X032144Y026702D02*
X033890Y026702D01*
X033989Y026801D02*
X032073Y026801D01*
X032077Y026899D02*
X034087Y026899D01*
X034186Y026998D02*
X032167Y026998D01*
X032208Y027096D02*
X034284Y027096D01*
X034383Y027195D02*
X033945Y027195D01*
X033770Y027195D02*
X032244Y027195D01*
X032244Y027293D02*
X033594Y027293D01*
X033514Y027392D02*
X032244Y027392D01*
X032205Y027490D02*
X033474Y027490D01*
X033469Y027589D02*
X032165Y027589D01*
X032070Y027687D02*
X033437Y027687D01*
X033339Y027786D02*
X031918Y027786D01*
X031962Y027884D02*
X033240Y027884D01*
X033142Y027983D02*
X032061Y027983D01*
X031604Y028290D02*
X033146Y028290D01*
X033857Y027579D01*
X034245Y027589D02*
X034777Y027589D01*
X034875Y027687D02*
X034232Y027687D01*
X034191Y027786D02*
X034974Y027786D01*
X035072Y027884D02*
X034100Y027884D01*
X034003Y028081D02*
X035436Y028081D01*
X035534Y028180D02*
X034059Y028180D01*
X034088Y028278D02*
X035502Y028278D01*
X035404Y028377D02*
X034088Y028377D01*
X034058Y028475D02*
X035305Y028475D01*
X035337Y027983D02*
X033884Y027983D01*
X033700Y028327D02*
X032794Y029232D01*
X031762Y029232D01*
X031704Y029290D01*
X031212Y029066D02*
X029753Y029066D01*
X029740Y028968D02*
X031262Y028968D01*
X031361Y028869D02*
X029699Y028869D01*
X029620Y028771D02*
X031354Y028771D01*
X031223Y028672D02*
X029470Y028672D01*
X029549Y028475D02*
X031096Y028475D01*
X031064Y028377D02*
X029653Y028377D01*
X029753Y028081D02*
X031106Y028081D01*
X031147Y027983D02*
X029746Y027983D01*
X029705Y027884D02*
X031246Y027884D01*
X031410Y027786D02*
X029635Y027786D01*
X029507Y027687D02*
X031338Y027687D01*
X031137Y028574D02*
X027935Y028574D01*
X027935Y028672D02*
X028576Y028672D01*
X028426Y028771D02*
X027935Y028771D01*
X027935Y028869D02*
X028348Y028869D01*
X028259Y028968D02*
X027935Y028968D01*
X027935Y029066D02*
X028161Y029066D01*
X028062Y029165D02*
X027935Y029165D01*
X027935Y029263D02*
X027964Y029263D01*
X027991Y029547D02*
X027991Y038602D01*
X027755Y038839D01*
X021731Y038839D01*
X020904Y038012D01*
X020904Y036240D01*
X020634Y035961D02*
X015425Y035961D01*
X015327Y035863D02*
X020801Y035863D01*
X020559Y036060D02*
X015524Y036060D01*
X015622Y036158D02*
X020518Y036158D01*
X020516Y036257D02*
X018681Y036257D01*
X018860Y036355D02*
X020532Y036355D01*
X020573Y036454D02*
X018958Y036454D01*
X019006Y036552D02*
X020668Y036552D01*
X020684Y036651D02*
X019047Y036651D01*
X019052Y036749D02*
X020684Y036749D01*
X020684Y036848D02*
X019052Y036848D01*
X019032Y036946D02*
X020684Y036946D01*
X020684Y037045D02*
X019127Y037045D01*
X019222Y037143D02*
X020684Y037143D01*
X020684Y037242D02*
X019317Y037242D01*
X019412Y037340D02*
X019416Y037340D01*
X019778Y037340D02*
X020684Y037340D01*
X021337Y037854D02*
X022046Y038563D01*
X025550Y038563D01*
X026023Y038090D01*
X026023Y038090D01*
X027747Y040098D02*
X022357Y040098D01*
X022331Y040000D02*
X027940Y040000D01*
X028133Y039901D02*
X022305Y039901D01*
X022298Y039878D02*
X022418Y040323D01*
X022418Y040783D01*
X022298Y041228D01*
X022068Y041626D01*
X021743Y041952D01*
X021344Y042182D01*
X020900Y042301D01*
X020439Y042301D01*
X019995Y042182D01*
X019596Y041952D01*
X019271Y041626D01*
X019041Y041228D01*
X018922Y040783D01*
X018922Y040323D01*
X019041Y039878D01*
X019271Y039480D01*
X019596Y039154D01*
X019995Y038924D01*
X020439Y038805D01*
X020900Y038805D01*
X021344Y038924D01*
X021743Y039154D01*
X022068Y039480D01*
X022298Y039878D01*
X022255Y039803D02*
X028326Y039803D01*
X028519Y039704D02*
X022198Y039704D01*
X022141Y039606D02*
X028712Y039606D01*
X028906Y039507D02*
X022084Y039507D01*
X021998Y039409D02*
X029099Y039409D01*
X029292Y039310D02*
X021899Y039310D01*
X021801Y039212D02*
X029485Y039212D01*
X029678Y039113D02*
X021672Y039113D01*
X021596Y039015D02*
X021502Y039015D01*
X021498Y038916D02*
X021316Y038916D01*
X021399Y038818D02*
X020948Y038818D01*
X021301Y038719D02*
X014426Y038719D01*
X014379Y038818D02*
X014493Y038818D01*
X014581Y038818D02*
X020391Y038818D01*
X020023Y038916D02*
X014664Y038916D01*
X014711Y039015D02*
X019837Y039015D01*
X019667Y039113D02*
X014736Y039113D01*
X014741Y039212D02*
X014891Y039212D01*
X014862Y039227D02*
X014932Y039191D01*
X015007Y039167D01*
X015084Y039155D01*
X015163Y039155D01*
X015241Y039167D01*
X015314Y039191D01*
X015103Y039587D01*
X014708Y039377D01*
X014742Y039329D01*
X014798Y039273D01*
X014862Y039227D01*
X014761Y039310D02*
X014726Y039310D01*
X014768Y039409D02*
X014555Y039409D01*
X014583Y039310D02*
X014370Y039310D01*
X014398Y039212D02*
X014283Y039212D01*
X014261Y039253D02*
X014657Y039463D01*
X014622Y039511D01*
X014567Y039566D01*
X014503Y039613D01*
X014433Y039648D01*
X014358Y039673D01*
X014280Y039685D01*
X014201Y039685D01*
X014124Y039673D01*
X014051Y039649D01*
X014261Y039253D01*
X014231Y039310D02*
X014118Y039310D01*
X014170Y039212D02*
X014185Y039212D01*
X014222Y039113D02*
X014336Y039113D01*
X014388Y039015D02*
X014275Y039015D01*
X014327Y038916D02*
X014440Y038916D01*
X014178Y039409D02*
X014065Y039409D01*
X014013Y039507D02*
X014126Y039507D01*
X014074Y039606D02*
X012624Y039606D01*
X012431Y039507D02*
X013857Y039507D01*
X013794Y039409D02*
X012238Y039409D01*
X012817Y039704D02*
X014625Y039704D01*
X014624Y039694D02*
X014636Y039772D01*
X014660Y039846D01*
X014696Y039917D01*
X014742Y039980D01*
X014798Y040036D01*
X014846Y040071D01*
X015056Y039675D01*
X015103Y039587D01*
X015191Y039634D01*
X015402Y039238D01*
X015449Y039273D01*
X015505Y039329D01*
X015551Y039393D01*
X015587Y039463D01*
X015611Y039537D01*
X015624Y039615D01*
X015624Y039694D01*
X015611Y039772D01*
X015588Y039845D01*
X015191Y039634D01*
X015144Y039722D01*
X015056Y039675D01*
X014660Y039464D01*
X014636Y039537D01*
X014624Y039615D01*
X014624Y039694D01*
X014625Y039606D02*
X014512Y039606D01*
X014625Y039507D02*
X014646Y039507D01*
X014741Y039507D02*
X014954Y039507D01*
X014926Y039606D02*
X015093Y039606D01*
X015139Y039606D02*
X015206Y039606D01*
X015154Y039704D02*
X015324Y039704D01*
X015296Y039803D02*
X015509Y039803D01*
X015601Y039803D02*
X019084Y039803D01*
X019035Y039901D02*
X015482Y039901D01*
X015540Y039932D02*
X015505Y039980D01*
X015449Y040036D01*
X015386Y040082D01*
X015316Y040118D01*
X015241Y040142D01*
X015163Y040155D01*
X015084Y040155D01*
X015007Y040142D01*
X014934Y040119D01*
X015144Y039722D01*
X015540Y039932D01*
X015485Y040000D02*
X019008Y040000D01*
X018982Y040098D02*
X015354Y040098D01*
X015049Y039901D02*
X014936Y039901D01*
X014988Y039803D02*
X015101Y039803D01*
X015111Y039704D02*
X015041Y039704D01*
X015145Y039507D02*
X015259Y039507D01*
X015311Y039409D02*
X015198Y039409D01*
X015250Y039310D02*
X015363Y039310D01*
X015302Y039212D02*
X019539Y039212D01*
X019440Y039310D02*
X015487Y039310D01*
X015560Y039409D02*
X019342Y039409D01*
X019255Y039507D02*
X015602Y039507D01*
X015622Y039606D02*
X019198Y039606D01*
X019141Y039704D02*
X015622Y039704D01*
X014997Y040000D02*
X014883Y040000D01*
X014944Y040098D02*
X013590Y040098D01*
X013783Y040197D02*
X018955Y040197D01*
X018929Y040295D02*
X013976Y040295D01*
X014169Y040394D02*
X018922Y040394D01*
X018922Y040492D02*
X014362Y040492D01*
X014555Y040591D02*
X018922Y040591D01*
X018922Y040689D02*
X014748Y040689D01*
X014941Y040788D02*
X018923Y040788D01*
X018949Y040886D02*
X015134Y040886D01*
X015327Y040985D02*
X018976Y040985D01*
X019002Y041083D02*
X015520Y041083D01*
X015713Y041182D02*
X019029Y041182D01*
X019071Y041280D02*
X015906Y041280D01*
X016100Y041379D02*
X019128Y041379D01*
X019185Y041477D02*
X016293Y041477D01*
X016486Y041576D02*
X019242Y041576D01*
X019319Y041674D02*
X016679Y041674D01*
X016872Y041773D02*
X019418Y041773D01*
X019516Y041871D02*
X017065Y041871D01*
X017258Y041970D02*
X019628Y041970D01*
X019799Y042068D02*
X017451Y042068D01*
X017644Y042167D02*
X019969Y042167D01*
X020307Y042265D02*
X017837Y042265D01*
X018030Y042364D02*
X023306Y042364D01*
X023113Y042462D02*
X018223Y042462D01*
X018416Y042561D02*
X022920Y042561D01*
X022727Y042659D02*
X018610Y042659D01*
X018803Y042758D02*
X022534Y042758D01*
X022341Y042856D02*
X018996Y042856D01*
X019189Y042955D02*
X022148Y042955D01*
X021955Y043053D02*
X019382Y043053D01*
X019575Y043152D02*
X021761Y043152D01*
X021568Y043250D02*
X019768Y043250D01*
X019961Y043349D02*
X021375Y043349D01*
X021182Y043447D02*
X020154Y043447D01*
X020347Y043546D02*
X020989Y043546D01*
X020796Y043644D02*
X020540Y043644D01*
X021032Y042265D02*
X023499Y042265D01*
X023692Y042167D02*
X021370Y042167D01*
X021540Y042068D02*
X023885Y042068D01*
X024078Y041970D02*
X021711Y041970D01*
X021823Y041871D02*
X024272Y041871D01*
X024465Y041773D02*
X021922Y041773D01*
X022020Y041674D02*
X024658Y041674D01*
X024851Y041576D02*
X022097Y041576D01*
X022154Y041477D02*
X025044Y041477D01*
X025237Y041379D02*
X022211Y041379D01*
X022268Y041280D02*
X025430Y041280D01*
X025623Y041182D02*
X022311Y041182D01*
X022337Y041083D02*
X025816Y041083D01*
X026009Y040985D02*
X022363Y040985D01*
X022390Y040886D02*
X026202Y040886D01*
X026395Y040788D02*
X022416Y040788D01*
X022418Y040689D02*
X026589Y040689D01*
X026782Y040591D02*
X022418Y040591D01*
X022418Y040492D02*
X026975Y040492D01*
X027168Y040394D02*
X022418Y040394D01*
X022410Y040295D02*
X027361Y040295D01*
X027554Y040197D02*
X022384Y040197D01*
X021784Y037931D02*
X021726Y037931D01*
X021726Y037833D02*
X021784Y037833D01*
X021784Y037734D02*
X021708Y037734D01*
X021667Y037636D02*
X021784Y037636D01*
X021784Y037537D02*
X021569Y037537D01*
X019597Y037850D02*
X018558Y036771D01*
X018512Y036771D01*
X017695Y037671D01*
X017883Y038128D02*
X019128Y038128D01*
X019087Y038030D02*
X018036Y038030D01*
X018123Y037931D02*
X019057Y037931D01*
X019057Y037833D02*
X018163Y037833D01*
X018190Y037734D02*
X019060Y037734D01*
X019086Y037636D02*
X018190Y037636D01*
X018176Y037537D02*
X018991Y037537D01*
X018896Y037439D02*
X018203Y037439D01*
X018292Y037340D02*
X018801Y037340D01*
X018512Y036771D02*
X015952Y036771D01*
X015412Y036749D02*
X013087Y036749D01*
X012989Y036651D02*
X015418Y036651D01*
X015394Y036552D02*
X012890Y036552D01*
X012657Y036355D02*
X015197Y036355D01*
X015098Y036257D02*
X012756Y036257D01*
X012559Y036454D02*
X015295Y036454D01*
X015412Y036848D02*
X013186Y036848D01*
X013284Y036946D02*
X015440Y036946D01*
X015481Y037045D02*
X013383Y037045D01*
X013481Y037143D02*
X015560Y037143D01*
X015677Y037242D02*
X013578Y037242D01*
X011955Y038227D02*
X011864Y038227D01*
X011072Y037833D02*
X010981Y037833D01*
X011033Y037734D02*
X011072Y037734D01*
X011086Y037636D02*
X011087Y037636D01*
X009671Y035863D02*
X008725Y035863D01*
X010511Y033484D02*
X011454Y033484D01*
X011867Y030347D02*
X010780Y030347D01*
X010745Y030248D02*
X011815Y030248D01*
X011815Y030150D02*
X010683Y030150D01*
X010629Y029460D02*
X011830Y029460D01*
X012602Y029657D02*
X019187Y029657D01*
X019146Y029756D02*
X012690Y029756D01*
X012788Y029854D02*
X019114Y029854D01*
X019114Y029953D02*
X012815Y029953D01*
X012815Y030051D02*
X019115Y030051D01*
X019156Y030150D02*
X012815Y030150D01*
X012815Y030248D02*
X019197Y030248D01*
X019296Y030347D02*
X012885Y030347D01*
X012701Y029559D02*
X019272Y029559D01*
X019404Y029460D02*
X012799Y029460D01*
X012815Y029362D02*
X021041Y029362D01*
X021077Y029263D02*
X012815Y029263D01*
X012815Y029165D02*
X021140Y029165D01*
X021807Y028869D02*
X022757Y028869D01*
X022658Y028771D02*
X021905Y028771D01*
X021972Y029559D02*
X023138Y029559D01*
X023219Y029657D02*
X021943Y029657D01*
X023117Y029756D02*
X023376Y029756D01*
X023216Y029854D02*
X025354Y029854D01*
X025313Y029953D02*
X023314Y029953D01*
X023413Y030051D02*
X025293Y030051D01*
X025293Y030150D02*
X023511Y030150D01*
X023610Y030248D02*
X025322Y030248D01*
X025364Y030347D02*
X023708Y030347D01*
X023880Y030642D02*
X024555Y030642D01*
X024401Y030741D02*
X023880Y030741D01*
X023880Y030839D02*
X024321Y030839D01*
X024277Y030938D02*
X023905Y030938D01*
X024004Y031036D02*
X024256Y031036D01*
X024256Y031135D02*
X024102Y031135D01*
X024201Y031233D02*
X024277Y031233D01*
X024299Y031332D02*
X024321Y031332D01*
X024398Y031430D02*
X024402Y031430D01*
X024496Y031529D02*
X024557Y031529D01*
X026567Y031430D02*
X026905Y031430D01*
X026905Y031332D02*
X026659Y031332D01*
X026709Y031233D02*
X026905Y031233D01*
X026905Y031135D02*
X026732Y031135D01*
X026730Y031036D02*
X026905Y031036D01*
X026905Y030938D02*
X026706Y030938D01*
X026653Y030839D02*
X026905Y030839D01*
X026905Y030741D02*
X026554Y030741D01*
X026585Y030445D02*
X026905Y030445D01*
X026905Y030347D02*
X026683Y030347D01*
X026725Y030248D02*
X026905Y030248D01*
X026905Y030150D02*
X026753Y030150D01*
X026753Y030051D02*
X026905Y030051D01*
X026905Y029953D02*
X026733Y029953D01*
X026693Y029854D02*
X026905Y029854D01*
X026905Y029756D02*
X026605Y029756D01*
X027991Y029547D02*
X028448Y029090D01*
X029023Y029090D01*
X029570Y029460D02*
X031190Y029460D01*
X031164Y029362D02*
X029668Y029362D01*
X029719Y029263D02*
X031164Y029263D01*
X031171Y029165D02*
X029753Y029165D01*
X029558Y029709D02*
X029685Y029835D01*
X029753Y030001D01*
X029753Y030180D01*
X029685Y030345D01*
X029558Y030472D01*
X029393Y030540D01*
X028654Y030540D01*
X028488Y030472D01*
X028362Y030345D01*
X028293Y030180D01*
X028293Y030001D01*
X028362Y029835D01*
X028488Y029709D01*
X028654Y029640D01*
X029393Y029640D01*
X029558Y029709D01*
X029605Y029756D02*
X031418Y029756D01*
X031308Y029657D02*
X029434Y029657D01*
X029693Y029854D02*
X031276Y029854D01*
X031177Y029953D02*
X029733Y029953D01*
X029753Y030051D02*
X031118Y030051D01*
X031077Y030150D02*
X029753Y030150D01*
X029725Y030248D02*
X031064Y030248D01*
X031064Y030347D02*
X029683Y030347D01*
X029585Y030445D02*
X031084Y030445D01*
X031125Y030544D02*
X028211Y030544D01*
X028211Y030642D02*
X028649Y030642D01*
X028654Y030640D02*
X029393Y030640D01*
X029558Y030709D01*
X029685Y030835D01*
X029753Y031001D01*
X029753Y031180D01*
X029685Y031345D01*
X029558Y031472D01*
X029393Y031540D01*
X028654Y031540D01*
X028488Y031472D01*
X028362Y031345D01*
X028293Y031180D01*
X028293Y031001D01*
X028362Y030835D01*
X028488Y030709D01*
X028654Y030640D01*
X028456Y030741D02*
X028211Y030741D01*
X028211Y030839D02*
X028360Y030839D01*
X028319Y030938D02*
X028211Y030938D01*
X028211Y031036D02*
X028293Y031036D01*
X028293Y031135D02*
X028211Y031135D01*
X028211Y031233D02*
X028316Y031233D01*
X028356Y031332D02*
X028211Y031332D01*
X028211Y031430D02*
X028447Y031430D01*
X028626Y031529D02*
X028211Y031529D01*
X028211Y031627D02*
X029884Y031627D01*
X029884Y031726D02*
X029533Y031726D01*
X029529Y031723D02*
X029583Y031762D01*
X029631Y031810D01*
X029671Y031865D01*
X029702Y031925D01*
X029723Y031990D01*
X029733Y032056D01*
X029733Y032060D01*
X029053Y032060D01*
X029053Y031660D01*
X029337Y031660D01*
X029404Y031671D01*
X029468Y031692D01*
X029529Y031723D01*
X029642Y031824D02*
X029911Y031824D01*
X029952Y031923D02*
X029701Y031923D01*
X029728Y032021D02*
X030039Y032021D01*
X030192Y032120D02*
X029053Y032120D01*
X028993Y032120D01*
X028211Y032120D01*
X028211Y032218D02*
X028333Y032218D01*
X028324Y032191D02*
X028345Y032255D01*
X028376Y032316D01*
X028415Y032370D01*
X028463Y032418D01*
X028518Y032458D01*
X028578Y032489D01*
X028643Y032510D01*
X028709Y032520D01*
X028993Y032520D01*
X028993Y032120D01*
X028993Y032060D01*
X029053Y032060D01*
X029053Y032120D01*
X029053Y032520D01*
X029337Y032520D01*
X029404Y032510D01*
X029468Y032489D01*
X029529Y032458D01*
X029583Y032418D01*
X029631Y032370D01*
X029671Y032316D01*
X029702Y032255D01*
X029723Y032191D01*
X029733Y032124D01*
X029733Y032120D01*
X029053Y032120D01*
X028993Y032120D02*
X028313Y032120D01*
X028313Y032124D01*
X028324Y032191D01*
X028313Y032060D02*
X028313Y032056D01*
X028324Y031990D01*
X028345Y031925D01*
X028376Y031865D01*
X028415Y031810D01*
X028463Y031762D01*
X028518Y031723D01*
X028578Y031692D01*
X028643Y031671D01*
X028709Y031660D01*
X028993Y031660D01*
X028993Y032060D01*
X028313Y032060D01*
X028319Y032021D02*
X028211Y032021D01*
X028211Y031923D02*
X028346Y031923D01*
X028405Y031824D02*
X028211Y031824D01*
X028211Y031726D02*
X028513Y031726D01*
X028993Y031726D02*
X029053Y031726D01*
X029053Y031824D02*
X028993Y031824D01*
X028993Y031923D02*
X029053Y031923D01*
X029053Y032021D02*
X028993Y032021D01*
X028993Y032218D02*
X029053Y032218D01*
X029053Y032317D02*
X028993Y032317D01*
X028993Y032415D02*
X029053Y032415D01*
X029053Y032514D02*
X028993Y032514D01*
X028670Y032514D02*
X028211Y032514D01*
X028211Y032612D02*
X029906Y032612D01*
X029904Y032624D02*
X029916Y032551D01*
X029939Y032480D01*
X029973Y032413D01*
X030017Y032352D01*
X030070Y032300D01*
X030130Y032256D01*
X030197Y032222D01*
X030268Y032199D01*
X030342Y032187D01*
X030360Y032187D01*
X030360Y032643D01*
X029904Y032643D01*
X029904Y032624D01*
X029904Y032681D02*
X030360Y032681D01*
X030360Y032643D01*
X030398Y032643D01*
X030398Y032681D01*
X030360Y032681D01*
X030360Y033137D01*
X030342Y033137D01*
X030268Y033125D01*
X030197Y033102D01*
X030130Y033068D01*
X030070Y033024D01*
X030017Y032971D01*
X029973Y032911D01*
X029939Y032844D01*
X029916Y032773D01*
X029904Y032699D01*
X029904Y032681D01*
X029906Y032711D02*
X029560Y032711D01*
X029558Y032709D02*
X029685Y032835D01*
X029729Y032943D01*
X029786Y032999D01*
X030838Y034052D01*
X034015Y034052D01*
X034144Y034181D01*
X034857Y034893D01*
X034943Y034857D01*
X035157Y034857D01*
X035356Y034939D01*
X035508Y035091D01*
X035590Y035290D01*
X035590Y035505D01*
X035508Y035703D01*
X035356Y035855D01*
X035157Y035937D01*
X034943Y035937D01*
X034754Y035859D01*
X034754Y036062D01*
X034672Y036261D01*
X034520Y036413D01*
X034321Y036495D01*
X034107Y036495D01*
X033908Y036413D01*
X033824Y036329D01*
X033824Y036444D01*
X033742Y036642D01*
X033590Y036794D01*
X033391Y036876D01*
X033177Y036876D01*
X032988Y036798D01*
X032988Y037001D01*
X032906Y037200D01*
X032754Y037352D01*
X032555Y037434D01*
X032341Y037434D01*
X032142Y037352D01*
X032058Y037268D01*
X032058Y037383D01*
X031976Y037581D01*
X031824Y037733D01*
X031626Y037815D01*
X031411Y037815D01*
X031222Y037737D01*
X031222Y037940D01*
X031140Y038139D01*
X030988Y038291D01*
X030790Y038373D01*
X030575Y038373D01*
X030376Y038291D01*
X030224Y038139D01*
X030189Y038053D01*
X029753Y038053D01*
X029753Y038180D01*
X029685Y038345D01*
X029558Y038472D01*
X029393Y038540D01*
X028654Y038540D01*
X028488Y038472D01*
X028362Y038345D01*
X028293Y038180D01*
X028293Y038001D01*
X028362Y037835D01*
X028488Y037709D01*
X028654Y037640D01*
X029162Y037640D01*
X029190Y037613D01*
X030189Y037613D01*
X030224Y037527D01*
X030256Y037495D01*
X029502Y037495D01*
X029393Y037540D01*
X028654Y037540D01*
X028488Y037472D01*
X028362Y037345D01*
X028293Y037180D01*
X028293Y037001D01*
X028362Y036835D01*
X028488Y036709D01*
X028654Y036640D01*
X029393Y036640D01*
X029558Y036709D01*
X029685Y036835D01*
X029753Y037001D01*
X029753Y037055D01*
X031025Y037055D01*
X031060Y036969D01*
X031212Y036817D01*
X031411Y036735D01*
X031626Y036735D01*
X031824Y036817D01*
X031908Y036901D01*
X031908Y036787D01*
X031944Y036701D01*
X031553Y036310D01*
X029699Y036310D01*
X029685Y036345D01*
X029558Y036472D01*
X029393Y036540D01*
X028654Y036540D01*
X028488Y036472D01*
X028362Y036345D01*
X028293Y036180D01*
X028293Y036001D01*
X028362Y035835D01*
X028488Y035709D01*
X028654Y035640D01*
X029393Y035640D01*
X029558Y035709D01*
X029685Y035835D01*
X029699Y035870D01*
X031735Y035870D01*
X031864Y035999D01*
X032255Y036390D01*
X032341Y036354D01*
X032555Y036354D01*
X032744Y036432D01*
X032744Y036229D01*
X032780Y036143D01*
X032309Y035673D01*
X030262Y035673D01*
X029900Y035310D01*
X029699Y035310D01*
X029685Y035345D01*
X029558Y035472D01*
X029393Y035540D01*
X028654Y035540D01*
X028488Y035472D01*
X028362Y035345D01*
X028293Y035180D01*
X028293Y035001D01*
X028362Y034835D01*
X028488Y034709D01*
X028654Y034640D01*
X029393Y034640D01*
X029558Y034709D01*
X029685Y034835D01*
X029699Y034870D01*
X030082Y034870D01*
X030211Y034999D01*
X030444Y035233D01*
X032492Y035233D01*
X033091Y035832D01*
X033177Y035796D01*
X033391Y035796D01*
X033590Y035878D01*
X033674Y035962D01*
X033674Y035848D01*
X033710Y035762D01*
X033069Y035122D01*
X030632Y035122D01*
X030544Y035124D01*
X030542Y035122D01*
X030538Y035122D01*
X030476Y035059D01*
X029872Y034492D01*
X029868Y034492D01*
X029806Y034430D01*
X029742Y034369D01*
X029742Y034366D01*
X029696Y034319D01*
X029685Y034345D01*
X029558Y034472D01*
X029393Y034540D01*
X028654Y034540D01*
X028488Y034472D01*
X028362Y034345D01*
X028293Y034180D01*
X028293Y034001D01*
X028362Y033835D01*
X028488Y033709D01*
X028654Y033640D01*
X029393Y033640D01*
X029558Y033709D01*
X029685Y033835D01*
X029699Y033870D01*
X029869Y033870D01*
X029998Y033999D01*
X030113Y034114D01*
X030716Y034682D01*
X033252Y034682D01*
X034021Y035451D01*
X034107Y035415D01*
X034321Y035415D01*
X034510Y035493D01*
X034510Y035290D01*
X034546Y035204D01*
X033833Y034492D01*
X030656Y034492D01*
X030527Y034363D01*
X029597Y033433D01*
X029558Y033472D01*
X029393Y033540D01*
X028654Y033540D01*
X028488Y033472D01*
X028362Y033345D01*
X028293Y033180D01*
X028293Y033001D01*
X028362Y032835D01*
X028488Y032709D01*
X028654Y032640D01*
X029393Y032640D01*
X029558Y032709D01*
X029659Y032809D02*
X029928Y032809D01*
X029972Y032908D02*
X029715Y032908D01*
X029786Y032999D02*
X029786Y032999D01*
X029793Y033006D02*
X030052Y033006D01*
X030206Y033105D02*
X029891Y033105D01*
X029990Y033203D02*
X031164Y033203D01*
X031164Y033302D02*
X030088Y033302D01*
X030187Y033400D02*
X031165Y033400D01*
X031206Y033499D02*
X030285Y033499D01*
X030384Y033597D02*
X031248Y033597D01*
X031346Y033696D02*
X030482Y033696D01*
X030581Y033794D02*
X031511Y033794D01*
X031897Y033794D02*
X033897Y033794D01*
X033799Y033696D02*
X032062Y033696D01*
X032160Y033597D02*
X033700Y033597D01*
X033602Y033499D02*
X032202Y033499D01*
X032243Y033400D02*
X033503Y033400D01*
X033405Y033302D02*
X032244Y033302D01*
X032244Y033203D02*
X033306Y033203D01*
X033208Y033105D02*
X032212Y033105D01*
X032171Y033006D02*
X033109Y033006D01*
X033011Y032908D02*
X032086Y032908D01*
X031955Y032809D02*
X032912Y032809D01*
X032814Y032711D02*
X031909Y032711D01*
X032012Y032612D02*
X032715Y032612D01*
X032617Y032514D02*
X032073Y032514D01*
X032110Y032415D02*
X032518Y032415D01*
X032420Y032317D02*
X031654Y032317D01*
X032119Y032218D02*
X032321Y032218D01*
X032223Y032120D02*
X032095Y032120D01*
X032124Y032021D02*
X032051Y032021D01*
X032026Y031923D02*
X031972Y031923D01*
X031927Y031824D02*
X031836Y031824D01*
X032254Y031529D02*
X033344Y031529D01*
X033246Y031430D02*
X032230Y031430D01*
X032244Y031332D02*
X033147Y031332D01*
X033049Y031233D02*
X032244Y031233D01*
X032224Y031135D02*
X032950Y031135D01*
X032852Y031036D02*
X032183Y031036D01*
X032116Y030938D02*
X032753Y030938D01*
X032655Y030839D02*
X032017Y030839D01*
X031917Y030741D02*
X032556Y030741D01*
X032458Y030642D02*
X032015Y030642D01*
X032083Y030544D02*
X032359Y030544D01*
X032361Y030290D02*
X033938Y028713D01*
X035831Y028713D01*
X036494Y029362D02*
X039853Y029362D01*
X039853Y029460D02*
X036395Y029460D01*
X036297Y029559D02*
X039853Y029559D01*
X039853Y029657D02*
X036198Y029657D01*
X036100Y029756D02*
X036485Y029756D01*
X036396Y029854D02*
X036001Y029854D01*
X035903Y029953D02*
X036355Y029953D01*
X036343Y030051D02*
X035804Y030051D01*
X035706Y030150D02*
X036349Y030150D01*
X036390Y030248D02*
X035607Y030248D01*
X035509Y030347D02*
X036470Y030347D01*
X036650Y030445D02*
X035410Y030445D01*
X035312Y030544D02*
X036897Y030544D01*
X036897Y030642D02*
X035213Y030642D01*
X035115Y030741D02*
X036897Y030741D01*
X036897Y030839D02*
X035016Y030839D01*
X034918Y030938D02*
X036897Y030938D01*
X036893Y031036D02*
X034819Y031036D01*
X034721Y031135D02*
X035823Y031135D01*
X035725Y031233D02*
X034639Y031233D01*
X034639Y031332D02*
X035626Y031332D01*
X035597Y031430D02*
X034608Y031430D01*
X034550Y031529D02*
X036067Y031529D01*
X036067Y031430D02*
X036167Y031430D01*
X036167Y031332D02*
X036067Y031332D01*
X036067Y031233D02*
X036167Y031233D01*
X036167Y031135D02*
X036067Y031135D01*
X036412Y031135D02*
X036795Y031135D01*
X036696Y031233D02*
X036510Y031233D01*
X037117Y031576D02*
X037117Y030445D01*
X036731Y030059D01*
X037119Y030051D02*
X039854Y030051D01*
X039854Y029953D02*
X037107Y029953D01*
X037066Y029854D02*
X039853Y029854D01*
X039853Y029756D02*
X036977Y029756D01*
X037133Y030150D02*
X039854Y030150D01*
X039854Y030248D02*
X037232Y030248D01*
X037330Y030347D02*
X039854Y030347D01*
X039854Y030445D02*
X037337Y030445D01*
X037337Y030544D02*
X039854Y030544D01*
X039854Y030642D02*
X037337Y030642D01*
X037337Y030741D02*
X039854Y030741D01*
X039854Y030839D02*
X037337Y030839D01*
X037337Y030938D02*
X039855Y030938D01*
X039855Y031036D02*
X038341Y031036D01*
X038440Y031135D02*
X039855Y031135D01*
X039855Y031233D02*
X038538Y031233D01*
X038637Y031332D02*
X039855Y031332D01*
X039855Y031430D02*
X038657Y031430D01*
X038657Y031529D02*
X039855Y031529D01*
X039855Y031627D02*
X038657Y031627D01*
X038657Y031726D02*
X039855Y031726D01*
X039855Y031824D02*
X038633Y031824D01*
X038534Y031923D02*
X039855Y031923D01*
X039856Y032021D02*
X038436Y032021D01*
X038425Y032120D02*
X039856Y032120D01*
X039856Y032218D02*
X038523Y032218D01*
X038622Y032317D02*
X039856Y032317D01*
X039856Y032415D02*
X038657Y032415D01*
X038657Y032514D02*
X039856Y032514D01*
X039856Y032612D02*
X038657Y032612D01*
X038657Y032711D02*
X039856Y032711D01*
X039856Y032809D02*
X038648Y032809D01*
X038549Y032908D02*
X039856Y032908D01*
X039857Y033006D02*
X038451Y033006D01*
X038352Y033105D02*
X039857Y033105D01*
X039857Y033203D02*
X037337Y033203D01*
X037337Y033302D02*
X039857Y033302D01*
X039857Y033400D02*
X037337Y033400D01*
X037337Y033499D02*
X039857Y033499D01*
X039857Y033597D02*
X037244Y033597D01*
X037146Y033696D02*
X039857Y033696D01*
X039857Y033794D02*
X037047Y033794D01*
X036949Y033893D02*
X039857Y033893D01*
X039718Y033991D02*
X036850Y033991D01*
X036752Y034090D02*
X039525Y034090D01*
X039332Y034188D02*
X036653Y034188D01*
X036555Y034287D02*
X039139Y034287D01*
X038946Y034385D02*
X036456Y034385D01*
X036358Y034484D02*
X038753Y034484D01*
X038560Y034582D02*
X034546Y034582D01*
X034587Y034484D02*
X034448Y034484D01*
X034488Y034385D02*
X034349Y034385D01*
X034390Y034287D02*
X034251Y034287D01*
X034291Y034188D02*
X034152Y034188D01*
X034193Y034090D02*
X034054Y034090D01*
X034094Y033991D02*
X030778Y033991D01*
X030679Y033893D02*
X033996Y033893D01*
X033924Y034272D02*
X033897Y034272D01*
X033503Y034272D01*
X030747Y034272D01*
X029566Y033090D01*
X029023Y033090D01*
X029493Y033499D02*
X029663Y033499D01*
X029762Y033597D02*
X028211Y033597D01*
X028211Y033499D02*
X028554Y033499D01*
X028417Y033400D02*
X028211Y033400D01*
X028211Y033302D02*
X028344Y033302D01*
X028303Y033203D02*
X028211Y033203D01*
X028211Y033105D02*
X028293Y033105D01*
X028293Y033006D02*
X028211Y033006D01*
X028211Y032908D02*
X028332Y032908D01*
X028388Y032809D02*
X028211Y032809D01*
X028211Y032711D02*
X028486Y032711D01*
X028460Y032415D02*
X028211Y032415D01*
X028211Y032317D02*
X028376Y032317D01*
X029377Y032514D02*
X029928Y032514D01*
X029972Y032415D02*
X029586Y032415D01*
X029670Y032317D02*
X030053Y032317D01*
X030207Y032218D02*
X029714Y032218D01*
X030360Y032218D02*
X030398Y032218D01*
X030398Y032317D02*
X030360Y032317D01*
X030360Y032415D02*
X030398Y032415D01*
X030398Y032514D02*
X030360Y032514D01*
X030360Y032612D02*
X030398Y032612D01*
X030398Y032681D02*
X030854Y032681D01*
X030854Y032699D01*
X030843Y032773D01*
X030820Y032844D01*
X030786Y032911D01*
X030742Y032971D01*
X030689Y033024D01*
X030628Y033068D01*
X030562Y033102D01*
X030491Y033125D01*
X030417Y033137D01*
X030398Y033137D01*
X030398Y032681D01*
X030398Y032711D02*
X030360Y032711D01*
X030360Y032809D02*
X030398Y032809D01*
X030398Y032908D02*
X030360Y032908D01*
X030360Y033006D02*
X030398Y033006D01*
X030398Y033105D02*
X030360Y033105D01*
X030553Y033105D02*
X031196Y033105D01*
X031190Y033006D02*
X030707Y033006D01*
X030787Y032908D02*
X031110Y032908D01*
X031029Y032809D02*
X030831Y032809D01*
X030853Y032711D02*
X030949Y032711D01*
X030869Y032612D02*
X030852Y032612D01*
X031036Y032120D02*
X031112Y032120D01*
X031157Y032021D02*
X030956Y032021D01*
X030875Y031923D02*
X031236Y031923D01*
X031372Y031824D02*
X030848Y031824D01*
X030874Y031726D02*
X031376Y031726D01*
X031278Y031627D02*
X030874Y031627D01*
X030860Y031529D02*
X031218Y031529D01*
X031178Y031430D02*
X030819Y031430D01*
X030750Y031332D02*
X031164Y031332D01*
X031164Y031233D02*
X030639Y031233D01*
X030379Y031662D02*
X031704Y033290D01*
X030550Y034385D02*
X030401Y034385D01*
X030451Y034287D02*
X030297Y034287D01*
X030353Y034188D02*
X030192Y034188D01*
X030254Y034090D02*
X030089Y034090D01*
X030156Y033991D02*
X029990Y033991D01*
X030057Y033893D02*
X029892Y033893D01*
X029959Y033794D02*
X029644Y033794D01*
X029527Y033696D02*
X029860Y033696D01*
X029778Y034090D02*
X029023Y034090D01*
X029529Y034484D02*
X029861Y034484D01*
X029759Y034385D02*
X029645Y034385D01*
X029778Y034090D02*
X029959Y034272D01*
X030629Y034902D01*
X033160Y034902D01*
X034214Y035955D01*
X034714Y036158D02*
X035470Y036158D01*
X035277Y036257D02*
X034673Y036257D01*
X034577Y036355D02*
X035084Y036355D01*
X034891Y036454D02*
X034421Y036454D01*
X034505Y036651D02*
X033733Y036651D01*
X033779Y036552D02*
X034698Y036552D01*
X034312Y036749D02*
X033634Y036749D01*
X033460Y036848D02*
X034119Y036848D01*
X033926Y036946D02*
X032988Y036946D01*
X032988Y036848D02*
X033108Y036848D01*
X032970Y037045D02*
X033733Y037045D01*
X033540Y037143D02*
X032929Y037143D01*
X032864Y037242D02*
X033346Y037242D01*
X033153Y037340D02*
X032765Y037340D01*
X032767Y037537D02*
X031994Y037537D01*
X032035Y037439D02*
X032960Y037439D01*
X032574Y037636D02*
X031921Y037636D01*
X031820Y037734D02*
X032381Y037734D01*
X032188Y037833D02*
X031222Y037833D01*
X031222Y037931D02*
X031995Y037931D01*
X031802Y038030D02*
X031185Y038030D01*
X031144Y038128D02*
X031609Y038128D01*
X031416Y038227D02*
X031052Y038227D01*
X030904Y038325D02*
X031223Y038325D01*
X031029Y038424D02*
X029606Y038424D01*
X029693Y038325D02*
X030460Y038325D01*
X030313Y038227D02*
X029734Y038227D01*
X029753Y038128D02*
X030220Y038128D01*
X030682Y037833D02*
X029281Y037833D01*
X029023Y038090D01*
X029166Y037636D02*
X028211Y037636D01*
X028211Y037734D02*
X028463Y037734D01*
X028364Y037833D02*
X028211Y037833D01*
X028211Y037931D02*
X028322Y037931D01*
X028293Y038030D02*
X028211Y038030D01*
X028211Y038128D02*
X028293Y038128D01*
X028313Y038227D02*
X028211Y038227D01*
X028211Y038325D02*
X028354Y038325D01*
X028441Y038424D02*
X028211Y038424D01*
X028211Y038522D02*
X028611Y038522D01*
X028211Y038621D02*
X030643Y038621D01*
X030450Y038719D02*
X028185Y038719D01*
X028087Y038818D02*
X030257Y038818D01*
X030064Y038916D02*
X027988Y038916D01*
X027890Y039015D02*
X029871Y039015D01*
X029436Y038522D02*
X030836Y038522D01*
X030220Y037537D02*
X029400Y037537D01*
X029208Y037275D02*
X031518Y037275D01*
X031029Y037045D02*
X029753Y037045D01*
X029731Y036946D02*
X031083Y036946D01*
X031182Y036848D02*
X029690Y036848D01*
X029599Y036749D02*
X031376Y036749D01*
X031660Y036749D02*
X031923Y036749D01*
X031908Y036848D02*
X031855Y036848D01*
X031894Y036651D02*
X029419Y036651D01*
X029576Y036454D02*
X031697Y036454D01*
X031795Y036552D02*
X028211Y036552D01*
X028211Y036454D02*
X028471Y036454D01*
X028372Y036355D02*
X028211Y036355D01*
X028211Y036257D02*
X028325Y036257D01*
X028293Y036158D02*
X028211Y036158D01*
X028211Y036060D02*
X028293Y036060D01*
X028310Y035961D02*
X028211Y035961D01*
X028211Y035863D02*
X028350Y035863D01*
X028433Y035764D02*
X028211Y035764D01*
X028211Y035666D02*
X028592Y035666D01*
X028486Y035469D02*
X028211Y035469D01*
X028211Y035567D02*
X030157Y035567D01*
X030058Y035469D02*
X029561Y035469D01*
X029660Y035370D02*
X029960Y035370D01*
X029991Y035090D02*
X029023Y035090D01*
X029491Y034681D02*
X030073Y034681D01*
X029969Y034582D02*
X028211Y034582D01*
X028211Y034484D02*
X028518Y034484D01*
X028402Y034385D02*
X028211Y034385D01*
X028211Y034287D02*
X028338Y034287D01*
X028297Y034188D02*
X028211Y034188D01*
X028211Y034090D02*
X028293Y034090D01*
X028297Y033991D02*
X028211Y033991D01*
X028211Y033893D02*
X028338Y033893D01*
X028403Y033794D02*
X028211Y033794D01*
X028211Y033696D02*
X028519Y033696D01*
X027715Y034154D02*
X027715Y025098D01*
X028385Y024429D01*
X031141Y024429D01*
X032322Y025610D01*
X033109Y025610D01*
X035212Y027713D01*
X035831Y027713D01*
X035487Y027293D02*
X035103Y027293D01*
X035005Y027195D02*
X035586Y027195D01*
X035389Y027392D02*
X035202Y027392D01*
X034906Y027096D02*
X039618Y027096D01*
X039528Y026998D02*
X034808Y026998D01*
X034709Y026899D02*
X039438Y026899D01*
X039348Y026801D02*
X034611Y026801D01*
X034512Y026702D02*
X039258Y026702D01*
X039168Y026604D02*
X034414Y026604D01*
X034315Y026505D02*
X039079Y026505D01*
X038989Y026407D02*
X034217Y026407D01*
X034118Y026308D02*
X038899Y026308D01*
X038809Y026210D02*
X034020Y026210D01*
X033921Y026111D02*
X038719Y026111D01*
X038629Y026013D02*
X033823Y026013D01*
X033724Y025914D02*
X034598Y025914D01*
X034503Y025816D02*
X033626Y025816D01*
X033527Y025717D02*
X034408Y025717D01*
X034313Y025619D02*
X033429Y025619D01*
X033330Y025520D02*
X034218Y025520D01*
X034123Y025422D02*
X033232Y025422D01*
X033649Y024929D02*
X031952Y024929D01*
X031854Y024831D02*
X033554Y024831D01*
X033460Y024732D02*
X031755Y024732D01*
X031657Y024634D02*
X033365Y024634D01*
X033270Y024535D02*
X031558Y024535D01*
X031460Y024437D02*
X033175Y024437D01*
X033148Y024338D02*
X031361Y024338D01*
X031263Y024240D02*
X033148Y024240D01*
X033148Y024141D02*
X027620Y024141D01*
X027620Y024043D02*
X033148Y024043D01*
X033148Y023944D02*
X027620Y023944D01*
X027620Y023846D02*
X033148Y023846D01*
X033148Y023747D02*
X027620Y023747D01*
X027620Y023649D02*
X033148Y023649D01*
X033148Y023550D02*
X027620Y023550D01*
X027620Y023452D02*
X033148Y023452D01*
X033148Y023353D02*
X027620Y023353D01*
X027620Y023255D02*
X033148Y023255D01*
X033148Y023156D02*
X027620Y023156D01*
X027620Y023058D02*
X033148Y023058D01*
X033148Y022959D02*
X027620Y022959D01*
X027620Y022861D02*
X033148Y022861D01*
X033148Y022762D02*
X027620Y022762D01*
X027620Y022664D02*
X033148Y022664D01*
X033148Y022565D02*
X027620Y022565D01*
X027620Y022467D02*
X033148Y022467D01*
X033148Y022368D02*
X027620Y022368D01*
X027620Y022270D02*
X033148Y022270D01*
X033148Y022171D02*
X027620Y022171D01*
X027620Y022073D02*
X033148Y022073D01*
X033148Y021974D02*
X027620Y021974D01*
X027620Y021876D02*
X033148Y021876D01*
X033148Y021777D02*
X027620Y021777D01*
X027620Y021679D02*
X033070Y021679D01*
X032987Y021580D02*
X027620Y021580D01*
X027620Y021482D02*
X032904Y021482D01*
X032821Y021383D02*
X027579Y021383D01*
X027481Y021285D02*
X032738Y021285D01*
X032655Y021186D02*
X027382Y021186D01*
X027284Y021088D02*
X032571Y021088D01*
X032488Y020989D02*
X029682Y020989D01*
X029640Y021007D02*
X029425Y021007D01*
X029227Y020924D01*
X029075Y020772D01*
X028993Y020574D01*
X028993Y020359D01*
X029075Y020161D01*
X029227Y020009D01*
X029425Y019927D01*
X029640Y019927D01*
X029839Y020009D01*
X029991Y020161D01*
X030073Y020359D01*
X030073Y020574D01*
X029991Y020772D01*
X029839Y020924D01*
X029640Y021007D01*
X029384Y020989D02*
X027185Y020989D01*
X027087Y020891D02*
X029193Y020891D01*
X029095Y020792D02*
X027279Y020792D01*
X027472Y020694D02*
X029042Y020694D01*
X029002Y020595D02*
X027666Y020595D01*
X027859Y020497D02*
X028993Y020497D01*
X028993Y020398D02*
X028052Y020398D01*
X028246Y020300D02*
X029017Y020300D01*
X029058Y020201D02*
X028439Y020201D01*
X028633Y020103D02*
X029133Y020103D01*
X029237Y020004D02*
X028826Y020004D01*
X029019Y019906D02*
X031574Y019906D01*
X031657Y020004D02*
X029828Y020004D01*
X029933Y020103D02*
X031740Y020103D01*
X031823Y020201D02*
X030007Y020201D01*
X030048Y020300D02*
X031906Y020300D01*
X031990Y020398D02*
X030073Y020398D01*
X030073Y020497D02*
X032073Y020497D01*
X032156Y020595D02*
X030064Y020595D01*
X030023Y020694D02*
X032239Y020694D01*
X032322Y020792D02*
X029971Y020792D01*
X029872Y020891D02*
X032405Y020891D01*
X031491Y019807D02*
X029213Y019807D01*
X029406Y019709D02*
X031408Y019709D01*
X031324Y019610D02*
X029600Y019610D01*
X029793Y019512D02*
X031241Y019512D01*
X031158Y019413D02*
X029986Y019413D01*
X030180Y019315D02*
X031075Y019315D01*
X030992Y019216D02*
X030373Y019216D01*
X030567Y019118D02*
X030909Y019118D01*
X030826Y019019D02*
X030760Y019019D01*
X027400Y021516D02*
X025904Y020020D01*
X021849Y020020D01*
X021141Y019311D01*
X021141Y019295D01*
X022642Y023156D02*
X022864Y023156D01*
X022962Y023255D02*
X022449Y023255D01*
X022256Y023353D02*
X023061Y023353D01*
X023159Y023452D02*
X022062Y023452D01*
X021869Y023550D02*
X023258Y023550D01*
X023356Y023649D02*
X021676Y023649D01*
X021483Y023747D02*
X023455Y023747D01*
X023553Y023846D02*
X021290Y023846D01*
X021096Y023944D02*
X023652Y023944D01*
X023750Y024043D02*
X020903Y024043D01*
X020710Y024141D02*
X023831Y024141D01*
X022637Y026210D02*
X022619Y026210D01*
X021519Y026998D02*
X021481Y026998D01*
X021481Y027096D02*
X021519Y027096D01*
X021519Y027195D02*
X021481Y027195D01*
X021481Y027293D02*
X021519Y027293D01*
X021519Y027490D02*
X021481Y027490D01*
X021481Y027589D02*
X021519Y027589D01*
X021519Y027687D02*
X021481Y027687D01*
X021034Y027293D02*
X018762Y027293D01*
X018817Y027195D02*
X021064Y027195D01*
X021122Y027096D02*
X018906Y027096D01*
X018995Y026998D02*
X021224Y026998D01*
X019746Y024682D02*
X019741Y024682D01*
X019419Y024240D02*
X018368Y024240D01*
X018368Y024141D02*
X019975Y024141D01*
X020074Y024043D02*
X018368Y024043D01*
X018368Y023944D02*
X020172Y023944D01*
X020072Y023846D02*
X018368Y023846D01*
X018368Y023747D02*
X019880Y023747D01*
X019687Y023649D02*
X018452Y023649D01*
X018551Y023550D02*
X019495Y023550D01*
X019302Y023452D02*
X018649Y023452D01*
X018748Y023353D02*
X019109Y023353D01*
X018917Y023255D02*
X018846Y023255D01*
X020598Y024141D02*
X020650Y024141D01*
X024719Y026693D02*
X024719Y027193D01*
X025617Y028090D01*
X025540Y027687D02*
X025525Y027687D01*
X027935Y027786D02*
X028411Y027786D01*
X028341Y027884D02*
X027935Y027884D01*
X027935Y027983D02*
X028301Y027983D01*
X028293Y028081D02*
X027935Y028081D01*
X027935Y028180D02*
X028293Y028180D01*
X028334Y028278D02*
X027935Y028278D01*
X027935Y028377D02*
X028394Y028377D01*
X028497Y028475D02*
X027935Y028475D01*
X028389Y029460D02*
X028477Y029460D01*
X028290Y029559D02*
X031231Y029559D01*
X031604Y030290D02*
X032361Y030290D01*
X032416Y030290D01*
X035769Y033643D01*
X035412Y033794D02*
X034520Y033794D01*
X034421Y033696D02*
X035381Y033696D01*
X035381Y033597D02*
X034323Y033597D01*
X034224Y033499D02*
X035314Y033499D01*
X035216Y033400D02*
X034126Y033400D01*
X034027Y033302D02*
X035117Y033302D01*
X035019Y033203D02*
X033929Y033203D01*
X033830Y033105D02*
X034920Y033105D01*
X034822Y033006D02*
X033732Y033006D01*
X033633Y032908D02*
X034723Y032908D01*
X034625Y032809D02*
X033535Y032809D01*
X033436Y032711D02*
X034526Y032711D01*
X034428Y032612D02*
X033338Y032612D01*
X033239Y032514D02*
X034329Y032514D01*
X034231Y032415D02*
X033141Y032415D01*
X033042Y032317D02*
X034132Y032317D01*
X034034Y032218D02*
X032944Y032218D01*
X032845Y032120D02*
X033935Y032120D01*
X033837Y032021D02*
X032747Y032021D01*
X032648Y031923D02*
X033738Y031923D01*
X033640Y031824D02*
X032550Y031824D01*
X032451Y031726D02*
X033541Y031726D01*
X033443Y031627D02*
X032353Y031627D01*
X031704Y031290D02*
X034686Y034272D01*
X036259Y034272D01*
X037117Y033413D01*
X037117Y032576D01*
X036784Y033006D02*
X036451Y033006D01*
X036549Y032908D02*
X036685Y032908D01*
X036882Y033105D02*
X036352Y033105D01*
X036076Y033400D02*
X036819Y033400D01*
X036897Y033302D02*
X035960Y033302D01*
X035882Y033105D02*
X035543Y033105D01*
X035641Y033203D02*
X036897Y033203D01*
X036720Y033499D02*
X036130Y033499D01*
X036157Y033597D02*
X036622Y033597D01*
X036523Y033696D02*
X036157Y033696D01*
X036127Y033794D02*
X036425Y033794D01*
X036326Y033893D02*
X036068Y033893D01*
X035942Y033991D02*
X036228Y033991D01*
X035597Y033991D02*
X034717Y033991D01*
X034618Y033893D02*
X035471Y033893D01*
X035444Y033006D02*
X035784Y033006D01*
X035685Y032908D02*
X035346Y032908D01*
X035247Y032809D02*
X035587Y032809D01*
X035577Y032711D02*
X035149Y032711D01*
X035050Y032612D02*
X035577Y032612D01*
X035577Y032514D02*
X034952Y032514D01*
X034853Y032415D02*
X035577Y032415D01*
X035613Y032317D02*
X034755Y032317D01*
X034656Y032218D02*
X035711Y032218D01*
X035810Y032120D02*
X034558Y032120D01*
X034459Y032021D02*
X035827Y032021D01*
X035729Y031923D02*
X034361Y031923D01*
X034262Y031824D02*
X035630Y031824D01*
X035597Y031726D02*
X034164Y031726D01*
X034077Y031627D02*
X034065Y031627D01*
X034425Y031627D02*
X035597Y031627D01*
X034265Y031280D02*
X036831Y028713D01*
X037242Y029066D02*
X037421Y029066D01*
X037519Y029165D02*
X037143Y029165D01*
X036592Y029263D02*
X039853Y029263D01*
X039853Y029165D02*
X039115Y029165D01*
X039213Y029066D02*
X039853Y029066D01*
X039853Y028968D02*
X039312Y028968D01*
X039351Y028869D02*
X039852Y028869D01*
X039852Y028771D02*
X039351Y028771D01*
X039351Y028574D02*
X039852Y028574D01*
X039852Y028672D02*
X038881Y028672D01*
X038881Y028771D02*
X038781Y028771D01*
X038781Y028869D02*
X038881Y028869D01*
X038881Y028968D02*
X038781Y028968D01*
X038781Y029066D02*
X038881Y029066D01*
X038881Y029165D02*
X038781Y029165D01*
X038547Y029165D02*
X038143Y029165D01*
X038242Y029066D02*
X038449Y029066D01*
X038350Y028968D02*
X038340Y028968D01*
X039132Y028278D02*
X039852Y028278D01*
X039852Y028180D02*
X039128Y028180D01*
X039227Y028081D02*
X039852Y028081D01*
X039852Y027983D02*
X039325Y027983D01*
X039371Y027884D02*
X039851Y027884D01*
X039851Y027786D02*
X039371Y027786D01*
X039371Y027687D02*
X039851Y027687D01*
X039851Y027589D02*
X039371Y027589D01*
X039371Y027490D02*
X039851Y027490D01*
X039851Y027392D02*
X039273Y027392D01*
X039175Y027293D02*
X039798Y027293D01*
X039708Y027195D02*
X039076Y027195D01*
X038586Y027195D02*
X038076Y027195D01*
X038175Y027293D02*
X038487Y027293D01*
X038389Y027392D02*
X038273Y027392D01*
X037586Y027195D02*
X037076Y027195D01*
X037175Y027293D02*
X037487Y027293D01*
X037389Y027392D02*
X037273Y027392D01*
X036586Y027195D02*
X036076Y027195D01*
X036175Y027293D02*
X036487Y027293D01*
X036389Y027392D02*
X036273Y027392D01*
X034678Y027490D02*
X034241Y027490D01*
X034200Y027392D02*
X034580Y027392D01*
X034481Y027293D02*
X034121Y027293D01*
X034029Y025323D02*
X032346Y025323D01*
X032248Y025225D02*
X033934Y025225D01*
X033839Y025126D02*
X032149Y025126D01*
X032051Y025028D02*
X033744Y025028D01*
X032019Y025619D02*
X027935Y025619D01*
X027935Y025717D02*
X028480Y025717D01*
X028381Y025816D02*
X027935Y025816D01*
X027935Y025914D02*
X028329Y025914D01*
X028293Y026013D02*
X027935Y026013D01*
X027935Y026111D02*
X028293Y026111D01*
X028306Y026210D02*
X027935Y026210D01*
X027935Y026308D02*
X028347Y026308D01*
X028424Y026407D02*
X027935Y026407D01*
X027935Y026505D02*
X028570Y026505D01*
X027935Y026604D02*
X031064Y026604D01*
X031921Y025520D02*
X029441Y025520D01*
X029608Y025422D02*
X031822Y025422D01*
X031724Y025323D02*
X029694Y025323D01*
X029735Y025225D02*
X031625Y025225D01*
X031527Y025126D02*
X029753Y025126D01*
X029753Y025028D02*
X031428Y025028D01*
X031330Y024929D02*
X029724Y024929D01*
X029680Y024831D02*
X031231Y024831D01*
X031133Y024732D02*
X029582Y024732D01*
X028606Y025520D02*
X027935Y025520D01*
X027935Y025422D02*
X028439Y025422D01*
X028353Y025323D02*
X027935Y025323D01*
X027935Y025225D02*
X028312Y025225D01*
X028293Y025126D02*
X027999Y025126D01*
X028097Y025028D02*
X028293Y025028D01*
X028323Y024929D02*
X028196Y024929D01*
X028294Y024831D02*
X028366Y024831D01*
X028393Y024732D02*
X028465Y024732D01*
X028164Y024338D02*
X027620Y024338D01*
X027620Y024240D02*
X028263Y024240D01*
X028066Y024437D02*
X027620Y024437D01*
X027620Y024535D02*
X027967Y024535D01*
X027869Y024634D02*
X027620Y024634D01*
X027620Y024732D02*
X027770Y024732D01*
X027672Y024831D02*
X027620Y024831D01*
X027400Y021516D02*
X027400Y033799D01*
X027109Y034090D01*
X026023Y034090D01*
X026023Y035090D02*
X026779Y035090D01*
X027715Y034154D01*
X028211Y034681D02*
X028556Y034681D01*
X028418Y034779D02*
X028211Y034779D01*
X028211Y034878D02*
X028344Y034878D01*
X028303Y034976D02*
X028211Y034976D01*
X028211Y035075D02*
X028293Y035075D01*
X028293Y035173D02*
X028211Y035173D01*
X028211Y035272D02*
X028331Y035272D01*
X028387Y035370D02*
X028211Y035370D01*
X029023Y036090D02*
X031644Y036090D01*
X032448Y036894D01*
X032131Y037340D02*
X032058Y037340D01*
X032221Y036355D02*
X032337Y036355D01*
X032559Y036355D02*
X032744Y036355D01*
X032744Y036257D02*
X032122Y036257D01*
X032024Y036158D02*
X032773Y036158D01*
X032697Y036060D02*
X031925Y036060D01*
X031827Y035961D02*
X032598Y035961D01*
X032500Y035863D02*
X029696Y035863D01*
X029614Y035764D02*
X032401Y035764D01*
X032401Y035453D02*
X033284Y036336D01*
X033673Y035961D02*
X033674Y035961D01*
X033674Y035863D02*
X033553Y035863D01*
X033708Y035764D02*
X033023Y035764D01*
X032925Y035666D02*
X033614Y035666D01*
X033515Y035567D02*
X032826Y035567D01*
X032728Y035469D02*
X033417Y035469D01*
X033318Y035370D02*
X032629Y035370D01*
X032531Y035272D02*
X033220Y035272D01*
X033121Y035173D02*
X030385Y035173D01*
X030287Y035075D02*
X030491Y035075D01*
X030387Y034976D02*
X030188Y034976D01*
X030283Y034878D02*
X030090Y034878D01*
X030178Y034779D02*
X029629Y034779D01*
X029991Y035090D02*
X030353Y035453D01*
X032401Y035453D01*
X033349Y034779D02*
X034121Y034779D01*
X034022Y034681D02*
X030715Y034681D01*
X030611Y034582D02*
X033924Y034582D01*
X033924Y034272D02*
X035050Y035397D01*
X035542Y035173D02*
X037401Y035173D01*
X037208Y035272D02*
X035583Y035272D01*
X035590Y035370D02*
X037015Y035370D01*
X036822Y035469D02*
X035590Y035469D01*
X035564Y035567D02*
X036629Y035567D01*
X036436Y035666D02*
X035523Y035666D01*
X035446Y035764D02*
X036243Y035764D01*
X036050Y035863D02*
X035337Y035863D01*
X035663Y036060D02*
X034754Y036060D01*
X034754Y035961D02*
X035857Y035961D01*
X035491Y035075D02*
X037594Y035075D01*
X037787Y034976D02*
X035393Y034976D01*
X035207Y034878D02*
X037981Y034878D01*
X038174Y034779D02*
X034743Y034779D01*
X034645Y034681D02*
X038367Y034681D01*
X037882Y033105D02*
X037352Y033105D01*
X037451Y033006D02*
X037784Y033006D01*
X037685Y032908D02*
X037549Y032908D01*
X037538Y031233D02*
X037696Y031233D01*
X037795Y031135D02*
X037440Y031135D01*
X037341Y031036D02*
X037893Y031036D01*
X039329Y028475D02*
X039852Y028475D01*
X039852Y028377D02*
X039230Y028377D01*
X034265Y031280D02*
X034251Y031280D01*
X031391Y030839D02*
X029686Y030839D01*
X029727Y030938D02*
X031292Y030938D01*
X031224Y031036D02*
X029753Y031036D01*
X029753Y031135D02*
X031184Y031135D01*
X031291Y030741D02*
X029590Y030741D01*
X029398Y030642D02*
X031193Y030642D01*
X030120Y031233D02*
X029731Y031233D01*
X029690Y031332D02*
X030009Y031332D01*
X029939Y031430D02*
X029600Y031430D01*
X029420Y031529D02*
X029899Y031529D01*
X028462Y030445D02*
X028211Y030445D01*
X028211Y030347D02*
X028364Y030347D01*
X028322Y030248D02*
X028211Y030248D01*
X028211Y030150D02*
X028293Y030150D01*
X028293Y030051D02*
X028211Y030051D01*
X028211Y029953D02*
X028313Y029953D01*
X028354Y029854D02*
X028211Y029854D01*
X028211Y029756D02*
X028441Y029756D01*
X028612Y029657D02*
X028211Y029657D01*
X026905Y031726D02*
X026575Y031726D01*
X026674Y031824D02*
X026905Y031824D01*
X026905Y031923D02*
X026721Y031923D01*
X026753Y032021D02*
X026820Y032021D01*
X029455Y035666D02*
X030255Y035666D01*
X029674Y036355D02*
X031598Y036355D01*
X030648Y034484D02*
X030506Y034484D01*
X028628Y036651D02*
X028211Y036651D01*
X028211Y036749D02*
X028448Y036749D01*
X028357Y036848D02*
X028211Y036848D01*
X028211Y036946D02*
X028316Y036946D01*
X028293Y037045D02*
X028211Y037045D01*
X028211Y037143D02*
X028293Y037143D01*
X028319Y037242D02*
X028211Y037242D01*
X028211Y037340D02*
X028360Y037340D01*
X028456Y037439D02*
X028211Y037439D01*
X028211Y037537D02*
X028647Y037537D01*
X029023Y037090D02*
X029208Y037275D01*
X033448Y034878D02*
X034219Y034878D01*
X034318Y034976D02*
X033546Y034976D01*
X033645Y035075D02*
X034416Y035075D01*
X034515Y035173D02*
X033743Y035173D01*
X033842Y035272D02*
X034517Y035272D01*
X034510Y035370D02*
X033940Y035370D01*
X034452Y035469D02*
X034510Y035469D01*
X034754Y035863D02*
X034763Y035863D01*
X034007Y036454D02*
X033820Y036454D01*
X033824Y036355D02*
X033851Y036355D01*
X034842Y034878D02*
X034893Y034878D01*
X019597Y033850D02*
X018542Y032598D01*
X018542Y031516D01*
X017755Y030728D01*
X017755Y030650D01*
X018276Y030938D02*
X019398Y030938D01*
X019252Y031036D02*
X018374Y031036D01*
X018473Y031135D02*
X019161Y031135D01*
X019120Y031233D02*
X018571Y031233D01*
X018670Y031332D02*
X019083Y031332D01*
X019083Y031430D02*
X018762Y031430D01*
X018762Y031529D02*
X019083Y031529D01*
X019121Y031627D02*
X018762Y031627D01*
X018762Y031726D02*
X019162Y031726D01*
X019255Y031824D02*
X018762Y031824D01*
X018762Y031923D02*
X019404Y031923D01*
X019300Y032021D02*
X018762Y032021D01*
X018762Y032120D02*
X019205Y032120D01*
X019147Y032218D02*
X018762Y032218D01*
X018762Y032317D02*
X019115Y032317D01*
X019110Y032514D02*
X018762Y032514D01*
X018762Y032415D02*
X019593Y032415D01*
X019136Y032612D02*
X018842Y032612D01*
X018925Y032711D02*
X019185Y032711D01*
X019268Y032809D02*
X019008Y032809D01*
X019112Y034090D02*
X015219Y034090D01*
X015219Y034188D02*
X019172Y034188D01*
X019271Y034287D02*
X015219Y034287D01*
X015219Y034385D02*
X019479Y034385D01*
X018562Y034582D02*
X018462Y034582D01*
X018462Y034681D02*
X018562Y034681D01*
X018562Y034779D02*
X018462Y034779D01*
X018462Y034878D02*
X018562Y034878D01*
X018343Y036257D02*
X016121Y036257D01*
X016300Y036355D02*
X018164Y036355D01*
X018066Y036454D02*
X016398Y036454D01*
X015783Y036257D02*
X015721Y036257D01*
X015596Y035370D02*
X015219Y035370D01*
X015219Y035272D02*
X015513Y035272D01*
X015464Y035173D02*
X015219Y035173D01*
X015219Y035075D02*
X015439Y035075D01*
X016953Y037242D02*
X017436Y037242D01*
X017325Y037340D02*
X017065Y037340D01*
X017135Y037439D02*
X017255Y037439D01*
X017214Y037537D02*
X017176Y037537D01*
X017190Y037636D02*
X017200Y037636D01*
X017190Y037734D02*
X017200Y037734D01*
X017226Y037833D02*
X017163Y037833D01*
X017123Y037931D02*
X017267Y037931D01*
X017354Y038030D02*
X017036Y038030D01*
X016883Y038128D02*
X017507Y038128D01*
X014646Y039803D02*
X013010Y039803D01*
X013203Y039901D02*
X014688Y039901D01*
X014762Y040000D02*
X013396Y040000D01*
X012815Y029066D02*
X018300Y029066D01*
X018208Y028968D02*
X012752Y028968D01*
X012653Y028869D02*
X018167Y028869D01*
D11*
X019654Y029941D03*
X019623Y031429D03*
X019623Y032429D03*
X019597Y033850D03*
X018512Y034991D03*
X018512Y036771D03*
X019597Y037850D03*
X022224Y036850D03*
X022324Y035850D03*
X022224Y034850D03*
X022324Y033850D03*
X022224Y032850D03*
X022324Y031850D03*
X022224Y030850D03*
X019654Y025941D03*
X019741Y024682D03*
X021530Y024672D03*
X021156Y022276D03*
X020156Y022276D03*
X017826Y020709D03*
X016826Y020709D03*
X015277Y022314D03*
X016209Y022804D03*
X020141Y019295D03*
X021141Y019295D03*
X023613Y020669D03*
X024613Y020669D03*
X026001Y022344D03*
X025062Y022794D03*
X029533Y020467D03*
X031704Y027290D03*
X031604Y028290D03*
X031704Y029290D03*
X031604Y030290D03*
X031704Y031290D03*
X031604Y032290D03*
X031704Y033290D03*
X033284Y036336D03*
X032448Y036894D03*
X031518Y037275D03*
X030682Y037833D03*
X034214Y035955D03*
X035050Y035397D03*
X015952Y034991D03*
X015952Y036771D03*
X008191Y035985D03*
X007355Y035427D03*
X006425Y035046D03*
X006885Y028766D03*
X008288Y027220D03*
X008288Y026220D03*
X006885Y024766D03*
X003191Y025551D03*
X003091Y024551D03*
X003091Y026551D03*
X003191Y027551D03*
X003091Y028551D03*
X011745Y020436D03*
D12*
X010205Y029191D03*
X009205Y029191D03*
X009316Y030453D03*
X010316Y030453D03*
X010397Y034081D03*
X009397Y034081D03*
X009909Y035426D03*
X010909Y035426D03*
X016695Y037671D03*
X017695Y037671D03*
X024729Y032085D03*
X024729Y031085D03*
X021505Y029471D03*
X021505Y028471D03*
X021500Y027385D03*
X021500Y026385D03*
X030379Y031662D03*
X030379Y032662D03*
D13*
X029303Y033090D02*
X028743Y033090D01*
X028743Y034090D02*
X029303Y034090D01*
X029303Y035090D02*
X028743Y035090D01*
X028743Y036090D02*
X029303Y036090D01*
X029303Y037090D02*
X028743Y037090D01*
X028743Y038090D02*
X029303Y038090D01*
X026303Y038090D02*
X025743Y038090D01*
X025743Y037090D02*
X026303Y037090D01*
X026303Y036090D02*
X025743Y036090D01*
X025743Y035090D02*
X026303Y035090D01*
X026303Y034090D02*
X025743Y034090D01*
X025743Y033090D02*
X026303Y033090D01*
X026303Y032090D02*
X025743Y032090D01*
X025743Y031090D02*
X026303Y031090D01*
X026303Y030090D02*
X025743Y030090D01*
X025743Y029090D02*
X026303Y029090D01*
X026303Y028090D02*
X025743Y028090D01*
X025743Y027090D02*
X026303Y027090D01*
X026303Y026090D02*
X025743Y026090D01*
X025743Y025090D02*
X026303Y025090D01*
X028743Y025090D02*
X029303Y025090D01*
X029303Y026090D02*
X028743Y026090D01*
X028743Y027090D02*
X029303Y027090D01*
X029303Y028090D02*
X028743Y028090D01*
X028743Y029090D02*
X029303Y029090D01*
X029303Y030090D02*
X028743Y030090D01*
X028743Y031090D02*
X029303Y031090D01*
X029303Y032090D02*
X028743Y032090D01*
D14*
X036117Y032576D03*
X036117Y031576D03*
X037117Y031576D03*
X037117Y032576D03*
X038117Y032576D03*
X038117Y031576D03*
X037831Y028713D03*
X038831Y028713D03*
X038831Y027713D03*
X037831Y027713D03*
X036831Y027713D03*
X035831Y027713D03*
X035831Y028713D03*
X036831Y028713D03*
D15*
X031604Y026290D03*
X022324Y037850D03*
D16*
X023531Y029333D03*
X023531Y027433D03*
D17*
G36*
X011137Y037176D02*
X010578Y036879D01*
X010281Y037438D01*
X010840Y037735D01*
X011137Y037176D01*
G37*
D18*
X011592Y037777D03*
X012475Y038246D03*
X013358Y038716D03*
X014241Y039185D03*
X015124Y039655D03*
D19*
X020670Y040553D03*
D20*
X012302Y036032D03*
X012302Y035182D03*
X012302Y034332D03*
X012315Y030938D03*
X012315Y030088D03*
X012315Y029238D03*
D21*
X005894Y032257D03*
X004713Y030406D03*
X003531Y032257D03*
D22*
X007560Y032302D03*
X011560Y032302D03*
D23*
X018148Y026004D03*
X018542Y028760D03*
X022869Y025893D03*
X024219Y024193D03*
X024719Y026693D03*
X033700Y028327D03*
X033857Y027579D03*
X036731Y030059D03*
X034251Y031280D03*
X035769Y033643D03*
X021337Y037854D03*
X020904Y036240D03*
M02*
